<svg id="Layer_1" xmlns="http://www.w3.org/2000/svg" width="400" height="60" viewBox="0 0 400 60"><g fill="none" stroke="#019980" stroke-width="5.516" stroke-miterlimit="10"><circle cx="149.9" cy="100" r="12.2"/><path d="M149.6 118.5v8.9M149.6 72.6v8.9M168.1 100h9.7M122.2 100H131.1M136.9 113l-3.3 3.3-3.3 3.2M169.4 80.5l-3.3 3.2-3.2 3.3M162.9 113l3.2 3.3 3.3 3.2M130.3 80.5l6.6 6.5M143.4 116.7l-1.6 4.3M158 79l-1.7 4.4M166.5 106.4l4.3 1.7M128.9 91.9l4.3 1.7M133.5 107.3l-4.2 1.8M170.4 90.9l-4.2 1.9M157.1 116.3l1.9 4.3M140.7 79.5l1.9 4.2"/></g><path fill="none" stroke="#019980" stroke-width="5.516" stroke-miterlimit="10" d="M350 130V78.4M350 73.6c10.9 4.9 18.5 14.9 18.5 27.6 0 10.2-8.3 18.4-18.4 18.4M350 73.6c-10.9 4.9-18.5 14.9-18.5 27.6 0 10.2 8.3 18.4 18.4 18.4"/><g fill="none" stroke="#019980" stroke-width="5.516" stroke-miterlimit="10"><path d="M350 114.2l-12-12M350 101.1l-10.3-10.3M350 89.2l-5.3-5.3M350 114.2l12-12M350 101.1l10.3-10.3M350 89.2l5.4-5.3"/></g><path fill="none" stroke="#019980" stroke-width="5.516" stroke-miterlimit="10" d="M239.7 89.7c-1.5-2.1-2.5-4.7-2.5-7.5 0-4.7 3.8-8.5 8.5-8.5 1.4 0 2.8.4 4 1l.2.1c1.2-.7 2.7-1.1 4.2-1.1 4.7 0 8.5 3.8 8.5 8.5 0 2.9-1 5.6-2.7 7.8"/><path fill="none" stroke="#019980" stroke-width="5.516" stroke-miterlimit="10" d="M250 101.5s-1 7.1-3.7 9.8c-3.3 3.3-8.7 3.2-12-.2-1.1-1.1-2.2-3.8-2.2-3.8s-2.7-1.1-3.8-2.2c-3.3-3.3-3.3-8.7 0-12 3.2-3.2 7.6-4.3 11.6-3.4 2.3.5 4.5 1.6 6.4 3.4M250 101.5s1 7.1 3.7 9.8c3.3 3.3 8.7 3.2 12-.2 1.1-1.1 2.2-3.8 2.2-3.8s2.7-1.1 3.8-2.2c3.3-3.3 3.3-8.7 0-12-3.2-3.2-7.6-4.3-11.6-3.4-2.3.5-4.5 1.6-6.4 3.4M250 106.3v9.9c0 6.6 5.3 11.1 11.9 11.1"/><path fill="none" stroke="#019980" stroke-width="3.677" stroke-miterlimit="10" d="M-41.5-76.2h86.6v60h-86.6z"/><g fill="none" stroke="#019980" stroke-width="5.516" stroke-miterlimit="10"><circle cx="87.4" cy="120.6" r="5.9"/><circle cx="18.7" cy="119.8" r="6.6"/><path d="M.6 73.6H51l35.9 11.7M77.7 82.1l9.6 24.3M6.8 88l4.8 2 5.6-2.4 5.6 2.3 5.6-2.3 5.6 2.3 5.6-2.3 5.6 2.3 4.9-2M97.2 110.4c-5.4-5.4-14.2-5.4-19.6 0l-7.9 8.3h-36l-7.5-13.5h-15l-7.5 13"/><path d="M59.7 76.4v22.9l8.8 7h18.8M6.8 75.3v23.1h26.3l7.7 7.9h9.9v-31"/></g><g><g fill="none" stroke="#019980" stroke-width="4.125" stroke-miterlimit="10"><circle cx="148.972" cy="29.92" r="11.648"/><path d="M148.827 47.54v8.298M148.827 3.856V12.302M166.446 29.92h9.172M122.762 29.92H131.208M136.595 42.297l-3.056 3.057-3.06 3.06M167.61 11.28l-3.057 3.06-3.203 3.203M161.35 42.297l3.203 3.057 3.057 3.06M130.48 11.28l6.115 6.263M142.857 45.792L141.4 49.87M156.69 9.825l-1.602 4.225M164.843 36.035l4.222 1.602M129.024 22.203l4.076 1.602M133.54 36.763l-4.08 1.748M168.63 21.184l-4.077 1.748M155.962 45.354l1.746 4.078M140.38 10.263l1.748 4.077"/></g><path fill="none" stroke="#019980" stroke-width="4.125" stroke-miterlimit="10" d="M240.56 21.967c-1.31-1.748-2.038-3.932-2.038-6.262 0-3.932 3.203-6.99 6.988-6.99 1.164 0 2.332.29 3.35.874l.145.144c1.02-.58 2.184-.873 3.498-.873 3.932 0 6.986 3.204 6.986 6.99 0 2.476-.876 4.66-2.185 6.407"/><path fill="none" stroke="#019980" stroke-width="4.125" stroke-miterlimit="10" d="M249.15 31.722s-.875 5.97-3.057 8.153c-2.77 2.77-7.135 2.62-9.904-.145-.874-.874-1.892-3.204-1.892-3.204s-2.33-.873-3.203-1.746c-2.768-2.77-2.768-7.135 0-9.903 2.62-2.62 6.262-3.64 9.61-2.91 1.892.435 3.786 1.31 5.24 2.91M249.15 31.722s.875 5.97 3.057 8.153c2.77 2.77 7.135 2.62 9.904-.145.872-.874 1.892-3.204 1.892-3.204s2.186-.873 3.203-1.746c2.77-2.77 2.77-7.135 0-9.903-2.62-2.62-6.26-3.64-9.61-2.91-1.89.435-3.786 1.31-5.24 2.91M249.15 35.8v8.299c0 5.532 4.37 10.046 9.9 10.046"/><g fill="none" stroke="#019980" stroke-width="4.991" stroke-miterlimit="10"><path d="M77.932 41.568c2.82 0 5.107 2.288 5.107 5.107 0 2.823-2.288 5.11-5.108 5.11-2.824 0-5.112-2.287-5.112-5.11 0-2.82 2.288-5.107 5.112-5.107z"/><circle cx="28.245" cy="46.678" r="5.109"/><path d="M70.707 15.14l7.577 19.028M56.258 10.383v18.32l6.872 5.465h15.154M16.265 8.09v17.443H47.1"/><path d="M77.932 17.43l-31.01-9.34H10.98M46.923 34.168V8.09M85.683 38.22c-4.406-4.403-11.277-4.403-15.68 0l-6.344 6.697H46.745l-10.75-10.75H20.143l-5.11 5.11M56.083 10.383v18.32M16.09 16.9l2.29-1.233 4.228 2.645 4.58-2.645 4.582 2.645 4.582-2.645 4.402 2.645 4.406-2.645 1.94 1.06"/></g><g fill="none" stroke="#019980" stroke-width="4.125" stroke-miterlimit="10"><path d="M349.674 56.144V20.177M349.674 41.873l-9.754-9.9M349.674 31.097l-8.444-8.59M349.674 21.342l-4.365-4.514M349.674 41.873l9.904-9.9M349.674 31.097l8.45-8.59M349.674 21.342l4.517-4.514M334.676 31.39c0 8.3 6.7 14.997 14.998 14.997 8.303 0 15-6.698 15-14.997 0-16.455-15-23.444-15-23.444s-14.998 6.697-14.998 23.444z"/></g></g></svg>