<svg id="Layer_1" xmlns="http://www.w3.org/2000/svg" width="174" height="60" viewBox="0 0 174 60"><style>.st0{fill:none;stroke:#019980;stroke-width:3.6766;stroke-miterlimit:10;}</style><circle class="st0" cx="29.9" cy="30" r="11.1"/><path class="st0" d="M29.6 46.8v8.1M29.6 5.1v8.1M46.5 30h8.7M4.8 30h8M18 41.8l-2.9 3-3 3M47.6 12.3l-2.9 2.9-3 3M41.7 41.8l3 3 2.9 3M12.1 12.3l5.9 5.9M24 45.2l-1.5 3.9M37.2 10.9l-1.5 4M45 35.9l4 1.5M10.8 22.7l3.9 1.5M15 36.6l-3.8 1.7M48.6 21.7l-3.9 1.7M36.5 44.9l1.7 3.8M21.6 11.3l1.7 3.9"/><g><path class="st0" d="M150.8 56.9V8.6M150.8 3.3c9.9 4.5 16.8 14.4 16.8 26 0 9.3-7.5 16.8-16.8 16.8M150.8 3.3c-9.9 4.5-16.8 14.4-16.8 26 0 9.3 7.5 16.8 16.8 16.8M150.8 41.1l-10.9-10.9M150.8 29.2l-9.3-9.4M150.8 18.4l-4.8-4.9M150.8 41.1l10.9-10.9M150.8 29.2l9.4-9.4M150.8 18.4l4.9-4.9"/></g><g><path class="st0" d="M80.7 19.7c-1.4-1.9-2.2-4.3-2.2-6.8 0-4.3 3.4-7.7 7.7-7.7 1.3 0 2.5.3 3.6.9l.2.1c1.1-.7 2.4-1 3.9-1 4.3 0 7.7 3.4 7.7 7.7 0 2.7-.9 5.1-2.4 7.1"/><path class="st0" d="M90 30.4s-.9 6.5-3.4 8.9c-3 3-7.9 2.9-10.9-.2-1-1-2-3.5-2-3.5s-2.5-1-3.5-2c-3-3-3-7.9 0-10.9 2.9-2.9 6.9-3.9 10.6-3.1 2.1.4 4.1 1.5 5.8 3.1M90.1 30.4s.9 6.5 3.4 8.9c3 3 7.9 2.9 10.9-.2 1-1 2-3.5 2-3.5s2.5-1 3.5-2c3-3 3-7.9 0-10.9-2.9-2.9-6.9-3.9-10.6-3.1-2.1.4-4.1 1.5-5.8 3.1M90 34.8v9c0 6 4.8 11 10.8 11"/></g></svg>