<svg id="Layer_1" xmlns="http://www.w3.org/2000/svg" width="100" height="16" viewBox="0 0 100 16"><style>.st0{fill:#009980;}</style><path class="st0" d="M2 .6v3.6h1.7v11.2h3.9V4.2h1.7V.6zM10.6.6h4v10.8c0 .4.2.6.5.6s.5-.2.5-.6V.6h4v11.3c0 2-1.4 3.9-4.2 3.9h-.6c-3.1 0-4.1-1.9-4.1-3.9V.6zM24.8 15.4h-4V.6h4v4.8L26 .6h3.9L28.1 7l1.9 8.4h-4.2l-1-5.4zM38 5.2h-6.3V.6h19.5v4.6h-6.6v10.2H38zM52.6.6h6.6V7c0 1.7.9 3.5 4.3 3.5s4.3-1.8 4.3-3.5V.6h6.6v7c0 2.9-1.3 8.2-10.5 8.2H63c-9.3 0-10.4-5.3-10.4-8.2v-7zM76 15.4V.6h6.6v5.6l7-5.6h8.2l-8.7 6.7 8.8 8.1h-8.7l-6.6-6.2v6.2z"/></svg>