<svg id="Layer_1" xmlns="http://www.w3.org/2000/svg" width="52" height="58" viewBox="0 0 52 58"><style>.st0{fill:#FFFFFF;stroke:#02A182;stroke-width:4;stroke-miterlimit:10;} .st1{fill:#FFFFFF;} .st2{fill:#02A182;}</style><path class="st0" d="M17.8 37.5v18.2m0-18.2V12.7M31.3 26.3h9v15.5H27v-4.3"/><path class="st0" d="M31.3 37.5H12.4V22h18.9v15.5L27 41.8"/><path class="st1" d="M17.8 14.1c-1.4 0-2.7-.6-3.6-1.7-.9-1.1-1.2-2.5-1-3.9.3-1.9 1.8-3.3 3.7-3.7.3-.1.6-.1.9-.1 1.4 0 2.7.6 3.6 1.7.9 1.1 1.2 2.5 1 3.9-.4 1.8-1.8 3.3-3.7 3.7-.3.1-.6.1-.9.1z"/><path class="st2" d="M17.8 6.8c1.6 0 2.9 1.5 2.6 3.2-.2 1-1 1.9-2.1 2.1h-.5c-1.6 0-2.9-1.5-2.6-3.2.2-1 1-1.9 2.1-2.1h.5m0-4c-.4 0-.9 0-1.3.1-2.6.5-4.8 2.6-5.3 5.3-.4 2 .1 4 1.4 5.5 1.3 1.5 3.1 2.4 5.1 2.4.4 0 .8 0 1.3-.1 2.7-.5 4.8-2.6 5.3-5.3.4-2-.1-4-1.4-5.5-1.3-1.5-3.1-2.4-5.1-2.4z"/></svg>