<svg id="Layer_1" xmlns="http://www.w3.org/2000/svg" xmlns:xlink="http://www.w3.org/1999/xlink" width="1920" height="856.92" viewBox="0 0 1920 856.92"><defs><path id="SVGID_1_" d="M0 0h1920v856.92H0z"/></defs><clipPath id="SVGID_2_"><use xlink:href="#SVGID_1_" overflow="visible"/></clipPath><path clip-path="url(#SVGID_2_)" fill="none" stroke="#FFF" stroke-width="103.089" stroke-miterlimit="10" d="M4287.977-266.156L1665.884 1123.078"/><path clip-path="url(#SVGID_2_)" fill="none" stroke="#FCE700" stroke-width="103.089" stroke-miterlimit="10" d="M4172.723-266.156L1550.63 1123.078"/><path clip-path="url(#SVGID_2_)" fill="none" stroke="#FFF" stroke-width="103.089" stroke-miterlimit="10" d="M4057.47-266.156L1435.378 1123.078"/><path clip-path="url(#SVGID_2_)" fill="none" stroke="#FCE700" stroke-width="103.089" stroke-miterlimit="10" d="M3942.217-266.156L1320.125 1123.078"/><path clip-path="url(#SVGID_2_)" fill="none" stroke="#FFF" stroke-width="103.089" stroke-miterlimit="10" d="M3826.964-266.156L1204.87 1123.077"/><path clip-path="url(#SVGID_2_)" fill="none" stroke="#FCE700" stroke-width="103.089" stroke-miterlimit="10" d="M3711.71-266.156L1089.62 1123.077"/><path clip-path="url(#SVGID_2_)" fill="none" stroke="#F6F6F3" stroke-width="103.089" stroke-miterlimit="10" d="M3596.457-266.157L974.365 1123.077"/><path clip-path="url(#SVGID_2_)" fill="none" stroke="#FCE700" stroke-width="103.089" stroke-miterlimit="10" d="M3481.204-266.157L859.112 1123.077"/><path clip-path="url(#SVGID_2_)" fill="none" stroke="#F6F6F3" stroke-width="103.089" stroke-miterlimit="10" d="M3365.95-266.157L743.86 1123.077"/><path clip-path="url(#SVGID_2_)" fill="none" stroke="#FCE700" stroke-width="103.089" stroke-miterlimit="10" d="M3250.698-266.157L628.606 1123.077"/><path clip-path="url(#SVGID_2_)" fill="none" stroke="#F6F6F3" stroke-width="103.089" stroke-miterlimit="10" d="M3135.445-266.157L513.353 1123.077"/><path clip-path="url(#SVGID_2_)" fill="none" stroke="#FCE700" stroke-width="103.089" stroke-miterlimit="10" d="M3020.19-266.157L398.1 1123.077"/><path clip-path="url(#SVGID_2_)" fill="none" stroke="#F6F6F3" stroke-width="103.089" stroke-miterlimit="10" d="M2904.938-266.157L282.848 1123.077"/><path clip-path="url(#SVGID_2_)" fill="none" stroke="#FCE700" stroke-width="103.089" stroke-miterlimit="10" d="M2789.686-266.157L167.593 1123.077"/><path clip-path="url(#SVGID_2_)" fill="none" stroke="#F6F6F3" stroke-width="103.089" stroke-miterlimit="10" d="M2674.432-266.157L52.34 1123.077"/><path clip-path="url(#SVGID_2_)" fill="none" stroke="#FCE700" stroke-width="103.089" stroke-miterlimit="10" d="M2559.18-266.157L-62.914 1123.077"/><path clip-path="url(#SVGID_2_)" fill="none" stroke="#F6F6F3" stroke-width="103.089" stroke-miterlimit="10" d="M2443.926-266.157L-178.166 1123.077"/><path clip-path="url(#SVGID_2_)" fill="none" stroke="#FCE700" stroke-width="103.089" stroke-miterlimit="10" d="M2328.673-266.157L-293.42 1123.076"/><path clip-path="url(#SVGID_2_)" fill="none" stroke="#F6F6F3" stroke-width="103.089" stroke-miterlimit="10" d="M2213.42-266.157L-408.672 1123.076"/><path clip-path="url(#SVGID_2_)" fill="none" stroke="#FCE700" stroke-width="103.089" stroke-miterlimit="10" d="M2098.166-266.157L-523.926 1123.076"/><path clip-path="url(#SVGID_2_)" fill="none" stroke="#F6F6F3" stroke-width="103.089" stroke-miterlimit="10" d="M1982.913-266.158L-639.18 1123.076"/><path clip-path="url(#SVGID_2_)" fill="none" stroke="#FCE700" stroke-width="103.089" stroke-miterlimit="10" d="M1867.66-266.158L-754.432 1123.076"/><path clip-path="url(#SVGID_2_)" fill="none" stroke="#F6F6F3" stroke-width="103.089" stroke-miterlimit="10" d="M1752.407-266.158L-869.685 1123.076"/><path clip-path="url(#SVGID_2_)" fill="none" stroke="#FCE700" stroke-width="103.089" stroke-miterlimit="10" d="M1637.154-266.158L-984.938 1123.076"/><path clip-path="url(#SVGID_2_)" fill="none" stroke="#F6F6F3" stroke-width="103.089" stroke-miterlimit="10" d="M1521.9-266.158l-2622.09 1389.234"/><path clip-path="url(#SVGID_2_)" fill="none" stroke="#FCE700" stroke-width="103.089" stroke-miterlimit="10" d="M1406.647-266.158l-2622.09 1389.234"/><path clip-path="url(#SVGID_2_)" fill="none" stroke="#F6F6F3" stroke-width="103.089" stroke-miterlimit="10" d="M1291.395-266.158l-2622.092 1389.234"/><path clip-path="url(#SVGID_2_)" fill="none" stroke="#FCE700" stroke-width="103.089" stroke-miterlimit="10" d="M1176.142-266.158L-1445.95 1123.076"/><path clip-path="url(#SVGID_2_)" fill="none" stroke="#F6F6F3" stroke-width="103.089" stroke-miterlimit="10" d="M1060.89-266.158l-2622.094 1389.234"/><path clip-path="url(#SVGID_2_)" fill="none" stroke="#FCE700" stroke-width="103.089" stroke-miterlimit="10" d="M945.635-266.158l-2622.092 1389.234"/><path clip-path="url(#SVGID_2_)" fill="none" stroke="#FFF" stroke-width="103.089" stroke-miterlimit="10" d="M830.382-266.158L-1791.71 1123.076"/><path clip-path="url(#SVGID_2_)" fill="none" stroke="#FCE700" stroke-width="103.089" stroke-miterlimit="10" d="M715.13-266.158l-2622.093 1389.234"/><path clip-path="url(#SVGID_2_)" fill="none" stroke="#FFF" stroke-width="103.089" stroke-miterlimit="10" d="M599.875-266.158l-2622.09 1389.234"/><path clip-path="url(#SVGID_2_)" fill="none" stroke="#FCE700" stroke-width="103.089" stroke-miterlimit="10" d="M484.623-266.158L-2137.47 1123.075"/><path clip-path="url(#SVGID_2_)" fill="none" stroke="#FFF" stroke-width="103.089" stroke-miterlimit="10" d="M369.37-266.158l-2622.093 1389.233"/><path clip-path="url(#SVGID_2_)" fill="none" stroke="#FCE700" stroke-width="103.089" stroke-miterlimit="10" d="M254.116-266.16l-2622.092 1389.235"/></svg>