<?xml version="1.0" standalone="no"?> <!DOCTYPE svg PUBLIC "-//W3C//DTD SVG 1.0//EN" "http://www.w3.org/TR/2001/REC-SVG-20010904/DTD/svg10.dtd" > <svg xmlns="http://www.w3.org/2000/svg" width="100%" height="100%">
<defs >
<font horiz-adv-x="395" ><font-face
    font-family=""
    units-per-em="1000"
    panose-1="0 0 0 0 0 0 0 0 0 0"
    ascent="812"
    descent="-188"
    alphabetic="0" />
<missing-glyph horiz-adv-x="116" />
<glyph unicode=" " glyph-name="space" horiz-adv-x="116" />
<glyph unicode="!" glyph-name="exclam" horiz-adv-x="223" d="M194 0H28V180H194V0ZM217 744L165 206H57L6 744H217Z" />
<glyph unicode="&quot;" glyph-name="quotedbl" horiz-adv-x="287" d="M135 515H13V744H135V515ZM274 515H151V744H274V515Z" />
<glyph unicode="#" glyph-name="numbersign" horiz-adv-x="400" d="M210 744L195 548H226L240 744H358L344 548H396L387 432H335L329 346H381L372 230H320L304 0H187L203 230H172L155 0H40L56 230H4L13 346H64L70 432H19L28 548H79L93 744H210ZM180 346H211L217
432H187L180 346Z" />
<glyph unicode="$" glyph-name="dollar" horiz-adv-x="460" d="M210 -11Q103 -10 57 35T10 159V271H190V175Q190 141 210 134V287L118 346Q64 381 39 427T13 545V582Q13 662 60 708T210 755V812H243V755Q343 755 389 717T436 589V514H263V580Q263 600 259 609T243
622V488L344 424Q402 387 427 341T452 225V182Q452 91 399 41T243 -11V-75H210V-11ZM264 205Q264 230 260 242T243 264V133Q264 139 264 177V205ZM190 562Q190 543 194 532T210 511V622Q198 619 194 609T190 580V562Z" />
<glyph unicode="%" glyph-name="percent" horiz-adv-x="611" d="M326 215Q326 281 360 313T452 345H473Q536 345 568 313T601 215V122Q601 57 566 25T471 -8H453Q326 -8 326 122V215ZM10 623Q10 689 44 721T136 753H157Q220 753 252 721T285 623V530Q285 465 250
433T155 400H137Q10 400 10 530V623ZM522 744L203 0H88L409 744H522ZM159 650Q159 665 148 665Q140 665 138 661T136 650V504Q136 497 138 494T148 490Q159 490 159 504V650ZM464 82Q475 82 475 96V242Q475 257 464 257Q456 257 454 253T452 242V96Q452 89 454
86T464 82Z" />
<glyph unicode="&amp;" glyph-name="ampersand" horiz-adv-x="557" d="M7 220Q7 289 38 333T129 412Q116 436 106 455T89 493T79 532T75 579V603Q75 632 84 659T112 708T163 742T240 755H272Q348 755 389 720T430 613V592Q430 558 422 533T397 489T357 453T305
419L370 294Q373 327 374 365T375 446H530Q530 337 516 265T480 143Q497 137 516 135T557 132L526 -12Q466 -12 428 -2T364 26Q344 12 313 1T237 -10H236Q184 -10 142 2T69 40T23 104T7 194V220ZM263 130Q269 130 274 130T285 132L187 309Q185 295 184 283T182
254V236Q182 185 201 158T263 130ZM241 573Q241 553 245 540T260 505Q269 517 273 529T277 563V614Q277 628 274 633T259 639Q248 639 245 632T241 613V573Z" />
<glyph unicode="&apos;" glyph-name="quotesingle" horiz-adv-x="151" d="M137 515H13V744H137V515Z" />
<glyph unicode="(" glyph-name="parenleft" horiz-adv-x="242" d="M14 344Q14 423 24 489T51 612T89 717T133 808H243Q231 775 219 726T197 616T181 487T175 347Q175 272 182 202T199 71T223 -42T247 -131H136Q114 -90 92 -41T53 67T25 195T14 344Z" />
<glyph unicode=")" glyph-name="parenright" horiz-adv-x="242" d="M66 347Q66 418 60 486T45 615T23 725T-2 808H108Q131 766 152 718T191 613T218 490T228 344Q228 264 217 195T189 68T150 -40T105 -131H-6Q6 -94 18 -43T41 70T59 202T66 347Z" />
<glyph unicode="*" glyph-name="asterisk" horiz-adv-x="272" d="M222 720L268 643L201 620L267 596L222 519L172 565L183 497H88L101 565L50 520L5 596L71 620L4 643L48 720L100 676L88 744H183L173 676L222 720Z" />
<glyph unicode="+" glyph-name="plus" horiz-adv-x="350" d="M115 250H12V356H115V470H235V356H338V250H235V136H115V250Z" />
<glyph unicode="," glyph-name="comma" horiz-adv-x="192" d="M49 -107Q59 -84 67 -54T77 0H13V180H179V44Q179 -2 167 -42T143 -107H49Z" />
<glyph unicode="-" glyph-name="hyphen" horiz-adv-x="220" d="M207 386V212H13V386H207Z" />
<glyph unicode="." glyph-name="period" horiz-adv-x="192" d="M179 0H13V180H179V0Z" />
<glyph unicode="/" glyph-name="slash" horiz-adv-x="258" d="M116 -131H-14L133 808H263L116 -131Z" />
<glyph unicode="0" glyph-name="zero" horiz-adv-x="479" d="M466 214Q466 158 451 116T408 46T342 3T256 -11H223Q123 -11 68 48T13 214V523Q13 630 63 692T223 755H256Q311 755 350 739T415 692T453 618T466 523V214ZM259 551Q259 565 256 573T239 581Q228 581
224 573T220 551V193Q220 165 239 165Q259 165 259 193V551Z" />
<glyph unicode="1" glyph-name="one" horiz-adv-x="305" d="M8 495V659Q64 658 90 681T118 744H289V0H92V495H8Z" />
<glyph unicode="2" glyph-name="two" horiz-adv-x="443" d="M211 603Q194 603 194 581V495H16V598Q16 628 26 656T58 705T113 740T195 754H235Q334 754 382 708T430 585V549Q430 524 428 503T420 462T401 421T366 374Q351 357 334 338T295 295Q256 252 235 227T204
189T192 170T190 158H262V246H433V0H9V121Q9 145 10 165T22 212T54 273T117 365Q135 391 150 411T180 450Q207 488 218 507T229 547V581Q229 603 211 603Z" />
<glyph unicode="3" glyph-name="three" horiz-adv-x="441" d="M17 501V598Q17 631 28 659T61 709T118 742T199 754H228Q323 754 372 713T421 599V535Q421 512 415 495T400 464T382 443T366 431Q390 421 410 394T431 325V170Q431 80 376 35T230 -11H200Q144 -11
108 3T49 41T18 93T9 151V279H197V178Q197 160 215 160Q233 160 233 178V285Q233 296 229 300T215 304H124V475H209Q229 475 229 494V581Q229 601 212 601Q196 601 196 581V501H17Z" />
<glyph unicode="4" glyph-name="four" horiz-adv-x="437" d="M9 290Q25 332 46 389T89 509T134 634T175 749H358V317H428V136H358V0H168V136H9V290ZM168 452L122 317H168V452Z" />
<glyph unicode="5" glyph-name="five" horiz-adv-x="445" d="M17 326V744H413V578H196V474Q205 483 216 494T241 515T274 531T313 538H322Q350 538 371 527T406 497T426 457T433 412V160Q433 124 420 93T381 38T320 2T238 -11H199Q148 -11 112 1T54 35T22 85T12
143V274H200V174Q200 155 217 155Q233 155 233 174V368Q233 388 217 388Q200 388 200 368V326H17Z" />
<glyph unicode="6" glyph-name="six" horiz-adv-x="476" d="M352 489Q379 489 400 479T435 452T457 413T465 364V179Q465 137 450 103T408 43T343 3T258 -11H220Q118 -11 66 41T13 179V569Q13 603 25 636T62 695T126 737T220 753H249Q303 753 341 739T404 700T440
642T451 572V508H251V570Q251 592 235 592Q219 592 219 570V422Q227 431 238 442T264 464T298 482T343 489H352ZM240 156Q252 156 255 163T259 181V315Q259 329 256 336T240 344Q219 344 219 315V181Q219 170 223 163T240 156Z" />
<glyph unicode="7" glyph-name="seven" horiz-adv-x="412" d="M401 744V601Q396 562 381 498T349 347Q335 275 328 215T320 99V0H86V83Q86 108 87 132T93 184T109 246T140 328Q173 408 192 454T222 525T235 562T238 584H180V493H11V744H401Z" />
<glyph unicode="8" glyph-name="eight" horiz-adv-x="466" d="M450 514Q450 490 445 472T430 441T410 417T388 400Q419 383 438 356T457 284V179Q457 129 442 93T398 34T332 0T248 -11H218Q119 -11 64 35T9 180V284Q9 329 26 355T76 400Q52 415 35 440T17 514V582Q17
619 28 650T63 704T126 740T218 753H248Q302 753 340 740T403 704T439 650T450 582V514ZM252 299Q252 311 249 318T234 325Q213 325 213 299V180Q213 156 234 156Q252 156 252 180V299ZM252 575Q252 599 234 599Q224 599 219 594T213 575V481Q213 458 234 458Q252
458 252 481V575Z" />
<glyph unicode="9" glyph-name="nine" horiz-adv-x="475" d="M136 253Q77 253 44 292T11 395V557Q11 594 21 629T55 692T116 736T209 753H252Q355 753 408 700T462 558V175Q462 141 450 108T413 49T349 6T256 -11H223Q168 -11 130 2T69 39T35 93T24 156V234H225V172Q225
150 241 150Q256 150 256 172V319Q247 308 236 297T210 275T180 259T145 253H136ZM236 587Q224 587 220 579T216 561V427Q216 413 220 406T236 398Q256 398 256 427V561Q256 571 252 579T236 587Z" />
<glyph unicode=":" glyph-name="colon" horiz-adv-x="196" d="M181 0H15V180H181V0ZM181 295H15V475H181V295Z" />
<glyph unicode=";" glyph-name="semicolon" horiz-adv-x="196" d="M51 -107Q61 -84 69 -54T79 0H15V180H181V44Q181 -2 169 -42T145 -107H51ZM181 295H15V475H181V295Z" />
<glyph unicode="&lt;" glyph-name="less" horiz-adv-x="302" d="M12 358L288 467V343L149 302L288 263V138L12 248V358Z" />
<glyph unicode="=" glyph-name="equal" horiz-adv-x="347" d="M333 295V192H14V295H333ZM333 414V311H14V414H333Z" />
<glyph unicode="&gt;" glyph-name="greater" horiz-adv-x="302" d="M14 467L291 358V248L14 138V263L153 302L14 343V467Z" />
<glyph unicode="?" glyph-name="question" horiz-adv-x="425" d="M120 206V281Q120 299 121 312T125 338T135 362T151 389L207 475Q217 490 219 502T222 532V585Q222 597 219 604T204 611Q192 611 189 604T186 584V476H10V588Q10 618 17 647T43 700T98 738T188
753H232Q281 753 315 741T372 707T404 656T415 592V542Q415 518 413 499T406 463T391 431T368 398L289 301Q274 282 269 270T264 235V206H120ZM275 0H108V180H275V0Z" />
<glyph unicode="@" glyph-name="at" horiz-adv-x="718" d="M602 -44Q588 -62 566 -80T512 -112T442 -136T356 -145H355Q323 -145 286 -140T210 -121T137 -80T74 -10T30 95T13 244V339Q13 428 37 501T108 625T219 705T366 733H367Q437 733 498 717T606 662T678
562T705 409V335Q705 244 691 186T651 95T593 50T521 38H495Q450 38 422 57T380 107Q353 70 326 54T275 38H270Q246 38 226 48T190 76T167 118T161 173L174 425Q177 483 204 512T269 542H276Q314 542 341 523T385 479L388 538H564L542 152Q541 144 544 138T556
131Q567 131 575 148T588 193T596 259T599 335V406Q599 484 580 531T528 603T454 637T367 645H366Q313 645 269 627T192 571T141 475T123 338V244Q123 175 134 127T165 45T208 -8T259 -38T310 -52T355 -55H356Q393 -55 422 -48T475 -29T515 -5T543 20L602 -44ZM381
408Q382 432 366 432Q358 432 356 426T352 408L339 170Q337 149 352 149Q365 149 367 169L381 408Z" />
<glyph unicode="A" glyph-name="A" horiz-adv-x="450" d="M251 92H178L169 0H-3L94 744H345L453 0H260L251 92ZM195 259H234L214 455L195 259Z" />
<glyph unicode="B" glyph-name="B" horiz-adv-x="477" d="M15 744H318Q378 744 415 710T452 596V533Q452 503 443 481T422 444T396 421T375 410Q387 406 403 398T433 374T458 333T469 272V178Q469 90 431 45T319 0H15V744ZM215 322V147H236Q250 147 254 154T259
177V292Q259 322 236 322H215ZM215 602V461H230Q253 461 253 491V573Q253 588 249 595T230 602H215Z" />
<glyph unicode="C" glyph-name="C" horiz-adv-x="468" d="M260 190V322H456V183Q456 146 445 111T410 49T348 6T257 -11H224Q112 -11 63 46T13 208V541Q13 587 25 626T62 694T126 739T223 755H256Q359 755 407 705T456 570V451H260V562Q260 576 257 584T240 592Q228
592 224 585T220 562V190Q220 174 224 166T240 157Q253 157 256 166T260 190Z" />
<glyph unicode="D" glyph-name="D" horiz-adv-x="469" d="M15 744H301Q333 744 361 736T410 707T443 655T455 575V178Q455 130 443 97T411 42T363 10T303 0H15V744ZM210 163H229Q243 163 248 172T253 202V549Q253 566 248 575T229 585H210V163Z" />
<glyph unicode="E" glyph-name="E" horiz-adv-x="372" d="M357 744V565H210V476H331V293H210V181H362V0H15V744H357Z" />
<glyph unicode="F" glyph-name="F" horiz-adv-x="364" d="M15 744H353V565H210V476H326V293H210V0H15V744Z" />
<glyph unicode="G" glyph-name="G" horiz-adv-x="481" d="M173 -11Q132 -11 102 4T52 47T23 109T13 183V550Q13 592 24 629T60 694T125 738T225 755H254Q314 755 354 739T417 696T450 637T460 570V479H267V564Q267 578 262 586T243 594Q229 594 225 586T220 564V182Q220
145 249 145Q278 145 278 182V296H235V445H469V0H334Q333 5 331 14T325 34T319 53T314 66Q293 37 261 13T179 -11H173Z" />
<glyph unicode="H" glyph-name="H" horiz-adv-x="473" d="M215 0H15V744H215V490H258V744H458V0H258V285H215V0Z" />
<glyph unicode="I" glyph-name="I" horiz-adv-x="230" d="M215 0H15V744H215V0Z" />
<glyph unicode="J" glyph-name="J" horiz-adv-x="447" d="M193 338V174Q193 155 210 155H211Q227 155 227 174V744H432V167Q432 128 421 96T387 40T327 3T239 -11H185Q137 -11 104 2T50 39T20 93T11 159V338H193Z" />
<glyph unicode="K" glyph-name="K" horiz-adv-x="477" d="M215 0H15V744H215V506L281 744H480L385 420L481 0H273L215 272V0Z" />
<glyph unicode="L" glyph-name="L" horiz-adv-x="353" d="M215 744V185H343V0H15V744H215Z" />
<glyph unicode="M" glyph-name="M" horiz-adv-x="550" d="M15 744H247L278 427L312 744H535V0H368V370L308 0H239L180 370V0H15V744Z" />
<glyph unicode="N" glyph-name="N" horiz-adv-x="474" d="M213 744L290 406V744H458V0H278L185 367V0H15V744H213Z" />
<glyph unicode="O" glyph-name="O" horiz-adv-x="486" d="M473 214Q473 158 458 116T414 46T347 4T261 -11H226Q123 -11 68 47T13 214V523Q13 630 63 692T226 755H260Q315 755 355 739T422 692T460 618T473 523V214ZM267 547Q267 564 262 572T243 581Q220 581
220 547V196Q220 165 243 165Q267 165 267 196V547Z" />
<glyph unicode="P" glyph-name="P" horiz-adv-x="459" d="M213 275V0H14V744H306Q337 744 363 736T408 709T438 661T449 590V432Q449 393 438 364T408 315T363 285T308 275H213ZM213 429H227Q241 429 245 436T250 459V568Q250 582 246 589T227 597H213V429Z" />
<glyph unicode="Q" glyph-name="Q" horiz-adv-x="487" d="M474 214Q474 122 434 68T325 -3L389 -155H177V-7Q98 7 56 63T13 214V523Q13 630 63 692T226 755H260Q316 755 356 739T423 692T461 618T474 523V214ZM267 547Q267 564 262 572T243 581Q220 581 220 547V196Q220
165 243 165Q267 165 267 196V547Z" />
<glyph unicode="R" glyph-name="R" horiz-adv-x="468" d="M215 450H231Q252 450 252 476V575Q252 589 249 595T232 602H215V450ZM215 0H15V744H326Q351 744 373 736T413 711T440 668T451 605V531Q451 501 445 480T428 443T405 419T380 403Q393 398 406 389T429
366T446 335T453 297V58Q453 23 463 5V0H266Q260 8 256 21T252 48V263Q252 275 249 282T231 290H215V0Z" />
<glyph unicode="S" glyph-name="S" horiz-adv-x="467" d="M261 755Q315 755 351 743T409 709T440 658T450 596V519H257V585Q257 610 237 610Q217 610 217 585V563Q217 545 223 534T247 509L342 442Q373 420 395 399T432 353T452 299T459 233V194Q459 149 447 112T410
47T345 5T251 -11H204Q8 -11 8 164V267H204V180Q204 166 208 158T225 149Q237 149 241 157T246 182V209Q246 233 241 247T211 279L116 346Q62 384 38 431T14 541V579Q14 617 25 649T61 705T123 742T214 755H261Z" />
<glyph unicode="T" glyph-name="T" horiz-adv-x="399" d="M389 744V565H299V0H100V565H10V744H389Z" />
<glyph unicode="U" glyph-name="U" horiz-adv-x="485" d="M15 744H221V204Q221 174 243 174Q264 174 264 204V744H470V181Q470 143 457 108T418 46T351 3T258 -13H226Q168 -13 128 2T63 44T27 106T15 181V744Z" />
<glyph unicode="V" glyph-name="V" horiz-adv-x="486" d="M-2 744H211L252 308L293 744H488L381 0H115L-2 744Z" />
<glyph unicode="W" glyph-name="W" horiz-adv-x="690" d="M444 744L475 321L501 744H692L596 0H370L345 365L322 0H94L-2 744H202L227 321L259 744H444Z" />
<glyph unicode="X" glyph-name="X" horiz-adv-x="463" d="M1 744H205L234 532L261 744H451L378 397L466 0H266L230 243L191 0H-3L80 397L1 744Z" />
<glyph unicode="Y" glyph-name="Y" horiz-adv-x="437" d="M323 268V0H124V268L-5 744H193L229 521L262 744H442L323 268Z" />
<glyph unicode="Z" glyph-name="Z" horiz-adv-x="404" d="M387 744V581L228 180H394V0H10V163L164 566H15V744H387Z" />
<glyph unicode="[" glyph-name="bracketleft" horiz-adv-x="229" d="M221 678H166V-3H221V-133H15V808H221V678Z" />
<glyph unicode="\" glyph-name="backslash" horiz-adv-x="258" d="M-5 808H125L272 -131H143L-5 808Z" />
<glyph unicode="]" glyph-name="bracketright" horiz-adv-x="230" d="M8 -3H63V678H8V808H215V-133H8V-3Z" />
<glyph unicode="^" glyph-name="asciicircum" horiz-adv-x="300" d="M298 419H169L149 595L130 419H2L61 744H239L298 419Z" />
<glyph unicode="_" glyph-name="underscore" horiz-adv-x="433" d="M4 -21H429V-141H4V-21Z" />
<glyph unicode="`" glyph-name="grave" horiz-adv-x="342" d="M272 558H125L69 715H221L272 558Z" />
<glyph unicode="a" glyph-name="a" horiz-adv-x="440" d="M223 252Q218 250 212 246T201 235Q196 228 194 221T192 198V138Q192 130 195 124T208 118Q217 118 220 124T223 139V252ZM8 198Q8 245 29 273T88 319Q100 324 118 331T154 345T188 357T210 366Q218 370
220 372T223 385V413Q223 431 207 431H205Q188 431 188 413V367H15V413Q15 484 64 517T195 550H217Q308 550 359 519T411 414V159Q411 149 422 149H436V0H271Q249 0 237 17T225 61Q218 50 207 38T182 16T150 -1T109 -8H106Q82 -8 64 1T33 26T15 62T8 105V198Z"
/>
<glyph unicode="b" glyph-name="b" horiz-adv-x="454" d="M208 744V469Q229 497 258 519T330 542H336Q363 542 382 532T415 503T435 461T442 409V132Q442 105 433 80T409 34T371 1T323 -11H320Q275 -11 247 11T191 70Q188 58 185 36T180 0H13V744H208ZM208 146Q208
137 211 129T225 120Q236 120 240 127T245 145V385Q245 395 242 402T226 409Q214 409 211 401T208 384V146Z" />
<glyph unicode="c" glyph-name="c" horiz-adv-x="419" d="M409 242V142Q409 72 363 30T236 -13H196Q155 -13 121 -3T63 28T25 83T11 163V369Q11 405 20 438T52 496T109 536T195 551H237Q285 551 317 539T370 506T400 456T409 392V320H236V401Q236 421 220 421Q206
421 206 401V144Q206 123 220 123Q236 123 236 144V242H409Z" />
<glyph unicode="d" glyph-name="d" horiz-adv-x="455" d="M442 744V0H250V60Q240 48 228 36T202 13T170 -4T133 -11H128Q102 -11 81 0T44 31T21 77T12 133V408Q12 437 19 462T41 505T74 533T118 544H124Q168 544 197 522T248 475V744H442ZM248 378Q248 390 244
398T229 407Q216 407 213 399T209 380V148Q209 137 212 129T229 121Q240 121 244 129T248 149V378Z" />
<glyph unicode="e" glyph-name="e" horiz-adv-x="431" d="M238 551Q277 551 310 541T368 510T407 453T421 366V249H201V141Q201 126 205 121T219 115Q231 115 234 122T238 141V213H421V164Q421 79 372 33T238 -13H201Q111 -13 61 31T11 171V363Q11 451 58 501T201
551H238ZM201 351H238V406Q238 423 235 430T219 437Q208 437 205 430T201 406V351Z" />
<glyph unicode="f" glyph-name="f" horiz-adv-x="331" d="M322 598H279Q268 598 265 594T261 580V538H322V385H261V0H67V385H6V538H67V641Q67 668 76 687T99 719T132 738T169 744H322V598Z" />
<glyph unicode="g" glyph-name="g" horiz-adv-x="455" d="M248 58Q241 50 231 39T205 17T172 -1T132 -9Q80 -9 46 26T12 126V411Q12 436 19 460T39 502T74 532T122 544H129Q150 544 168 537T201 520T228 497T250 473V538H442V-39Q442 -114 393 -155T252 -196H206Q156
-196 121 -186T64 -159T31 -119T21 -70V-18H211V-44Q211 -64 230 -64Q248 -64 248 -44V58ZM248 382Q248 393 244 400T229 408Q216 408 213 400T210 383V144Q210 133 213 125T229 117Q240 117 244 125T248 144V382Z" />
<glyph unicode="h" glyph-name="h" horiz-adv-x="458" d="M13 744H208V469Q218 483 230 497T258 522T292 539T333 546H341Q371 546 391 535T423 506T440 470T445 436V0H248V375Q248 385 244 393T227 401Q215 401 212 393T208 374V0H13V744Z" />
<glyph unicode="i" glyph-name="i" horiz-adv-x="221" d="M208 0H13V538H208V0ZM208 558H13V715H208V558Z" />
<glyph unicode="j" glyph-name="j" horiz-adv-x="221" d="M208 558H13V715H208V558ZM-3 -24Q5 -24 9 -21T13 -6V538H208V-98Q208 -121 201 -138T182 -166T155 -182T123 -188H-41V-24H-3Z" />
<glyph unicode="k" glyph-name="k" horiz-adv-x="440" d="M253 538H434L363 318L443 0H257L208 206V0H13V744H208V374L253 538Z" />
<glyph unicode="l" glyph-name="l" horiz-adv-x="221" d="M208 0H13V744H208V0Z" />
<glyph unicode="m" glyph-name="m" horiz-adv-x="685" d="M13 538H206V467Q214 479 226 493T253 519T286 538T327 546H335Q357 546 373 539T402 521T422 496T434 469Q444 482 456 495T484 520T519 539T561 546H569Q600 546 620 534T651 504T667 467T672 434V0H475V375Q475
386 472 393T457 400Q448 400 445 394T440 380V0H243V375Q243 386 240 393T225 400Q214 400 211 393T208 375V0H13V538Z" />
<glyph unicode="n" glyph-name="n" horiz-adv-x="458" d="M13 538H206V467Q217 482 230 496T258 521T292 539T333 546H341Q372 546 392 535T424 506T440 469T445 435V0H248V375Q248 385 244 393T227 401Q215 401 212 393T208 374V0H13V538Z" />
<glyph unicode="o" glyph-name="o" horiz-adv-x="455" d="M11 344Q11 449 62 500T211 551H244Q444 551 444 344V195Q444 88 390 38T243 -13H210Q108 -13 60 37T11 194V344ZM207 161Q207 131 227 131Q239 131 243 138T248 161V379Q248 392 244 401T227 410Q214
410 211 401T207 379V161Z" />
<glyph unicode="p" glyph-name="p" horiz-adv-x="454" d="M206 538V465Q240 512 269 529T332 546H337Q391 546 416 506T442 400V127Q442 97 433 72T408 28T371 0T326 -11H323Q289 -11 262 4T208 55V-188H13V538H206ZM208 144Q208 135 211 127T226 118Q238 118
241 126T245 144V387Q245 398 241 405T226 413Q214 413 211 406T208 387V144Z" />
<glyph unicode="q" glyph-name="q" horiz-adv-x="455" d="M442 538V-188H248V59Q223 27 195 8T132 -11H127Q104 -11 84 -1T47 28T22 72T12 128V393Q12 465 44 506T138 547H145Q169 547 188 540T222 522T251 496T276 466Q278 470 281 479T286 499T291 520T293 538H442ZM248
388Q248 398 245 407T227 417Q217 417 214 410T210 392V144Q210 133 213 125T229 117Q240 117 244 126T248 153V388Z" />
<glyph unicode="r" glyph-name="r" horiz-adv-x="414" d="M206 466Q212 476 221 489T244 514T275 534T313 542H325Q365 542 385 518T405 461V267H235V388Q235 406 221 406Q208 406 208 388V0H13V538H206V466Z" />
<glyph unicode="s" glyph-name="s" horiz-adv-x="402" d="M386 429V379H219V421Q219 431 216 436T204 441Q187 441 187 421V403Q187 392 191 386T209 372L298 324Q357 292 376 253T396 164V146Q396 66 349 27T219 -13H172Q134 -13 104 -6T52 18T18 61T6 124V185H178V132Q178
111 195 111H196Q212 111 212 132V152Q212 167 207 175T188 191L104 236Q75 252 57 270T28 307T15 346T11 387V406Q11 478 54 514T181 551H225Q261 551 291 545T342 525T374 487T386 429Z" />
<glyph unicode="t" glyph-name="t" horiz-adv-x="328" d="M135 0Q123 0 111 4T90 17T74 41T67 77V385H7V538H67V717H262V538H318V385H262V174Q262 164 265 160T279 156H318V0H135Z" />
<glyph unicode="u" glyph-name="u" horiz-adv-x="456" d="M442 0H250V72Q228 42 197 18T121 -6H115Q86 -6 67 5T35 33T18 69T13 103V538H210V162Q210 152 214 145T230 137Q241 137 244 144T248 163V538H442V0Z" />
<glyph unicode="v" glyph-name="v" horiz-adv-x="428" d="M-2 538H192L216 235L240 538H430L339 0H89L-2 538Z" />
<glyph unicode="w" glyph-name="w" horiz-adv-x="642" d="M87 0L-2 538H190L212 232L237 538H410L434 232L457 538H644L556 0H346L322 246L299 0H87Z" />
<glyph unicode="x" glyph-name="x" horiz-adv-x="426" d="M2 538H191L215 397L236 538H423L349 294L428 0H237L211 151L183 0H-2L77 289L2 538Z" />
<glyph unicode="y" glyph-name="y" horiz-adv-x="427" d="M-3 538H191L220 266L240 538H430L297 -105Q291 -131 281 -147T258 -172T232 -184T207 -188H40V-33H101Q111 -33 114 -30T118 -16V-12Q118 -6 117 5T110 36L-3 538Z" />
<glyph unicode="z" glyph-name="z" horiz-adv-x="353" d="M340 538V401L223 157H344V0H8V136L131 390H13V538H340Z" />
<glyph unicode="{" glyph-name="braceleft" horiz-adv-x="246" d="M205 252Q205 232 200 204T190 147T179 90T174 44Q174 23 184 7T220 -9H238V-131H155Q96 -131 63 -104T29 -17Q29 1 34 33T45 103T56 176T61 236Q61 281 20 281H8V401H28Q48 401 54 412T61 442Q61
470 56 502T45 568T34 632T29 688Q29 746 61 777T155 808H238V685H210Q174 685 174 653Q174 637 179 609T189 550T200 491T205 444Q205 402 189 377T135 341Q173 330 189 309T205 252Z" />
<glyph unicode="|" glyph-name="bar" horiz-adv-x="220" d="M171 -131H48V808H171V-131Z" />
<glyph unicode="}" glyph-name="braceright" horiz-adv-x="246" d="M42 444Q42 462 46 490T57 550T67 609T72 653Q72 685 36 685H8V808H90Q153 808 185 777T218 688Q218 663 213 632T202 568T191 503T186 442Q186 423 192 412T219 401H238V281H226Q186 281 186
236Q186 212 191 177T202 104T213 34T218 -17Q218 -76 184 -103T90 -131H8V-9H27Q53 -9 62 7T72 44Q72 62 68 89T57 146T47 204T42 252Q42 287 58 308T112 341Q74 352 58 377T42 444Z" />
<glyph unicode="~" glyph-name="asciitilde" horiz-adv-x="326" d="M156 331Q145 341 141 345T131 349Q124 349 124 339V295H6V399Q6 450 28 480T90 511Q115 511 132 503T169 477Q178 469 183 465T194 460Q202 460 202 473V515H320V392Q320 348 296 323T237 298Q208
298 192 306T156 331Z" />
<glyph unicode="&#xa1;" glyph-name="exclamdown" horiz-adv-x="223" d="M25 538H191V358H25V538ZM2 -206L54 332H162L213 -206H2Z" />
<glyph unicode="&#xa2;" glyph-name="cent" horiz-adv-x="421" d="M412 141Q412 70 366 29T242 -13H237V-76H204V-13H190Q151 -13 118 -3T62 28T25 82T11 161V373Q11 409 21 441T52 498T108 537T190 551H204V616H237V551H244Q290 551 322 540T374 508T403 459T412
398V320H257V392Q257 422 237 428V119Q248 123 252 132T257 156V241H412V141ZM185 392V156Q185 124 204 119V428Q185 423 185 392Z" />
<glyph unicode="&#xa3;" glyph-name="sterling" horiz-adv-x="506" d="M269 276Q269 233 257 203T229 155H320V251H493V0H13V152H36Q46 153 56 157T74 170T87 192T93 226V233Q93 244 93 256T91 281H13V430H76Q73 460 71 487T69 538V568Q69 609 79 643T114 702T178
741T276 755H294Q349 755 385 741T442 704T472 651T481 586V457H306V575Q306 602 286 602Q265 602 265 575V569Q265 547 265 511T267 430H402V281H269V276V276Z" />
<glyph unicode="&#xa5;" glyph-name="yen" horiz-adv-x="432" d="M321 0H122V188H27V285H122V303H27V398H105L-5 744H191L227 531L262 744H437L336 398H417V303H321V285H417V188H321V0Z" />
<glyph unicode="&#xa6;" glyph-name="brokenbar" horiz-adv-x="220" d="M171 -131H48V347H171V-131ZM171 379H48V808H171V379Z" />
<glyph unicode="&#xa7;" glyph-name="section" horiz-adv-x="491" d="M485 271Q485 219 460 191T395 149Q409 138 419 126T436 98T446 62T450 15V-13Q450 -102 400 -149T253 -196H213Q118 -196 76 -156T33 -26V47H217V-33Q217 -56 236 -56Q255 -56 255 -32V3Q255
20 251 31T231 53L108 125Q78 142 59 158T28 191T11 230T6 281V300Q6 350 32 378T96 420Q81 436 71 451T54 483T44 520T40 566V589Q40 625 51 655T85 707T143 742T227 755H278Q316 755 348 747T404 721T441 673T454 601V522H270V590Q270 604 267 609T252 615Q236
615 236 590V552Q236 535 240 527T259 510Q259 510 269 504T293 489T325 469T357 449T382 434T393 427Q415 413 432 400T461 371T479 336T485 291V271ZM179 349Q173 343 173 332V329Q173 317 178 309T201 289L306 221Q311 223 311 236V240Q311 253 306 260T285
278L179 349Z" />
<glyph unicode="&#xa8;" glyph-name="dieresis" horiz-adv-x="342" d="M160 558H22V691H160V558ZM320 558H182V691H320V558Z" />
<glyph unicode="&#xa9;" glyph-name="copyright" horiz-adv-x="601" d="M297 -11Q232 -11 180 5T90 54T33 141T13 269V477Q13 546 33 598T91 685T180 737T298 755H310Q372 755 423 739T511 688T568 602T588 477V269Q588 195 566 142T505 55T415 5T307 -11H297ZM299
64H307Q499 64 499 290V454Q499 567 453 623T309 680H299Q204 680 154 627T104 454V290Q104 175 152 120T299 64ZM306 226Q314 226 316 232T319 250V339H460V244Q460 218 452 194T425 151T380 121T315 110H300Q220 110 181 150T142 262V487Q142 553 180 594T296
636H316Q386 636 423 602T460 507V430H319V502Q319 512 317 517T306 522Q294 522 294 502V250Q294 239 296 233T306 226Z" />
<glyph unicode="&#xaa;" glyph-name="ordfeminine" horiz-adv-x="273" d="M253 527Q253 521 260 521H267V435H166Q154 435 147 444T139 471Q131 459 114 445T69 430H67Q38 430 23 449T7 496V543Q7 575 20 590T60 616Q68 619 78 623T99 631T119 637T131 642Q139
645 139 653V667Q139 679 128 679Q118 679 118 667V644H12V671Q12 713 43 731T121 750H134Q193 750 223 732T253 671V527ZM139 576Q129 572 125 568Q119 562 119 546V513Q119 503 129 503Q134 503 136 506T139 514V576Z" />
<glyph unicode="&#xab;" glyph-name="guillemotleft" horiz-adv-x="360" d="M200 110H63L9 250V323L63 460H201L143 287L200 110ZM353 110H218L163 287L218 460H354L307 287L353 110Z" />
<glyph unicode="&#xae;" glyph-name="registered" horiz-adv-x="330" d="M160 388Q91 388 50 425T9 540V599Q9 674 49 712T160 750H173Q242 750 281 713T321 602V540Q321 502 309 474T277 426T230 398T171 388H160ZM160 430H171Q270 430 270 541V601Q270 654 247
681T173 708H160Q108 709 84 684T60 598V541Q60 484 83 457T160 430ZM159 462H90V682H193Q242 682 242 641V620Q242 589 219 580Q243 572 243 549V481Q243 471 247 466V462H180Q174 470 174 478V536Q174 548 165 548H159V462ZM159 597H165Q174 597 174 608V628Q174
638 165 638H159V597Z" />
<glyph unicode="&#xaf;" glyph-name="macron" horiz-adv-x="342" d="M45 677H296V564H45V677Z" />
<glyph unicode="&#xb0;" glyph-name="degree" horiz-adv-x="226" d="M7 647Q7 690 36 719T114 749Q160 749 189 720T219 647Q219 605 190 576T114 546Q66 546 37 575T7 647ZM76 647Q76 631 85 621T112 610Q129 610 139 620T149 647Q149 664 139 674T112 685Q95
685 86 675T76 647Z" />
<glyph unicode="&#xb4;" glyph-name="acute" horiz-adv-x="342" d="M121 715H273L216 558H69L121 715Z" />
<glyph unicode="&#xb6;" glyph-name="paragraph" horiz-adv-x="476" d="M151 744H468V617H426V0H308V617H276V0H156V344H150Q126 344 101 352T56 377T23 423T10 494V589Q10 670 50 707T151 744Z" />
<glyph unicode="&#xb7;" glyph-name="periodcentered" horiz-adv-x="192" d="M179 227H13V406H179V227Z" />
<glyph unicode="&#xb8;" glyph-name="cedilla" horiz-adv-x="342" d="M163 -202H72V-126H138Q158 -126 158 -112V-111Q158 -98 138 -98H87V0H164V-33H172Q220 -33 245 -54T270 -112V-115Q270 -156 242 -179T163 -202Z" />
<glyph unicode="&#xba;" glyph-name="ordmasculine" horiz-adv-x="275" d="M129 430Q75 430 42 458T9 542V638Q9 693 42 721T129 750H149Q203 750 234 723T266 638V542Q266 485 235 458T149 430H129ZM129 528Q129 522 130 517T138 511Q146 511 147 516T149 528V652Q149
657 148 662T138 668Q131 668 130 663T129 652V528Z" />
<glyph unicode="&#xbb;" glyph-name="guillemotright" horiz-adv-x="360" d="M217 283L160 460H297L351 321V248L297 110H160L217 283ZM55 283L7 460H143L198 283L143 110H6L55 283Z" />
<glyph unicode="&#xbc;" glyph-name="onequarter" horiz-adv-x="465" d="M5 616V705Q34 705 46 715T60 744H169V401H48V616H5ZM445 744L117 0H9L335 744H445ZM219 130Q227 149 237 176T259 233T282 292T301 344H430V144H459V46H430V0H315V46H219V130ZM315 144V209L291
144H315Z" />
<glyph unicode="&#xbd;" glyph-name="onehalf" horiz-adv-x="517" d="M445 744L117 0H9L335 744H445ZM5 616V705Q34 705 46 715T60 744H169V401H48V616H5ZM250 0V46Q250 67 254 81T268 110T295 143T340 188Q355 201 363 209T376 224T382 234T384 244V258Q384 270
376 270Q365 270 365 258V222H254V251Q254 270 259 287T278 318T312 340T367 349H385Q452 349 479 324T506 256V246Q506 228 501 214T486 188T459 163T420 135Q397 120 385 112T368 99T361 92T360 86H412V123H510V0H250Z" />
<glyph unicode="&#xbe;" glyph-name="threequarters" horiz-adv-x="533" d="M512 744L184 0H76L402 744H512ZM7 632V665Q7 700 33 725T119 750H134Q190 750 222 731T254 667V655Q254 629 240 615T215 597Q222 595 230 590T245 577T258 557T263 526V499Q263 450
233 422T137 393H120Q85 393 63 400T28 420T10 450T5 485V527H120V490Q120 480 129 480Q137 480 137 490V528Q137 539 128 539H76V622H125Q135 622 135 632V664Q135 673 126 673Q118 673 118 664V632H7ZM288 130Q296 149 306 176T328 233T351 292T370 344H499V144H528V46H499V0H384V46H288V130ZM384
144V209L360 144H384Z" />
<glyph unicode="&#xbf;" glyph-name="questiondown" horiz-adv-x="425" d="M301 332V257Q301 239 300 226T296 200T286 176T270 149L214 63Q204 48 202 36T199 6V-47Q199 -59 202 -66T217 -73Q229 -73 232 -66T235 -46V62H411V-50Q411 -80 404 -109T378 -162T323
-200T233 -215H189Q140 -215 106 -203T49 -169T17 -118T6 -54V-4Q6 20 8 39T15 75T30 107T53 140L132 237Q147 256 152 268T157 303V332H301ZM146 538H313V358H146V538Z" />
<glyph unicode="&#xc0;" glyph-name="Agrave" horiz-adv-x="450" d="M251 92H178L169 0H-3L94 744H345L453 0H260L251 92ZM195 259H234L214 455L195 259ZM301 764H150L97 895H253L301 764Z" />
<glyph unicode="&#xc1;" glyph-name="Aacute" horiz-adv-x="450" d="M251 92H178L169 0H-3L94 744H345L453 0H260L251 92ZM195 259H234L214 455L195 259ZM194 895H349L294 764H143L194 895Z" />
<glyph unicode="&#xc2;" glyph-name="Acircumflex" horiz-adv-x="450" d="M251 92H178L169 0H-3L94 744H345L453 0H260L251 92ZM195 259H234L214 455L195 259ZM372 764H242L216 810L192 764H63L139 895H295L372 764Z" />
<glyph unicode="&#xc3;" glyph-name="Atilde" horiz-adv-x="450" d="M251 92H178L169 0H-3L94 744H345L453 0H260L251 92ZM195 259H234L214 455L195 259ZM219 783Q205 788 197 791T184 794Q176 794 176 782V762H78V831Q78 862 94 882T143 902H146Q164 902 180
897T219 883Q233 878 241 875T254 872Q262 872 262 884V905H360V840Q360 810 345 788T296 766H291Q275 766 259 770T219 783Z" />
<glyph unicode="&#xc4;" glyph-name="Adieresis" horiz-adv-x="450" d="M251 92H178L169 0H-3L94 744H345L453 0H260L251 92ZM195 259H234L214 455L195 259ZM367 764H229V895H367V764ZM207 764H69V895H207V764Z" />
<glyph unicode="&#xc5;" glyph-name="Aring" horiz-adv-x="450" d="M251 92H178L169 0H-3L94 744H345L453 0H260L251 92ZM195 259H234L214 455L195 259ZM181 847Q181 830 191 820T218 811Q234 810 244 820T255 847Q255 863 245 873T218 883Q202 883 192 873T181
847ZM218 935Q258 935 284 911T311 848Q311 808 285 784T218 759Q178 759 152 783T125 848Q125 887 151 911T218 935Z" />
<glyph unicode="&#xc6;" glyph-name="AE" horiz-adv-x="593" d="M261 0V102H199L185 0H-6L134 744H578V565H457V476H552V293H457V181H583V0H261ZM261 269V528L223 269H261Z" />
<glyph unicode="&#xc7;" glyph-name="Ccedilla" horiz-adv-x="468" d="M260 190V322H456V183Q456 146 445 111T410 49T348 6T257 -11H224Q112 -11 63 46T13 208V541Q13 587 25 626T62 694T126 739T223 755H256Q359 755 407 705T456 570V451H260V562Q260 576 257
584T240 592Q228 592 224 585T220 562V190Q220 174 224 166T240 157Q253 157 256 166T260 190ZM243 -202H152V-126H218Q238 -126 238 -112V-111Q238 -98 218 -98H167V0H244V-33H252Q300 -33 325 -54T350 -112V-115Q350 -156 322 -179T243 -202Z" />
<glyph unicode="&#xc8;" glyph-name="Egrave" horiz-adv-x="372" d="M357 744V565H210V476H331V293H210V181H362V0H15V744H357ZM528 764H377L324 895H480L528 764Z" />
<glyph unicode="&#xc9;" glyph-name="Eacute" horiz-adv-x="372" d="M357 744V565H210V476H331V293H210V181H362V0H15V744H357ZM164 895H319L264 764H113L164 895Z" />
<glyph unicode="&#xca;" glyph-name="Ecircumflex" horiz-adv-x="372" d="M357 744V565H210V476H331V293H210V181H362V0H15V744H357ZM343 764H213L187 810L163 764H34L110 895H266L343 764Z" />
<glyph unicode="&#xcb;" glyph-name="Edieresis" horiz-adv-x="372" d="M357 744V565H210V476H331V293H210V181H362V0H15V744H357ZM338 764H200V895H338V764ZM178 764H40V895H178V764Z" />
<glyph unicode="&#xcc;" glyph-name="Igrave" horiz-adv-x="230" d="M215 0H15V744H215V0ZM448 764H297L244 895H400L448 764Z" />
<glyph unicode="&#xcd;" glyph-name="Iacute" horiz-adv-x="230" d="M215 0H15V744H215V0ZM346 895H501L446 764H295L346 895Z" />
<glyph unicode="&#xce;" glyph-name="Icircumflex" horiz-adv-x="230" d="M215 0H15V744H215V0ZM525 764H395L369 810L345 764H216L292 895H448L525 764Z" />
<glyph unicode="&#xcf;" glyph-name="Idieresis" horiz-adv-x="230" d="M215 0H15V744H215V0ZM520 764H382V895H520V764ZM360 764H222V895H360V764Z" />
<glyph unicode="&#xd0;" glyph-name="Eth" horiz-adv-x="478" d="M25 744H311Q343 744 371 736T420 707T453 655T465 575V178Q465 130 453 97T421 42T373 10T313 0H25V302H3V472H25V744ZM220 163H239Q253 163 258 172T263 202V549Q263 566 258 575T239 585H220V472H253V302H220V163Z"
/>
<glyph unicode="&#xd1;" glyph-name="Ntilde" horiz-adv-x="474" d="M213 744L290 406V744H458V0H278L185 367V0H15V744H213ZM247 783Q233 788 225 791T212 794Q204 794 204 782V762H106V831Q106 862 122 882T171 902H174Q192 902 208 897T247 883Q261 878 269
875T282 872Q290 872 290 884V905H388V840Q388 810 373 788T324 766H319Q303 766 287 770T247 783Z" />
<glyph unicode="&#xd2;" glyph-name="Ograve" horiz-adv-x="486" d="M473 214Q473 158 458 116T414 46T347 4T261 -11H226Q123 -11 68 47T13 214V523Q13 630 63 692T226 755H260Q315 755 355 739T422 692T460 618T473 523V214ZM267 547Q267 564 262 572T243 581Q220
581 220 547V196Q220 165 243 165Q267 165 267 196V547ZM320 764H169L116 895H272L320 764Z" />
<glyph unicode="&#xd3;" glyph-name="Oacute" horiz-adv-x="486" d="M473 214Q473 158 458 116T414 46T347 4T261 -11H226Q123 -11 68 47T13 214V523Q13 630 63 692T226 755H260Q315 755 355 739T422 692T460 618T473 523V214ZM267 547Q267 564 262 572T243 581Q220
581 220 547V196Q220 165 243 165Q267 165 267 196V547ZM219 895H374L319 764H168L219 895Z" />
<glyph unicode="&#xd4;" glyph-name="Ocircumflex" horiz-adv-x="486" d="M473 214Q473 158 458 116T414 46T347 4T261 -11H226Q123 -11 68 47T13 214V523Q13 630 63 692T226 755H260Q315 755 355 739T422 692T460 618T473 523V214ZM267 547Q267 564 262 572T243
581Q220 581 220 547V196Q220 165 243 165Q267 165 267 196V547ZM398 764H268L242 810L218 764H89L165 895H321L398 764Z" />
<glyph unicode="&#xd5;" glyph-name="Otilde" horiz-adv-x="486" d="M473 214Q473 158 458 116T414 46T347 4T261 -11H226Q123 -11 68 47T13 214V523Q13 630 63 692T226 755H260Q315 755 355 739T422 692T460 618T473 523V214ZM267 547Q267 564 262 572T243 581Q220
581 220 547V196Q220 165 243 165Q267 165 267 196V547ZM243 789Q229 794 221 797T208 800Q200 800 200 788V768H102V837Q102 868 118 888T167 908H170Q188 908 204 903T243 889Q257 884 265 881T278 878Q286 878 286 890V911H384V846Q384 816 369 794T320 772H315Q299
772 283 776T243 789Z" />
<glyph unicode="&#xd6;" glyph-name="Odieresis" horiz-adv-x="486" d="M473 214Q473 158 458 116T414 46T347 4T261 -11H226Q123 -11 68 47T13 214V523Q13 630 63 692T226 755H260Q315 755 355 739T422 692T460 618T473 523V214ZM267 547Q267 564 262 572T243
581Q220 581 220 547V196Q220 165 243 165Q267 165 267 196V547ZM393 764H255V895H393V764ZM233 764H95V895H233V764Z" />
<glyph unicode="&#xd7;" glyph-name="multiply" horiz-adv-x="326" d="M163 225L85 147L8 223L86 302L8 382L85 459L163 380L241 459L318 382L239 302L318 223L241 147L163 225Z" />
<glyph unicode="&#xd8;" glyph-name="Oslash" horiz-adv-x="480" d="M467 214Q467 158 452 116T408 46T341 4T254 -11H226Q188 -11 157 -2T104 24L91 0H-1L43 87Q29 112 21 143T13 214V523Q13 630 63 692T226 755H254Q292 755 321 747T372 723L383 744H476L435
663Q450 637 458 603T467 524V214ZM240 163Q266 163 266 196V360L215 237V196Q215 163 240 163ZM240 583Q226 583 221 575T215 547V400L266 523V547Q266 583 240 583Z" />
<glyph unicode="&#xd9;" glyph-name="Ugrave" horiz-adv-x="485" d="M15 744H221V204Q221 174 243 174Q264 174 264 204V744H470V181Q470 143 457 108T418 46T351 3T258 -13H226Q168 -13 128 2T63 44T27 106T15 181V744ZM322 764H171L118 895H274L322 764Z" />
<glyph unicode="&#xda;" glyph-name="Uacute" horiz-adv-x="485" d="M15 744H221V204Q221 174 243 174Q264 174 264 204V744H470V181Q470 143 457 108T418 46T351 3T258 -13H226Q168 -13 128 2T63 44T27 106T15 181V744ZM217 895H372L317 764H166L217 895Z" />
<glyph unicode="&#xdb;" glyph-name="Ucircumflex" horiz-adv-x="485" d="M15 744H221V204Q221 174 243 174Q264 174 264 204V744H470V181Q470 143 457 108T418 46T351 3T258 -13H226Q168 -13 128 2T63 44T27 106T15 181V744ZM396 764H266L240 810L216 764H87L163
895H319L396 764Z" />
<glyph unicode="&#xdc;" glyph-name="Udieresis" horiz-adv-x="485" d="M15 744H221V204Q221 174 243 174Q264 174 264 204V744H470V181Q470 143 457 108T418 46T351 3T258 -13H226Q168 -13 128 2T63 44T27 106T15 181V744ZM391 764H253V895H391V764ZM231 764H93V895H231V764Z"
/>
<glyph unicode="&#xdd;" glyph-name="Yacute" horiz-adv-x="437" d="M323 268V0H124V268L-5 744H193L229 521L262 744H442L323 268ZM202 895H357L302 764H151L202 895Z" />
<glyph unicode="&#xde;" glyph-name="Thorn" horiz-adv-x="457" d="M215 171V0H15V744H215V611H300Q365 611 406 576T447 459V325Q447 287 436 258T406 210T360 181T302 171H215ZM215 320H228Q241 320 246 326T251 350V441Q251 455 247 462T228 469H215V320Z" />
<glyph unicode="&#xdf;" glyph-name="germandbls" horiz-adv-x="460" d="M366 444Q382 439 397 430T425 405T444 370T452 326V138Q452 75 417 38T324 0H223V147H234Q247 147 247 163V312Q247 320 245 324T232 329H223V475H232Q238 475 242 478T247 490V582Q247
608 229 608H225Q208 608 208 582V0H13V578Q13 614 23 646T56 702T115 740T201 754H251Q300 754 335 742T393 710T426 663T437 607V563Q437 538 430 519T413 484T390 459T366 444Z" />
<glyph unicode="&#xe0;" glyph-name="agrave" horiz-adv-x="440" d="M223 252Q218 250 212 246T201 235Q196 228 194 221T192 198V138Q192 130 195 124T208 118Q217 118 220 124T223 139V252ZM8 198Q8 245 29 273T88 319Q100 324 118 331T154 345T188 357T210
366Q218 370 220 372T223 385V413Q223 431 207 431H205Q188 431 188 413V367H15V413Q15 484 64 517T195 550H217Q308 550 359 519T411 414V159Q411 149 422 149H436V0H271Q249 0 237 17T225 61Q218 50 207 38T182 16T150 -1T109 -8H106Q82 -8 64 1T33 26T15 62T8
105V198ZM282 558H135L79 715H231L282 558Z" />
<glyph unicode="&#xe1;" glyph-name="aacute" horiz-adv-x="440" d="M223 252Q218 250 212 246T201 235Q196 228 194 221T192 198V138Q192 130 195 124T208 118Q217 118 220 124T223 139V252ZM8 198Q8 245 29 273T88 319Q100 324 118 331T154 345T188 357T210
366Q218 370 220 372T223 385V413Q223 431 207 431H205Q188 431 188 413V367H15V413Q15 484 64 517T195 550H217Q308 550 359 519T411 414V159Q411 149 422 149H436V0H271Q249 0 237 17T225 61Q218 50 207 38T182 16T150 -1T109 -8H106Q82 -8 64 1T33 26T15 62T8
105V198ZM187 715H339L282 558H135L187 715Z" />
<glyph unicode="&#xe2;" glyph-name="acircumflex" horiz-adv-x="440" d="M223 252Q218 250 212 246T201 235Q196 228 194 221T192 198V138Q192 130 195 124T208 118Q217 118 220 124T223 139V252ZM8 198Q8 245 29 273T88 319Q100 324 118 331T154 345T188 357T210
366Q218 370 220 372T223 385V413Q223 431 207 431H205Q188 431 188 413V367H15V413Q15 484 64 517T195 550H217Q308 550 359 519T411 414V159Q411 149 422 149H436V0H271Q249 0 237 17T225 61Q218 50 207 38T182 16T150 -1T109 -8H106Q82 -8 64 1T33 26T15 62T8
105V198ZM361 558H232L207 625L183 558H56L130 715H286L361 558Z" />
<glyph unicode="&#xe3;" glyph-name="atilde" horiz-adv-x="440" d="M223 252Q218 250 212 246T201 235Q196 228 194 221T192 198V138Q192 130 195 124T208 118Q217 118 220 124T223 139V252ZM8 198Q8 245 29 273T88 319Q100 324 118 331T154 345T188 357T210
366Q218 370 220 372T223 385V413Q223 431 207 431H205Q188 431 188 413V367H15V413Q15 484 64 517T195 550H217Q308 550 359 519T411 414V159Q411 149 422 149H436V0H271Q249 0 237 17T225 61Q218 50 207 38T182 16T150 -1T109 -8H106Q82 -8 64 1T33 26T15 62T8
105V198ZM350 714V636Q350 606 334 586T281 565H277Q263 565 247 569T210 585Q199 591 191 595T178 600Q171 600 171 588V562H70V640Q70 670 87 690T140 711H143Q157 711 171 707T209 692Q220 687 229 682T243 676Q250 676 250 688V714H350Z" />
<glyph unicode="&#xe4;" glyph-name="adieresis" horiz-adv-x="440" d="M223 252Q218 250 212 246T201 235Q196 228 194 221T192 198V138Q192 130 195 124T208 118Q217 118 220 124T223 139V252ZM8 198Q8 245 29 273T88 319Q100 324 118 331T154 345T188 357T210
366Q218 370 220 372T223 385V413Q223 431 207 431H205Q188 431 188 413V367H15V413Q15 484 64 517T195 550H217Q308 550 359 519T411 414V159Q411 149 422 149H436V0H271Q249 0 237 17T225 61Q218 50 207 38T182 16T150 -1T109 -8H106Q82 -8 64 1T33 26T15 62T8
105V198ZM197 564H59V697H197V564ZM357 564H219V697H357V564Z" />
<glyph unicode="&#xe5;" glyph-name="aring" horiz-adv-x="440" d="M223 252Q218 250 212 246T201 235Q196 228 194 221T192 198V138Q192 130 195 124T208 118Q217 118 220 124T223 139V252ZM8 198Q8 245 29 273T88 319Q100 324 118 331T154 345T188 357T210 366Q218
370 220 372T223 385V413Q223 431 207 431H205Q188 431 188 413V367H15V413Q15 484 64 517T195 550H217Q308 550 359 519T411 414V159Q411 149 422 149H436V0H271Q249 0 237 17T225 61Q218 50 207 38T182 16T150 -1T109 -8H106Q82 -8 64 1T33 26T15 62T8 105V198ZM208
614Q224 613 234 623T245 650Q245 666 235 676T208 686Q192 686 182 676T171 650Q171 633 181 623T208 614ZM208 562Q168 562 142 586T115 651Q115 690 141 714T208 738Q248 738 274 714T301 651Q301 611 275 587T208 562Z" />
<glyph unicode="&#xe6;" glyph-name="ae" horiz-adv-x="644" d="M247 67Q238 55 225 42T196 18T159 0T113 -8H110Q84 -8 65 1T34 27T15 63T8 106V189Q8 236 29 264T88 310Q100 316 118 323T154 336T188 348T210 357Q218 361 220 363T223 376V413Q223 431 207 431H205Q188
431 188 413V358H15V413Q15 484 64 517T195 550H211Q263 550 290 539T326 519Q335 527 359 538T429 550H443Q484 550 519 540T579 509T619 452T633 365V249H414V141Q414 126 418 121T432 115Q444 115 447 122T451 141V213H633V164Q633 81 585 34T451 -13H413Q374
-13 346 -6T298 14T266 40T247 67ZM223 245Q218 243 212 239T201 228Q196 221 194 214T192 191V138Q192 130 195 124T208 118Q217 118 220 124T223 139V245ZM414 351H451V406Q451 423 448 430T432 437Q421 437 418 430T414 406V351Z" />
<glyph unicode="&#xe7;" glyph-name="ccedilla" horiz-adv-x="419" d="M409 242V142Q409 72 363 30T236 -13H196Q155 -13 121 -3T63 28T25 83T11 163V369Q11 405 20 438T52 496T109 536T195 551H237Q285 551 317 539T370 506T400 456T409 392V320H236V401Q236
421 220 421Q206 421 206 401V144Q206 123 220 123Q236 123 236 144V242H409ZM219 -202H128V-126H194Q214 -126 214 -112V-111Q214 -98 194 -98H143V0H220V-33H228Q276 -33 301 -54T326 -112V-115Q326 -156 298 -179T219 -202Z" />
<glyph unicode="&#xe8;" glyph-name="egrave" horiz-adv-x="431" d="M238 551Q277 551 310 541T368 510T407 453T421 366V249H201V141Q201 126 205 121T219 115Q231 115 234 122T238 141V213H421V164Q421 79 372 33T238 -13H201Q111 -13 61 31T11 171V363Q11 451
58 501T201 551H238ZM201 351H238V406Q238 423 235 430T219 437Q208 437 205 430T201 406V351ZM291 558H144L88 715H240L291 558Z" />
<glyph unicode="&#xe9;" glyph-name="eacute" horiz-adv-x="431" d="M238 551Q277 551 310 541T368 510T407 453T421 366V249H201V141Q201 126 205 121T219 115Q231 115 234 122T238 141V213H421V164Q421 79 372 33T238 -13H201Q111 -13 61 31T11 171V363Q11 451
58 501T201 551H238ZM201 351H238V406Q238 423 235 430T219 437Q208 437 205 430T201 406V351ZM196 715H348L291 558H144L196 715Z" />
<glyph unicode="&#xea;" glyph-name="ecircumflex" horiz-adv-x="431" d="M238 551Q277 551 310 541T368 510T407 453T421 366V249H201V141Q201 126 205 121T219 115Q231 115 234 122T238 141V213H421V164Q421 79 372 33T238 -13H201Q111 -13 61 31T11 171V363Q11
451 58 501T201 551H238ZM201 351H238V406Q238 423 235 430T219 437Q208 437 205 430T201 406V351ZM369 558H240L215 625L191 558H64L138 715H294L369 558Z" />
<glyph unicode="&#xeb;" glyph-name="edieresis" horiz-adv-x="431" d="M238 551Q277 551 310 541T368 510T407 453T421 366V249H201V141Q201 126 205 121T219 115Q231 115 234 122T238 141V213H421V164Q421 79 372 33T238 -13H201Q111 -13 61 31T11 171V363Q11
451 58 501T201 551H238ZM201 351H238V406Q238 423 235 430T219 437Q208 437 205 430T201 406V351ZM206 565H68V698H206V565ZM366 565H228V698H366V565Z" />
<glyph unicode="&#xec;" glyph-name="igrave" horiz-adv-x="221" d="M208 0H13V538H208V0ZM443 558H296L240 715H392L443 558Z" />
<glyph unicode="&#xed;" glyph-name="iacute" horiz-adv-x="221" d="M208 0H13V538H208V0ZM347 715H499L442 558H295L347 715Z" />
<glyph unicode="&#xee;" glyph-name="icircumflex" horiz-adv-x="221" d="M240 558H129L109 630L90 558H-19L32 715H188L240 558ZM208 0H13V538H208V0Z" />
<glyph unicode="&#xef;" glyph-name="idieresis" horiz-adv-x="221" d="M103 558H-17V693H103V558ZM238 558H118V693H238V558ZM208 0H13V538H208V0Z" />
<glyph unicode="&#xf0;" glyph-name="eth" horiz-adv-x="448" d="M76 639L138 659L86 744H280L299 712L383 740V644L349 633L387 574Q402 549 412 528T427 484T435 438T437 386V181Q437 139 424 104T384 42T320 2T234 -13H212Q106 -13 59 36T11 171V377Q11 411
18 441T39 493T74 527T123 540H131Q169 540 197 522T243 489L187 579L76 543V639ZM245 379Q245 390 242 400T224 410Q210 410 208 400T205 379V162Q205 148 208 140T224 132Q236 132 240 140T245 162V379Z" />
<glyph unicode="&#xf1;" glyph-name="ntilde" horiz-adv-x="458" d="M13 538H206V467Q217 482 230 496T258 521T292 539T333 546H341Q372 546 392 535T424 506T440 469T445 435V0H248V375Q248 385 244 393T227 401Q215 401 212 393T208 374V0H13V538ZM367 708V630Q367
600 351 580T298 559H294Q280 559 264 563T227 579Q216 585 208 589T195 594Q188 594 188 582V556H87V634Q87 664 104 684T157 705H160Q174 705 188 701T226 686Q237 681 246 676T260 670Q267 670 267 682V708H367Z" />
<glyph unicode="&#xf2;" glyph-name="ograve" horiz-adv-x="455" d="M11 344Q11 449 62 500T211 551H244Q444 551 444 344V195Q444 88 390 38T243 -13H210Q108 -13 60 37T11 194V344ZM207 161Q207 131 227 131Q239 131 243 138T248 161V379Q248 392 244 401T227
410Q214 410 211 401T207 379V161ZM303 565H156L100 722H252L303 565Z" />
<glyph unicode="&#xf3;" glyph-name="oacute" horiz-adv-x="455" d="M11 344Q11 449 62 500T211 551H244Q444 551 444 344V195Q444 88 390 38T243 -13H210Q108 -13 60 37T11 194V344ZM207 161Q207 131 227 131Q239 131 243 138T248 161V379Q248 392 244 401T227
410Q214 410 211 401T207 379V161ZM207 715H359L302 558H155L207 715Z" />
<glyph unicode="&#xf4;" glyph-name="ocircumflex" horiz-adv-x="455" d="M11 344Q11 449 62 500T211 551H244Q444 551 444 344V195Q444 88 390 38T243 -13H210Q108 -13 60 37T11 194V344ZM207 161Q207 131 227 131Q239 131 243 138T248 161V379Q248 392 244 401T227
410Q214 410 211 401T207 379V161ZM380 558H251L226 625L202 558H75L149 715H305L380 558Z" />
<glyph unicode="&#xf5;" glyph-name="otilde" horiz-adv-x="455" d="M11 344Q11 449 62 500T211 551H244Q444 551 444 344V195Q444 88 390 38T243 -13H210Q108 -13 60 37T11 194V344ZM207 161Q207 131 227 131Q239 131 243 138T248 161V379Q248 392 244 401T227
410Q214 410 211 401T207 379V161ZM366 715V637Q366 607 350 587T297 566H293Q279 566 263 570T226 586Q215 592 207 596T194 601Q187 601 187 589V563H86V641Q86 671 103 691T156 712H159Q173 712 187 708T225 693Q236 688 245 683T259 677Q266 677 266 689V715H366Z"
/>
<glyph unicode="&#xf6;" glyph-name="odieresis" horiz-adv-x="455" d="M11 344Q11 449 62 500T211 551H244Q444 551 444 344V195Q444 88 390 38T243 -13H210Q108 -13 60 37T11 194V344ZM207 161Q207 131 227 131Q239 131 243 138T248 161V379Q248 392 244 401T227
410Q214 410 211 401T207 379V161ZM216 565H78V698H216V565ZM376 565H238V698H376V565Z" />
<glyph unicode="&#xf7;" glyph-name="divide" horiz-adv-x="350" d="M338 356V250H12V356H338ZM234 374H116V491H234V374ZM234 115H116V231H234V115Z" />
<glyph unicode="&#xf8;" glyph-name="oslash" horiz-adv-x="444" d="M11 192V345Q11 453 64 502T217 551H226Q262 551 290 543T341 521L354 538H442L394 475Q412 450 422 418T432 345V192Q432 85 378 36T223 -13H218Q178 -13 149 -6T97 15L85 0H-1L43 62Q11 112
11 192ZM221 130Q234 130 238 138T243 161V255L200 177V161Q200 146 204 138T221 130ZM243 379Q243 390 240 401T221 412Q206 412 203 401T200 379V289L243 367V379Z" />
<glyph unicode="&#xf9;" glyph-name="ugrave" horiz-adv-x="456" d="M442 0H250V72Q228 42 197 18T121 -6H115Q86 -6 67 5T35 33T18 69T13 103V538H210V162Q210 152 214 145T230 137Q241 137 244 144T248 163V538H442V0ZM303 558H156L100 715H252L303 558Z" />
<glyph unicode="&#xfa;" glyph-name="uacute" horiz-adv-x="456" d="M442 0H250V72Q228 42 197 18T121 -6H115Q86 -6 67 5T35 33T18 69T13 103V538H210V162Q210 152 214 145T230 137Q241 137 244 144T248 163V538H442V0ZM206 715H358L301 558H154L206 715Z" />
<glyph unicode="&#xfb;" glyph-name="ucircumflex" horiz-adv-x="456" d="M442 0H250V72Q228 42 197 18T121 -6H115Q86 -6 67 5T35 33T18 69T13 103V538H210V162Q210 152 214 145T230 137Q241 137 244 144T248 163V538H442V0ZM381 558H252L227 625L203 558H76L150
715H306L381 558Z" />
<glyph unicode="&#xfc;" glyph-name="udieresis" horiz-adv-x="456" d="M442 0H250V72Q228 42 197 18T121 -6H115Q86 -6 67 5T35 33T18 69T13 103V538H210V162Q210 152 214 145T230 137Q241 137 244 144T248 163V538H442V0ZM218 558H80V691H218V558ZM378 558H240V691H378V558Z"
/>
<glyph unicode="&#xfd;" glyph-name="yacute" horiz-adv-x="427" d="M-3 538H191L220 266L240 538H430L297 -105Q291 -131 281 -147T258 -172T232 -184T207 -188H40V-33H101Q111 -33 114 -30T118 -16V-12Q118 -6 117 5T110 36L-3 538ZM193 715H345L288 558H141L193 715Z" />
<glyph unicode="&#xfe;" glyph-name="thorn" horiz-adv-x="454" d="M208 744V467Q240 512 269 529T332 547H337Q391 547 416 507T442 401V127Q442 97 433 72T408 28T371 0T326 -11H323Q289 -11 262 4T208 55V-188H13V744H208ZM208 144Q208 135 211 127T226 118Q238
118 241 126T245 144V387Q245 398 241 405T226 413Q214 413 211 406T208 387V144Z" />
<glyph unicode="&#xff;" glyph-name="ydieresis" horiz-adv-x="427" d="M-3 538H191L220 266L240 538H430L297 -105Q291 -131 281 -147T258 -172T232 -184T207 -188H40V-33H101Q111 -33 114 -30T118 -16V-12Q118 -6 117 5T110 36L-3 538ZM203 558H65V691H203V558ZM363
558H225V691H363V558Z" />
<glyph unicode="&#x100;" glyph-name="Amacron" horiz-adv-x="450" d="M251 92H178L169 0H-3L94 744H345L453 0H260L251 92ZM195 259H234L214 455L195 259ZM94 883H345V771H94V883Z" />
<glyph unicode="&#x101;" glyph-name="amacron" horiz-adv-x="440" d="M223 252Q218 250 212 246T201 235Q196 228 194 221T192 198V138Q192 130 195 124T208 118Q217 118 220 124T223 139V252ZM8 198Q8 245 29 273T88 319Q100 324 118 331T154 345T188 357T210
366Q218 370 220 372T223 385V413Q223 431 207 431H205Q188 431 188 413V367H15V413Q15 484 64 517T195 550H217Q308 550 359 519T411 414V159Q411 149 422 149H436V0H271Q249 0 237 17T225 61Q218 50 207 38T182 16T150 -1T109 -8H106Q82 -8 64 1T33 26T15 62T8
105V198ZM83 683H334V570H83V683Z" />
<glyph unicode="&#x102;" glyph-name="Abreve" horiz-adv-x="450" d="M251 92H178L169 0H-3L94 744H345L453 0H260L251 92ZM195 259H234L214 455L195 259ZM221 760H216Q147 760 113 796T79 884V895H194V886Q194 874 199 867T218 859H219Q233 859 238 866T244 886V895H358V884Q358
833 324 797T221 760Z" />
<glyph unicode="&#x103;" glyph-name="abreve" horiz-adv-x="440" d="M223 252Q218 250 212 246T201 235Q196 228 194 221T192 198V138Q192 130 195 124T208 118Q217 118 220 124T223 139V252ZM8 198Q8 245 29 273T88 319Q100 324 118 331T154 345T188 357T210
366Q218 370 220 372T223 385V413Q223 431 207 431H205Q188 431 188 413V367H15V413Q15 484 64 517T195 550H217Q308 550 359 519T411 414V159Q411 149 422 149H436V0H271Q249 0 237 17T225 61Q218 50 207 38T182 16T150 -1T109 -8H106Q82 -8 64 1T33 26T15 62T8
105V198ZM210 561H206Q137 561 103 595T69 691V705H183V697Q183 660 207 660H208Q233 660 233 697V705H346V691Q346 630 310 596T210 561Z" />
<glyph unicode="&#x104;" glyph-name="Aogonek" horiz-adv-x="450" d="M251 92H178L169 0H-3L94 744H345L453 0H260L251 92ZM195 259H234L214 455L195 259ZM281 -111Q281 -83 303 -57T371 0H453Q429 -26 421 -40T413 -67V-70Q413 -80 418 -85T440 -91H453V-188H371Q330
-188 306 -170T281 -122V-111Z" />
<glyph unicode="&#x105;" glyph-name="aogonek" horiz-adv-x="440" d="M223 252Q218 250 212 246T201 235Q196 228 194 221T192 198V138Q192 130 195 124T208 118Q217 118 220 124T223 139V252ZM8 198Q8 245 29 273T88 319Q100 324 118 331T154 345T188 357T210
366Q218 370 220 372T223 385V413Q223 431 207 431H205Q188 431 188 413V367H15V413Q15 484 64 517T195 550H217Q308 550 359 519T411 414V159Q411 149 422 149H436V0H271Q249 0 237 17T225 61Q218 50 207 38T182 16T150 -1T109 -8H106Q82 -8 64 1T33 26T15 62T8
105V198ZM264 -111Q264 -83 286 -57T354 0H436Q412 -26 404 -40T396 -67V-70Q396 -80 401 -85T423 -91H436V-188H354Q313 -188 289 -170T264 -122V-111Z" />
<glyph unicode="&#x106;" glyph-name="Cacute" horiz-adv-x="468" d="M216 895H371L318 770H167L216 895ZM260 190V322H456V183Q456 146 445 111T410 49T348 6T257 -11H224Q112 -11 63 46T13 208V541Q13 587 25 626T62 694T126 739T223 755H256Q359 755 407 705T456
570V451H260V562Q260 576 257 584T240 592Q228 592 224 585T220 562V190Q220 174 224 166T240 157Q253 157 256 166T260 190Z" />
<glyph unicode="&#x107;" glyph-name="cacute" horiz-adv-x="419" d="M194 715H346L291 565H144L194 715ZM409 242V142Q409 72 363 30T236 -13H196Q155 -13 121 -3T63 28T25 83T11 163V369Q11 405 20 438T52 496T109 536T195 551H237Q285 551 317 539T370 506T400
456T409 392V320H236V401Q236 421 220 421Q206 421 206 401V144Q206 123 220 123Q236 123 236 144V242H409Z" />
<glyph unicode="&#x108;" glyph-name="Ccircumflex" horiz-adv-x="468" d="M398 770H267L241 813L217 770H87L158 895H326L398 770ZM260 190V322H456V183Q456 146 445 111T410 49T348 6T257 -11H224Q112 -11 63 46T13 208V541Q13 587 25 626T62 694T126 739T223
755H256Q359 755 407 705T456 570V451H260V562Q260 576 257 584T240 592Q228 592 224 585T220 562V190Q220 174 224 166T240 157Q253 157 256 166T260 190Z" />
<glyph unicode="&#x109;" glyph-name="ccircumflex" horiz-adv-x="419" d="M369 565H241L216 625L192 565H66L140 715H294L369 565ZM409 242V142Q409 72 363 30T236 -13H196Q155 -13 121 -3T63 28T25 83T11 163V369Q11 405 20 438T52 496T109 536T195 551H237Q285
551 317 539T370 506T400 456T409 392V320H236V401Q236 421 220 421Q206 421 206 401V144Q206 123 220 123Q236 123 236 144V242H409Z" />
<glyph unicode="&#x10a;" glyph-name="Cdotaccent" horiz-adv-x="468" d="M338 770H143V921H338V770ZM260 190V322H456V183Q456 146 445 111T410 49T348 6T257 -11H224Q112 -11 63 46T13 208V541Q13 587 25 626T62 694T126 739T223 755H256Q359 755 407 705T456
570V451H260V562Q260 576 257 584T240 592Q228 592 224 585T220 562V190Q220 174 224 166T240 157Q253 157 256 166T260 190Z" />
<glyph unicode="&#x10b;" glyph-name="cdotaccent" horiz-adv-x="419" d="M315 565H120V715H315V565ZM409 242V142Q409 72 363 30T236 -13H196Q155 -13 121 -3T63 28T25 83T11 163V369Q11 405 20 438T52 496T109 536T195 551H237Q285 551 317 539T370 506T400
456T409 392V320H236V401Q236 421 220 421Q206 421 206 401V144Q206 123 220 123Q236 123 236 144V242H409Z" />
<glyph unicode="&#x10c;" glyph-name="Ccaron" horiz-adv-x="468" d="M86 895H218L242 847L268 895H401L328 770H158L86 895ZM260 190V322H456V183Q456 146 445 111T410 49T348 6T257 -11H224Q112 -11 63 46T13 208V541Q13 587 25 626T62 694T126 739T223 755H256Q359
755 407 705T456 570V451H260V562Q260 576 257 584T240 592Q228 592 224 585T220 562V190Q220 174 224 166T240 157Q253 157 256 166T260 190Z" />
<glyph unicode="&#x10d;" glyph-name="ccaron" horiz-adv-x="419" d="M67 715H193L217 649L242 715H370L298 565H138L67 715ZM409 242V142Q409 72 363 30T236 -13H196Q155 -13 121 -3T63 28T25 83T11 163V369Q11 405 20 438T52 496T109 536T195 551H237Q285 551
317 539T370 506T400 456T409 392V320H236V401Q236 421 220 421Q206 421 206 401V144Q206 123 220 123Q236 123 236 144V242H409Z" />
<glyph unicode="&#x10e;" glyph-name="Dcaron" horiz-adv-x="469" d="M15 744H301Q333 744 361 736T410 707T443 655T455 575V178Q455 130 443 97T411 42T363 10T303 0H15V744ZM210 163H229Q243 163 248 172T253 202V549Q253 566 248 575T229 585H210V163ZM52
895H181L205 847L231 895H361L284 764H128L52 895Z" />
<glyph unicode="&#x10f;" glyph-name="dcaron" horiz-adv-x="455" d="M442 744V0H250V60Q240 48 228 36T202 13T170 -4T133 -11H128Q102 -11 81 0T44 31T21 77T12 133V408Q12 437 19 462T41 505T74 533T118 544H124Q168 544 197 522T248 475V744H442ZM248 378Q248
390 244 398T229 407Q216 407 213 399T209 380V148Q209 137 212 129T229 121Q240 121 244 129T248 149V378ZM461 744H584L573 578H456L461 744Z" />
<glyph unicode="&#x110;" glyph-name="Dcroat" horiz-adv-x="478" d="M25 744H311Q343 744 371 736T420 707T453 655T465 575V178Q465 130 453 97T421 42T373 10T313 0H25V302H3V472H25V744ZM220 163H239Q253 163 258 172T263 202V549Q263 566 258 575T239 585H220V472H253V302H220V163Z"
/>
<glyph unicode="&#x111;" glyph-name="dcroat" horiz-adv-x="455" d="M165 701H468V567H165V701ZM442 744V0H250V60Q240 48 228 36T202 13T170 -4T133 -11H128Q102 -11 81 0T44 31T21 77T12 133V408Q12 437 19 462T41 505T74 533T118 544H124Q168 544 197 522T248
475V744H442ZM248 378Q248 390 244 398T229 407Q216 407 213 399T209 380V148Q209 137 212 129T229 121Q240 121 244 129T248 149V378Z" />
<glyph unicode="&#x112;" glyph-name="Emacron" horiz-adv-x="372" d="M357 744V565H210V476H331V293H210V181H362V0H15V744H357ZM62 883H313V771H62V883Z" />
<glyph unicode="&#x113;" glyph-name="emacron" horiz-adv-x="431" d="M238 551Q277 551 310 541T368 510T407 453T421 366V249H201V141Q201 126 205 121T219 115Q231 115 234 122T238 141V213H421V164Q421 79 372 33T238 -13H201Q111 -13 61 31T11 171V363Q11
451 58 501T201 551H238ZM201 351H238V406Q238 423 235 430T219 437Q208 437 205 430T201 406V351ZM92 684H343V571H92V684Z" />
<glyph unicode="&#x114;" glyph-name="Ebreve" horiz-adv-x="372" d="M357 744V565H210V476H331V293H210V181H362V0H15V744H357ZM192 760H187Q118 760 84 796T50 884V895H165V886Q165 874 170 867T189 859H190Q204 859 209 866T215 886V895H329V884Q329 833 295
797T192 760Z" />
<glyph unicode="&#x115;" glyph-name="ebreve" horiz-adv-x="431" d="M238 551Q277 551 310 541T368 510T407 453T421 366V249H201V141Q201 126 205 121T219 115Q231 115 234 122T238 141V213H421V164Q421 79 372 33T238 -13H201Q111 -13 61 31T11 171V363Q11
451 58 501T201 551H238ZM201 351H238V406Q238 423 235 430T219 437Q208 437 205 430T201 406V351ZM219 562H215Q146 562 112 596T78 692V706H192V698Q192 661 216 661H217Q242 661 242 698V706H355V692Q355 631 319 597T219 562Z" />
<glyph unicode="&#x116;" glyph-name="Edotaccent" horiz-adv-x="372" d="M357 744V565H210V476H331V293H210V181H362V0H15V744H357ZM287 764H92V921H287V764Z" />
<glyph unicode="&#x117;" glyph-name="edotaccent" horiz-adv-x="431" d="M315 565H120V715H315V565ZM238 551Q277 551 310 541T368 510T407 453T421 366V249H201V141Q201 126 205 121T219 115Q231 115 234 122T238 141V213H421V164Q421 79 372 33T238 -13H201Q111
-13 61 31T11 171V363Q11 451 58 501T201 551H238ZM201 351H238V406Q238 423 235 430T219 437Q208 437 205 430T201 406V351Z" />
<glyph unicode="&#x118;" glyph-name="Eogonek" horiz-adv-x="372" d="M357 744V565H210V476H331V293H210V181H362V0H15V744H357ZM140 -111Q140 -83 162 -57T230 0H312Q288 -26 280 -40T272 -67V-70Q272 -80 277 -85T299 -91H312V-188H230Q189 -188 165 -170T140
-122V-111Z" />
<glyph unicode="&#x119;" glyph-name="eogonek" horiz-adv-x="431" d="M350 0Q328 -24 319 -38T310 -67V-70Q310 -80 315 -85T337 -91H350V-188H268Q227 -188 203 -170T178 -122V-111Q178 -62 253 -13H238H201Q111 -13 61 31T11 171V363Q11 451 58 501T201 551H238Q277
551 310 541T368 510T407 453T421 366V249H201V141Q201 126 205 121T219 115Q231 115 234 122T238 141V213H421V164Q421 132 414 107T397 63T374 28T350 0ZM201 351H238V406Q238 423 235 430T219 437Q208 437 205 430T201 406V351Z" />
<glyph unicode="&#x11a;" glyph-name="Ecaron" horiz-adv-x="372" d="M357 744V565H210V476H331V293H210V181H362V0H15V744H357ZM35 895H164L188 847L214 895H344L267 764H111L35 895Z" />
<glyph unicode="&#x11b;" glyph-name="ecaron" horiz-adv-x="431" d="M66 711H192L216 649L241 711H369L297 565H137L66 711ZM238 551Q277 551 310 541T368 510T407 453T421 366V249H201V141Q201 126 205 121T219 115Q231 115 234 122T238 141V213H421V164Q421
79 372 33T238 -13H201Q111 -13 61 31T11 171V363Q11 451 58 501T201 551H238ZM201 351H238V406Q238 423 235 430T219 437Q208 437 205 430T201 406V351Z" />
<glyph unicode="&#x11c;" glyph-name="Gcircumflex" horiz-adv-x="481" d="M396 770H265L239 813L215 770H85L156 895H324L396 770ZM173 -11Q132 -11 102 4T52 47T23 109T13 183V550Q13 592 24 629T60 694T125 738T225 755H254Q314 755 354 739T417 696T450 637T460
570V479H267V564Q267 578 262 586T243 594Q229 594 225 586T220 564V182Q220 145 249 145Q278 145 278 182V296H235V445H469V0H334Q333 5 331 14T325 34T319 53T314 66Q293 37 261 13T179 -11H173Z" />
<glyph unicode="&#x11d;" glyph-name="gcircumflex" horiz-adv-x="455" d="M248 58Q241 50 231 39T205 17T172 -1T132 -9Q80 -9 46 26T12 126V411Q12 436 19 460T39 502T74 532T122 544H129Q150 544 168 537T201 520T228 497T250 473V538H442V-39Q442 -114 393
-155T252 -196H206Q156 -196 121 -186T64 -159T31 -119T21 -70V-18H211V-44Q211 -64 230 -64Q248 -64 248 -44V58ZM248 382Q248 393 244 400T229 408Q216 408 213 400T210 383V144Q210 133 213 125T229 117Q240 117 244 125T248 144V382ZM377 558H248L223 625L199
558H72L146 715H302L377 558Z" />
<glyph unicode="&#x11e;" glyph-name="Gbreve" horiz-adv-x="481" d="M173 -11Q132 -11 102 4T52 47T23 109T13 183V550Q13 592 24 629T60 694T125 738T225 755H254Q314 755 354 739T417 696T450 637T460 570V479H267V564Q267 578 262 586T243 594Q229 594 225
586T220 564V182Q220 145 249 145Q278 145 278 182V296H235V445H469V0H334Q333 5 331 14T325 34T319 53T314 66Q293 37 261 13T179 -11H173ZM245 766H240Q171 766 137 802T103 890V901H218V892Q218 880 223 873T242 865H243Q257 865 262 872T268 892V901H382V890Q382
839 348 803T245 766Z" />
<glyph unicode="&#x11f;" glyph-name="gbreve" horiz-adv-x="455" d="M248 58Q241 50 231 39T205 17T172 -1T132 -9Q80 -9 46 26T12 126V411Q12 436 19 460T39 502T74 532T122 544H129Q150 544 168 537T201 520T228 497T250 473V538H442V-39Q442 -114 393 -155T252
-196H206Q156 -196 121 -186T64 -159T31 -119T21 -70V-18H211V-44Q211 -64 230 -64Q248 -64 248 -44V58ZM248 382Q248 393 244 400T229 408Q216 408 213 400T210 383V144Q210 133 213 125T229 117Q240 117 244 125T248 144V382ZM226 555H222Q153 555 119 589T85
685V699H199V691Q199 654 223 654H224Q249 654 249 691V699H362V685Q362 624 326 590T226 555Z" />
<glyph unicode="&#x120;" glyph-name="Gdotaccent" horiz-adv-x="481" d="M339 770H144V921H339V770ZM173 -11Q132 -11 102 4T52 47T23 109T13 183V550Q13 592 24 629T60 694T125 738T225 755H254Q314 755 354 739T417 696T450 637T460 570V479H267V564Q267 578
262 586T243 594Q229 594 225 586T220 564V182Q220 145 249 145Q278 145 278 182V296H235V445H469V0H334Q333 5 331 14T325 34T319 53T314 66Q293 37 261 13T179 -11H173Z" />
<glyph unicode="&#x121;" glyph-name="gdotaccent" horiz-adv-x="455" d="M248 58Q241 50 231 39T205 17T172 -1T132 -9Q80 -9 46 26T12 126V411Q12 436 19 460T39 502T74 532T122 544H129Q150 544 168 537T201 520T228 497T250 473V538H442V-39Q442 -114 393
-155T252 -196H206Q156 -196 121 -186T64 -159T31 -119T21 -70V-18H211V-44Q211 -64 230 -64Q248 -64 248 -44V58ZM248 382Q248 393 244 400T229 408Q216 408 213 400T210 383V144Q210 133 213 125T229 117Q240 117 244 125T248 144V382ZM322 558H127V715H322V558Z"
/>
<glyph unicode="&#x122;" glyph-name="uni0122" horiz-adv-x="481" d="M173 -11Q132 -11 102 4T52 47T23 109T13 183V550Q13 592 24 629T60 694T125 738T225 755H254Q314 755 354 739T417 696T450 637T460 570V479H267V564Q267 578 262 586T243 594Q229 594 225
586T220 564V182Q220 145 249 145Q278 145 278 182V296H235V445H469V0H334Q333 5 331 14T325 34T319 53T314 66Q293 37 261 13T179 -11H173ZM222 32Q230 52 233 70T238 106H176V232H328V147Q328 109 319 78T304 32H222Z" />
<glyph unicode="&#x123;" glyph-name="uni0123" horiz-adv-x="455" d="M248 58Q241 50 231 39T205 17T172 -1T132 -9Q80 -9 46 26T12 126V411Q12 436 19 460T39 502T74 532T122 544H129Q150 544 168 537T201 520T228 497T250 473V538H442V-39Q442 -114 393 -155T252
-196H206Q156 -196 121 -186T64 -159T31 -119T21 -70V-18H211V-44Q211 -64 230 -64Q248 -64 248 -44V58ZM248 382Q248 393 244 400T229 408Q216 408 213 400T210 383V144Q210 133 213 125T229 117Q240 117 244 125T248 144V382ZM248 758Q240 738 237 720T232 684H294V558H142V643Q142
681 151 712T166 758H248Z" />
<glyph unicode="&#x124;" glyph-name="Hcircumflex" horiz-adv-x="473" d="M215 0H15V744H215V490H258V744H458V0H258V285H215V0ZM390 764H260L234 810L210 764H81L157 895H313L390 764Z" />
<glyph unicode="&#x125;" glyph-name="hcircumflex" horiz-adv-x="458" d="M13 744H208V469Q218 483 230 497T258 522T292 539T333 546H341Q371 546 391 535T423 506T440 470T445 436V0H248V375Q248 385 244 393T227 401Q215 401 212 393T208 374V0H13V744ZM376
764H246L220 810L196 764H67L143 895H299L376 764Z" />
<glyph unicode="&#x126;" glyph-name="Hbar" horiz-adv-x="484" d="M2 674H481V549H2V674ZM220 0H20V744H220V490H263V744H463V0H263V285H220V0Z" />
<glyph unicode="&#x127;" glyph-name="hbar" horiz-adv-x="458" d="M-13 701H290V567H-13V701ZM13 744H208V469Q218 483 230 497T258 522T292 539T333 546H341Q371 546 391 535T423 506T440 470T445 436V0H248V375Q248 385 244 393T227 401Q215 401 212 393T208
374V0H13V744Z" />
<glyph unicode="&#x128;" glyph-name="Itilde" horiz-adv-x="230" d="M215 0H15V744H215V0ZM371 783Q357 788 349 791T336 794Q328 794 328 782V762H230V831Q230 862 246 882T295 902H298Q316 902 332 897T371 883Q385 878 393 875T406 872Q414 872 414 884V905H512V840Q512
810 497 788T448 766H443Q427 766 411 770T371 783Z" />
<glyph unicode="&#x129;" glyph-name="itilde" horiz-adv-x="221" d="M238 708V631Q238 601 224 580T175 559H171Q157 559 143 564T110 580Q99 587 92 591T80 595Q73 595 73 584V556H-17V633Q-17 663 -2 684T47 705H50Q64 705 77 701T109 685Q120 678 128 674T141
669Q148 669 148 679V708H238ZM208 0H13V538H208V0Z" />
<glyph unicode="&#x12a;" glyph-name="Imacron" horiz-adv-x="230" d="M215 0H15V744H215V0ZM246 883H497V771H246V883Z" />
<glyph unicode="&#x12b;" glyph-name="imacron" horiz-adv-x="221" d="M-1 675H222V564H-1V675ZM208 0H13V538H208V0Z" />
<glyph unicode="&#x12c;" glyph-name="Ibreve" horiz-adv-x="230" d="M215 0H15V744H215V0ZM374 760H369Q300 760 266 796T232 884V895H347V886Q347 874 352 867T371 859H372Q386 859 391 866T397 886V895H511V884Q511 833 477 797T374 760Z" />
<glyph unicode="&#x12d;" glyph-name="ibreve" horiz-adv-x="221" d="M113 555H109Q43 555 15 589T-14 674V701H90V684Q90 669 94 661T111 653Q132 653 132 684V701H235V674Q235 623 205 589T113 555ZM208 0H13V538H208V0Z" />
<glyph unicode="&#x12e;" glyph-name="Iogonek" horiz-adv-x="230" d="M215 0H15V744H215V0ZM299 -111Q299 -83 321 -57T389 0H471Q447 -26 439 -40T431 -67V-70Q431 -80 436 -85T458 -91H471V-188H389Q348 -188 324 -170T299 -122V-111Z" />
<glyph unicode="&#x12f;" glyph-name="iogonek" horiz-adv-x="221" d="M208 0H13V538H208V0ZM208 558H13V715H208V558ZM292 -111Q292 -83 314 -57T382 0H464Q440 -26 432 -40T424 -67V-70Q424 -80 429 -85T451 -91H464V-188H382Q341 -188 317 -170T292 -122V-111Z" />
<glyph unicode="&#x130;" glyph-name="Idotaccent" horiz-adv-x="230" d="M215 0H15V744H215V0ZM469 764H274V921H469V764Z" />
<glyph unicode="&#x131;" glyph-name="dotlessi" horiz-adv-x="221" d="M208 0H13V538H208V0Z" />
<glyph unicode="&#x132;" glyph-name="IJ" horiz-adv-x="673" d="M215 0H15V744H215V0ZM419 338V174Q419 155 436 155H437Q453 155 453 174V744H658V167Q658 128 647 96T613 40T553 3T465 -11H411Q363 -11 330 2T276 39T246 93T237 159V338H419Z" />
<glyph unicode="&#x133;" glyph-name="ij" horiz-adv-x="438" d="M208 0H13V538H208V0ZM208 558H13V715H208V558ZM425 558H230V715H425V558ZM214 -24Q222 -24 226 -21T230 -6V538H425V-98Q425 -121 418 -138T399 -166T372 -182T340 -188H176V-24H214Z" />
<glyph unicode="&#x134;" glyph-name="Jcircumflex" horiz-adv-x="447" d="M193 338V174Q193 155 210 155H211Q227 155 227 174V744H432V167Q432 128 421 96T387 40T327 3T239 -11H185Q137 -11 104 2T50 39T20 93T11 159V338H193ZM480 764H350L324 810L300 764H171L247
895H403L480 764Z" />
<glyph unicode="&#x135;" glyph-name="jcircumflex" horiz-adv-x="221" d="M238 558H127L107 630L88 558H-21L30 715H186L238 558ZM-3 -24Q5 -24 9 -21T13 -6V538H208V-98Q208 -121 201 -138T182 -166T155 -182T123 -188H-41V-24H-3Z" />
<glyph unicode="&#x136;" glyph-name="uni0136" horiz-adv-x="477" d="M215 0H15V744H215V506L281 744H480L385 420L481 0H273L215 272V0ZM214 -220Q222 -200 225 -182T230 -146H168V-20H320V-105Q320 -143 311 -174T296 -220H214Z" />
<glyph unicode="&#x137;" glyph-name="uni0137" horiz-adv-x="440" d="M253 538H434L363 318L443 0H257L208 206V0H13V744H208V374L253 538ZM200 -220Q208 -200 211 -182T216 -146H154V-20H306V-105Q306 -143 297 -174T282 -220H200Z" />
<glyph unicode="&#x139;" glyph-name="Lacute" horiz-adv-x="353" d="M215 744V185H343V0H15V744H215ZM347 895H502L447 764H296L347 895Z" />
<glyph unicode="&#x13a;" glyph-name="lacute" horiz-adv-x="221" d="M208 0H13V744H208V0ZM342 895H497L442 764H291L342 895Z" />
<glyph unicode="&#x13b;" glyph-name="uni013B" horiz-adv-x="353" d="M215 744V185H343V0H15V744H215ZM152 -220Q160 -200 163 -182T168 -146H106V-20H258V-105Q258 -143 249 -174T234 -220H152Z" />
<glyph unicode="&#x13c;" glyph-name="uni013C" horiz-adv-x="221" d="M208 0H13V744H208V0ZM338 -220Q346 -200 349 -182T354 -146H292V-20H444V-105Q444 -143 435 -174T420 -220H338Z" />
<glyph unicode="&#x13d;" glyph-name="Lcaron" horiz-adv-x="353" d="M215 744V185H343V0H15V744H215ZM234 744H357L346 578H229L234 744Z" />
<glyph unicode="&#x13e;" glyph-name="lcaron" horiz-adv-x="221" d="M208 0H13V744H208V0ZM227 744H350L339 578H222L227 744Z" />
<glyph unicode="&#x13f;" glyph-name="Ldot" horiz-adv-x="404" d="M397 299H232V479H397V299ZM215 744V185H343V0H15V744H215Z" />
<glyph unicode="&#x140;" glyph-name="ldot" horiz-adv-x="398" d="M391 297H224V476H391V297ZM208 0H13V744H208V0Z" />
<glyph unicode="&#x141;" glyph-name="Lslash" horiz-adv-x="366" d="M228 744V479L303 530V382L228 332V185H356V0H28V201L5 186V329L28 344V744H228Z" />
<glyph unicode="&#x142;" glyph-name="lslash" horiz-adv-x="257" d="M226 0H31V274L5 259V394L31 410V744H226V528L252 544V408L226 392V0Z" />
<glyph unicode="&#x143;" glyph-name="Nacute" horiz-adv-x="474" d="M213 744L290 406V744H458V0H278L185 367V0H15V744H213ZM214 895H369L314 764H163L214 895Z" />
<glyph unicode="&#x144;" glyph-name="nacute" horiz-adv-x="458" d="M13 538H206V467Q217 482 230 496T258 521T292 539T333 546H341Q372 546 392 535T424 506T440 469T445 435V0H248V375Q248 385 244 393T227 401Q215 401 212 393T208 374V0H13V538ZM207 715H359L302
558H155L207 715Z" />
<glyph unicode="&#x145;" glyph-name="uni0145" horiz-adv-x="474" d="M213 744L290 406V744H458V0H278L185 367V0H15V744H213ZM210 -220Q218 -200 221 -182T226 -146H164V-20H316V-105Q316 -143 307 -174T292 -220H210Z" />
<glyph unicode="&#x146;" glyph-name="uni0146" horiz-adv-x="458" d="M13 538H206V467Q217 482 230 496T258 521T292 539T333 546H341Q372 546 392 535T424 506T440 469T445 435V0H248V375Q248 385 244 393T227 401Q215 401 212 393T208 374V0H13V538ZM200 -220Q208
-200 211 -182T216 -146H154V-20H306V-105Q306 -143 297 -174T282 -220H200Z" />
<glyph unicode="&#x147;" glyph-name="Ncaron" horiz-adv-x="474" d="M213 744L290 406V744H458V0H278L185 367V0H15V744H213ZM85 895H214L238 847L264 895H394L317 764H161L85 895Z" />
<glyph unicode="&#x148;" glyph-name="ncaron" horiz-adv-x="458" d="M13 538H206V467Q217 482 230 496T258 521T292 539T333 546H341Q372 546 392 535T424 506T440 469T445 435V0H248V375Q248 385 244 393T227 401Q215 401 212 393T208 374V0H13V538ZM78 715H204L228
649L253 715H381L306 558H152L78 715Z" />
<glyph unicode="&#x149;" glyph-name="napostrophe" horiz-adv-x="603" d="M158 538H351V467Q362 482 375 496T403 521T437 539T478 546H486Q517 546 537 535T569 506T585 469T590 435V0H393V375Q393 385 389 393T372 401Q360 401 357 393T353 374V0H158V538ZM287
493Q295 510 304 539T314 592H258V744H411V631Q411 609 408 588T399 549T387 516T377 493H287Z" />
<glyph unicode="&#x14a;" glyph-name="Eng" horiz-adv-x="470" d="M351 -188H225V-39H269Q289 -39 289 -15V0L182 367V0H15V744H210L289 405V744H454V-71Q454 -123 426 -155T351 -188Z" />
<glyph unicode="&#x14b;" glyph-name="eng" horiz-adv-x="458" d="M248 375Q248 385 244 393T227 401Q215 401 212 393T208 374V0H13V538H205V466Q229 497 261 521T337 546H346Q374 546 393 535T423 506T440 469T445 435V-98Q445 -144 419 -166T361 -188H220V-25H231Q240
-25 244 -22T248 -7V375Z" />
<glyph unicode="&#x14c;" glyph-name="Omacron" horiz-adv-x="486" d="M473 214Q473 158 458 116T414 46T347 4T261 -11H226Q123 -11 68 47T13 214V523Q13 630 63 692T226 755H260Q315 755 355 739T422 692T460 618T473 523V214ZM267 547Q267 564 262 572T243
581Q220 581 220 547V196Q220 165 243 165Q267 165 267 196V547ZM118 889H369V777H118V889Z" />
<glyph unicode="&#x14d;" glyph-name="omacron" horiz-adv-x="455" d="M11 344Q11 449 62 500T211 551H244Q444 551 444 344V195Q444 88 390 38T243 -13H210Q108 -13 60 37T11 194V344ZM207 161Q207 131 227 131Q239 131 243 138T248 161V379Q248 392 244 401T227
410Q214 410 211 401T207 379V161ZM103 684H354V571H103V684Z" />
<glyph unicode="&#x14e;" glyph-name="Obreve" horiz-adv-x="486" d="M473 214Q473 158 458 116T414 46T347 4T261 -11H226Q123 -11 68 47T13 214V523Q13 630 63 692T226 755H260Q315 755 355 739T422 692T460 618T473 523V214ZM267 547Q267 564 262 572T243 581Q220
581 220 547V196Q220 165 243 165Q267 165 267 196V547ZM246 766H241Q172 766 138 802T104 890V901H219V892Q219 880 224 873T243 865H244Q258 865 263 872T269 892V901H383V890Q383 839 349 803T246 766Z" />
<glyph unicode="&#x14f;" glyph-name="obreve" horiz-adv-x="455" d="M11 344Q11 449 62 500T211 551H244Q444 551 444 344V195Q444 88 390 38T243 -13H210Q108 -13 60 37T11 194V344ZM207 161Q207 131 227 131Q239 131 243 138T248 161V379Q248 392 244 401T227
410Q214 410 211 401T207 379V161ZM230 562H226Q157 562 123 596T89 692V706H203V698Q203 661 227 661H228Q253 661 253 698V706H366V692Q366 631 330 597T230 562Z" />
<glyph unicode="&#x150;" glyph-name="Ohungarumlaut" horiz-adv-x="486" d="M141 895H270L237 770H111L141 895ZM292 895H421L385 770H259L292 895ZM473 214Q473 158 458 116T414 46T347 4T261 -11H226Q123 -11 68 47T13 214V523Q13 630 63 692T226 755H260Q315
755 355 739T422 692T460 618T473 523V214ZM267 547Q267 564 262 572T243 581Q220 581 220 547V196Q220 165 243 165Q267 165 267 196V547Z" />
<glyph unicode="&#x151;" glyph-name="ohungarumlaut" horiz-adv-x="455" d="M131 715H257L224 565H99L131 715ZM278 715H404L370 565H245L278 715ZM11 344Q11 449 62 500T211 551H244Q444 551 444 344V195Q444 88 390 38T243 -13H210Q108 -13 60 37T11 194V344ZM207
161Q207 131 227 131Q239 131 243 138T248 161V379Q248 392 244 401T227 410Q214 410 211 401T207 379V161Z" />
<glyph unicode="&#x152;" glyph-name="OE" horiz-adv-x="604" d="M13 544Q13 587 21 625T48 691T94 736T163 753H170Q194 753 211 747T241 733T261 715T273 701V744H589V565H468V476H563V293H468V181H594V0H273V43Q269 37 260 28T239 11T209 -4T171 -11H163Q91
-11 52 44T13 201V544ZM264 548Q264 565 260 574T242 583Q229 583 225 574T220 548V197Q220 180 224 171T242 162Q255 162 259 171T264 197V548Z" />
<glyph unicode="&#x153;" glyph-name="oe" horiz-adv-x="672" d="M441 249V141Q441 126 445 121T459 115Q471 115 474 122T478 141V213H661V164Q661 80 613 34T479 -13H445Q407 -13 382 -3T343 17Q329 8 303 -4T234 -16H212Q109 -16 60 34T11 192V345Q11 453 64
502T211 552H237Q279 552 307 540T347 519Q359 528 383 539T445 550H480Q519 550 552 540T609 508T647 451T661 366V249H441ZM207 160Q207 144 211 137T226 129Q238 129 242 136T247 160V379Q247 392 244 401T226 410Q213 410 210 401T207 379V160ZM441 351H479V413Q478
426 474 431T459 436Q448 436 445 429T441 405V351Z" />
<glyph unicode="&#x154;" glyph-name="Racute" horiz-adv-x="468" d="M215 450H231Q252 450 252 476V575Q252 589 249 595T232 602H215V450ZM215 0H15V744H326Q351 744 373 736T413 711T440 668T451 605V531Q451 501 445 480T428 443T405 419T380 403Q393 398
406 389T429 366T446 335T453 297V58Q453 23 463 5V0H266Q260 8 256 21T252 48V263Q252 275 249 282T231 290H215V0ZM199 895H354L299 764H148L199 895Z" />
<glyph unicode="&#x155;" glyph-name="racute" horiz-adv-x="414" d="M206 466Q212 476 221 489T244 514T275 534T313 542H325Q365 542 385 518T405 461V267H235V388Q235 406 221 406Q208 406 208 388V0H13V538H206V466ZM202 715H354L297 558H150L202 715Z" />
<glyph unicode="&#x156;" glyph-name="uni0156" horiz-adv-x="468" d="M215 450H231Q252 450 252 476V575Q252 589 249 595T232 602H215V450ZM215 0H15V744H326Q351 744 373 736T413 711T440 668T451 605V531Q451 501 445 480T428 443T405 419T380 403Q393 398
406 389T429 366T446 335T453 297V58Q453 23 463 5V0H266Q260 8 256 21T252 48V263Q252 275 249 282T231 290H215V0ZM211 -220Q219 -200 222 -182T227 -146H165V-20H317V-105Q317 -143 308 -174T293 -220H211Z" />
<glyph unicode="&#x157;" glyph-name="uni0157" horiz-adv-x="414" d="M206 466Q212 476 221 489T244 514T275 534T313 542H325Q365 542 385 518T405 461V267H235V388Q235 406 221 406Q208 406 208 388V0H13V538H206V466ZM337 -220Q345 -200 348 -182T353 -146H291V-20H443V-105Q443
-143 434 -174T419 -220H337Z" />
<glyph unicode="&#x158;" glyph-name="Rcaron" horiz-adv-x="468" d="M215 450H231Q252 450 252 476V575Q252 589 249 595T232 602H215V450ZM215 0H15V744H326Q351 744 373 736T413 711T440 668T451 605V531Q451 501 445 480T428 443T405 419T380 403Q393 398
406 389T429 366T446 335T453 297V58Q453 23 463 5V0H266Q260 8 256 21T252 48V263Q252 275 249 282T231 290H215V0ZM65 895H194L218 847L244 895H374L297 764H141L65 895Z" />
<glyph unicode="&#x159;" glyph-name="rcaron" horiz-adv-x="414" d="M206 466Q212 476 221 489T244 514T275 534T313 542H325Q365 542 385 518T405 461V267H235V388Q235 406 221 406Q208 406 208 388V0H13V538H206V466ZM71 715H197L221 649L246 715H374L299 558H145L71
715Z" />
<glyph unicode="&#x15a;" glyph-name="Sacute" horiz-adv-x="467" d="M211 895H366L313 770H162L211 895ZM261 755Q315 755 351 743T409 709T440 658T450 596V519H257V585Q257 610 237 610Q217 610 217 585V563Q217 545 223 534T247 509L342 442Q373 420 395 399T432
353T452 299T459 233V194Q459 149 447 112T410 47T345 5T251 -11H204Q8 -11 8 164V267H204V180Q204 166 208 158T225 149Q237 149 241 157T246 182V209Q246 233 241 247T211 279L116 346Q62 384 38 431T14 541V579Q14 617 25 649T61 705T123 742T214 755H261Z"
/>
<glyph unicode="&#x15b;" glyph-name="sacute" horiz-adv-x="402" d="M178 715H330L275 565H128L178 715ZM386 429V379H219V421Q219 431 216 436T204 441Q187 441 187 421V403Q187 392 191 386T209 372L298 324Q357 292 376 253T396 164V146Q396 66 349 27T219
-13H172Q134 -13 104 -6T52 18T18 61T6 124V185H178V132Q178 111 195 111H196Q212 111 212 132V152Q212 167 207 175T188 191L104 236Q75 252 57 270T28 307T15 346T11 387V406Q11 478 54 514T181 551H225Q261 551 291 545T342 525T374 487T386 429Z" />
<glyph unicode="&#x15c;" glyph-name="Scircumflex" horiz-adv-x="467" d="M393 770H262L236 813L212 770H82L153 895H321L393 770ZM261 755Q315 755 351 743T409 709T440 658T450 596V519H257V585Q257 610 237 610Q217 610 217 585V563Q217 545 223 534T247 509L342
442Q373 420 395 399T432 353T452 299T459 233V194Q459 149 447 112T410 47T345 5T251 -11H204Q8 -11 8 164V267H204V180Q204 166 208 158T225 149Q237 149 241 157T246 182V209Q246 233 241 247T211 279L116 346Q62 384 38 431T14 541V579Q14 617 25 649T61 705T123
742T214 755H261Z" />
<glyph unicode="&#x15d;" glyph-name="scircumflex" horiz-adv-x="402" d="M356 565H228L203 625L179 565H53L127 715H281L356 565ZM386 429V379H219V421Q219 431 216 436T204 441Q187 441 187 421V403Q187 392 191 386T209 372L298 324Q357 292 376 253T396 164V146Q396
66 349 27T219 -13H172Q134 -13 104 -6T52 18T18 61T6 124V185H178V132Q178 111 195 111H196Q212 111 212 132V152Q212 167 207 175T188 191L104 236Q75 252 57 270T28 307T15 346T11 387V406Q11 478 54 514T181 551H225Q261 551 291 545T342 525T374 487T386 429Z"
/>
<glyph unicode="&#x15e;" glyph-name="uni015E" horiz-adv-x="467" d="M261 755Q315 755 351 743T409 709T440 658T450 596V519H257V585Q257 610 237 610Q217 610 217 585V563Q217 545 223 534T247 509L342 442Q373 420 395 399T432 353T452 299T459 233V194Q459
149 447 112T410 47T345 5T251 -11H204Q8 -11 8 164V267H204V180Q204 166 208 158T225 149Q237 149 241 157T246 182V209Q246 233 241 247T211 279L116 346Q62 384 38 431T14 541V579Q14 617 25 649T61 705T123 742T214 755H261ZM238 -202H147V-126H213Q233 -126
233 -112V-111Q233 -98 213 -98H162V0H239V-33H247Q295 -33 320 -54T345 -112V-115Q345 -156 317 -179T238 -202Z" />
<glyph unicode="&#x15f;" glyph-name="uni015F" horiz-adv-x="402" d="M386 429V379H219V421Q219 431 216 436T204 441Q187 441 187 421V403Q187 392 191 386T209 372L298 324Q357 292 376 253T396 164V146Q396 66 349 27T219 -13H172Q134 -13 104 -6T52 18T18
61T6 124V185H178V132Q178 111 195 111H196Q212 111 212 132V152Q212 167 207 175T188 191L104 236Q75 252 57 270T28 307T15 346T11 387V406Q11 478 54 514T181 551H225Q261 551 291 545T342 525T374 487T386 429ZM208 -202H117V-126H183Q203 -126 203 -112V-111Q203
-98 183 -98H132V0H209V-33H217Q265 -33 290 -54T315 -112V-115Q315 -156 287 -179T208 -202Z" />
<glyph unicode="&#x160;" glyph-name="Scaron" horiz-adv-x="467" d="M261 755Q315 755 351 743T409 709T440 658T450 596V519H257V585Q257 610 237 610Q217 610 217 585V563Q217 545 223 534T247 509L342 442Q373 420 395 399T432 353T452 299T459 233V194Q459
149 447 112T410 47T345 5T251 -11H204Q8 -11 8 164V267H204V180Q204 166 208 158T225 149Q237 149 241 157T246 182V209Q246 233 241 247T211 279L116 346Q62 384 38 431T14 541V579Q14 617 25 649T61 705T123 742T214 755H261ZM91 895H220L244 847L270 895H400L323
764H167L91 895Z" />
<glyph unicode="&#x161;" glyph-name="scaron" horiz-adv-x="402" d="M386 429V379H219V421Q219 431 216 436T204 441Q187 441 187 421V403Q187 392 191 386T209 372L298 324Q357 292 376 253T396 164V146Q396 66 349 27T219 -13H172Q134 -13 104 -6T52 18T18
61T6 124V185H178V132Q178 111 195 111H196Q212 111 212 132V152Q212 167 207 175T188 191L104 236Q75 252 57 270T28 307T15 346T11 387V406Q11 478 54 514T181 551H225Q261 551 291 545T342 525T374 487T386 429ZM54 715H180L204 649L229 715H357L282 558H128L54
715Z" />
<glyph unicode="&#x162;" glyph-name="Tcommaaccent" horiz-adv-x="399" d="M389 744V565H299V0H100V565H10V744H389ZM170 -220Q178 -200 181 -182T186 -146H124V-20H276V-105Q276 -143 267 -174T252 -220H170Z" />
<glyph unicode="&#x163;" glyph-name="tcommaaccent" horiz-adv-x="328" d="M135 0Q123 0 111 4T90 17T74 41T67 77V385H7V538H67V717H262V538H318V385H262V174Q262 164 265 160T279 156H318V0H135ZM176 -220Q184 -200 187 -182T192 -146H130V-20H282V-105Q282
-143 273 -174T258 -220H176Z" />
<glyph unicode="&#x164;" glyph-name="Tcaron" horiz-adv-x="399" d="M389 744V565H299V0H100V565H10V744H389ZM45 895H174L198 847L224 895H354L277 764H121L45 895Z" />
<glyph unicode="&#x165;" glyph-name="tcaron" horiz-adv-x="328" d="M135 0Q123 0 111 4T90 17T74 41T67 77V385H7V538H67V717H262V538H318V385H262V174Q262 164 265 160T279 156H318V0H135ZM281 744H404L393 578H276L281 744Z" />
<glyph unicode="&#x166;" glyph-name="Tbar" horiz-adv-x="399" d="M37 310V461H360V310H37ZM389 744V565H299V0H100V565H10V744H389Z" />
<glyph unicode="&#x167;" glyph-name="tbar" horiz-adv-x="328" d="M135 0Q123 0 111 4T90 17T74 41T67 77V224H7V352H67V385H7V538H67V717H262V538H319V385H262V352H319V224H262V174Q262 164 265 160T279 156H319V0H135Z" />
<glyph unicode="&#x168;" glyph-name="Utilde" horiz-adv-x="485" d="M15 744H221V204Q221 174 243 174Q264 174 264 204V744H470V181Q470 143 457 108T418 46T351 3T258 -13H226Q168 -13 128 2T63 44T27 106T15 181V744ZM246 783Q232 788 224 791T211 794Q203
794 203 782V762H105V831Q105 862 121 882T170 902H173Q191 902 207 897T246 883Q260 878 268 875T281 872Q289 872 289 884V905H387V840Q387 810 372 788T323 766H318Q302 766 286 770T246 783Z" />
<glyph unicode="&#x169;" glyph-name="utilde" horiz-adv-x="456" d="M442 0H250V72Q228 42 197 18T121 -6H115Q86 -6 67 5T35 33T18 69T13 103V538H210V162Q210 152 214 145T230 137Q241 137 244 144T248 163V538H442V0ZM369 708V630Q369 600 353 580T300 559H296Q282
559 266 563T229 579Q218 585 210 589T197 594Q190 594 190 582V556H89V634Q89 664 106 684T159 705H162Q176 705 190 701T228 686Q239 681 248 676T262 670Q269 670 269 682V708H369Z" />
<glyph unicode="&#x16a;" glyph-name="Umacron" horiz-adv-x="485" d="M15 744H221V204Q221 174 243 174Q264 174 264 204V744H470V181Q470 143 457 108T418 46T351 3T258 -13H226Q168 -13 128 2T63 44T27 106T15 181V744ZM117 883H368V771H117V883Z" />
<glyph unicode="&#x16b;" glyph-name="umacron" horiz-adv-x="456" d="M442 0H250V72Q228 42 197 18T121 -6H115Q86 -6 67 5T35 33T18 69T13 103V538H210V162Q210 152 214 145T230 137Q241 137 244 144T248 163V538H442V0ZM103 677H354V564H103V677Z" />
<glyph unicode="&#x16c;" glyph-name="Ubreve" horiz-adv-x="485" d="M15 744H221V204Q221 174 243 174Q264 174 264 204V744H470V181Q470 143 457 108T418 46T351 3T258 -13H226Q168 -13 128 2T63 44T27 106T15 181V744ZM245 760H240Q171 760 137 796T103 884V895H218V886Q218
874 223 867T242 859H243Q257 859 262 866T268 886V895H382V884Q382 833 348 797T245 760Z" />
<glyph unicode="&#x16d;" glyph-name="ubreve" horiz-adv-x="456" d="M442 0H250V72Q228 42 197 18T121 -6H115Q86 -6 67 5T35 33T18 69T13 103V538H210V162Q210 152 214 145T230 137Q241 137 244 144T248 163V538H442V0ZM230 555H226Q157 555 123 589T89 685V699H203V691Q203
654 227 654H228Q253 654 253 691V699H366V685Q366 624 330 590T230 555Z" />
<glyph unicode="&#x16e;" glyph-name="Uring" horiz-adv-x="485" d="M15 744H221V204Q221 174 243 174Q264 174 264 204V744H470V181Q470 143 457 108T418 46T351 3T258 -13H226Q168 -13 128 2T63 44T27 106T15 181V744ZM205 847Q205 830 215 820T242 811Q258
810 268 820T279 847Q279 863 269 873T242 883Q226 883 216 873T205 847ZM242 935Q282 935 308 911T335 848Q335 808 309 784T242 759Q202 759 176 783T149 848Q149 887 175 911T242 935Z" />
<glyph unicode="&#x16f;" glyph-name="uring" horiz-adv-x="456" d="M442 0H250V72Q228 42 197 18T121 -6H115Q86 -6 67 5T35 33T18 69T13 103V538H210V162Q210 152 214 145T230 137Q241 137 244 144T248 163V538H442V0ZM228 608Q244 607 254 617T265 644Q265
660 255 670T228 680Q212 680 202 670T191 644Q191 627 201 617T228 608ZM228 556Q188 556 162 580T135 645Q135 684 161 708T228 732Q268 732 294 708T321 645Q321 605 295 581T228 556Z" />
<glyph unicode="&#x170;" glyph-name="Uhungarumlaut" horiz-adv-x="485" d="M15 744H221V204Q221 174 243 174Q264 174 264 204V744H470V181Q470 143 457 108T418 46T351 3T258 -13H226Q168 -13 128 2T63 44T27 106T15 181V744ZM138 895H267L233 764H107L138
895ZM289 895H418L381 764H255L289 895Z" />
<glyph unicode="&#x171;" glyph-name="uhungarumlaut" horiz-adv-x="456" d="M442 0H250V72Q228 42 197 18T121 -6H115Q86 -6 67 5T35 33T18 69T13 103V538H210V162Q210 152 214 145T230 137Q241 137 244 144T248 163V538H442V0ZM128 715H254L219 558H94L128 715ZM275
715H401L365 558H240L275 715Z" />
<glyph unicode="&#x172;" glyph-name="Uogonek" horiz-adv-x="485" d="M206 -111Q206 -62 281 -12Q275 -12 270 -12T258 -13H226Q168 -13 128 2T63 44T27 106T15 181V744H221V204Q221 174 243 174Q264 174 264 204V744H470V181Q470 150 463 125T443 79T414 39T378
0Q356 -23 347 -38T338 -67V-70Q338 -80 343 -85T365 -91H378V-188H296Q255 -188 231 -170T206 -122V-111V-111Z" />
<glyph unicode="&#x173;" glyph-name="uogonek" horiz-adv-x="456" d="M442 0H250V72Q228 42 197 18T121 -6H115Q86 -6 67 5T35 33T18 69T13 103V538H210V162Q210 152 214 145T230 137Q241 137 244 144T248 163V538H442V0ZM271 -111Q271 -83 293 -57T361 0H443Q419
-26 411 -40T403 -67V-70Q403 -80 408 -85T430 -91H443V-188H361Q320 -188 296 -170T271 -122V-111Z" />
<glyph unicode="&#x174;" glyph-name="Wcircumflex" horiz-adv-x="690" d="M444 744L475 321L501 744H692L596 0H370L345 365L322 0H94L-2 744H202L227 321L259 744H444ZM500 764H370L344 810L320 764H191L267 895H423L500 764Z" />
<glyph unicode="&#x175;" glyph-name="wcircumflex" horiz-adv-x="642" d="M87 0L-2 538H190L212 232L237 538H410L434 232L457 538H644L556 0H346L322 246L299 0H87ZM475 558H346L321 625L297 558H170L244 715H400L475 558Z" />
<glyph unicode="&#x176;" glyph-name="Ycircumflex" horiz-adv-x="437" d="M323 268V0H124V268L-5 744H193L229 521L262 744H442L323 268ZM380 764H250L224 810L200 764H71L147 895H303L380 764Z" />
<glyph unicode="&#x177;" glyph-name="ycircumflex" horiz-adv-x="427" d="M-3 538H191L220 266L240 538H430L297 -105Q291 -131 281 -147T258 -172T232 -184T207 -188H40V-33H101Q111 -33 114 -30T118 -16V-12Q118 -6 117 5T110 36L-3 538ZM367 558H238L213 625L189
558H62L136 715H292L367 558Z" />
<glyph unicode="&#x178;" glyph-name="Ydieresis" horiz-adv-x="437" d="M323 268V0H124V268L-5 744H193L229 521L262 744H442L323 268ZM376 764H238V895H376V764ZM216 764H78V895H216V764Z" />
<glyph unicode="&#x179;" glyph-name="Zacute" horiz-adv-x="404" d="M387 744V581L228 180H394V0H10V163L164 566H15V744H387ZM175 895H330L275 764H124L175 895Z" />
<glyph unicode="&#x17a;" glyph-name="zacute" horiz-adv-x="353" d="M340 538V401L223 157H344V0H8V136L131 390H13V538H340ZM154 715H306L249 558H102L154 715Z" />
<glyph unicode="&#x17b;" glyph-name="Zdotaccent" horiz-adv-x="404" d="M387 744V581L228 180H394V0H10V163L164 566H15V744H387ZM299 764H104V921H299V764Z" />
<glyph unicode="&#x17c;" glyph-name="zdotaccent" horiz-adv-x="353" d="M340 538V401L223 157H344V0H8V136L131 390H13V538H340ZM276 558H81V715H276V558Z" />
<glyph unicode="&#x17d;" glyph-name="Zcaron" horiz-adv-x="404" d="M387 744V581L228 180H394V0H10V163L164 566H15V744H387ZM48 895H177L201 847L227 895H357L280 764H124L48 895Z" />
<glyph unicode="&#x17e;" glyph-name="zcaron" horiz-adv-x="353" d="M340 538V401L223 157H344V0H8V136L131 390H13V538H340ZM26 715H152L176 649L201 715H329L254 558H100L26 715Z" />
<glyph unicode="&#x192;" glyph-name="uni0192" horiz-adv-x="328" d="M57 342H6V488H64L71 637Q72 665 81 685T106 719T140 738T182 744H318V598H281Q270 598 267 594T262 578L257 488H318V342H250L223 -188H32L57 342Z" />
<glyph unicode="&#x1fa;" glyph-name="Aringacute" horiz-adv-x="450" d="M198 1078H353L298 947H147L198 1078ZM251 92H178L169 0H-3L94 744H345L453 0H260L251 92ZM195 259H234L214 455L195 259ZM182 847Q182 830 192 820T219 811Q235 810 245 820T256 847Q256
863 246 873T219 883Q203 883 193 873T182 847ZM219 935Q259 935 285 911T312 848Q312 808 286 784T219 759Q179 759 153 783T126 848Q126 887 152 911T219 935Z" />
<glyph unicode="&#x1fb;" glyph-name="aringacute" horiz-adv-x="440" d="M223 252Q218 250 212 246T201 235Q196 228 194 221T192 198V138Q192 130 195 124T208 118Q217 118 220 124T223 139V252ZM8 198Q8 245 29 273T88 319Q100 324 118 331T154 345T188 357T210
366Q218 370 220 372T223 385V413Q223 431 207 431H205Q188 431 188 413V367H15V413Q15 484 64 517T195 550H217Q308 550 359 519T411 414V159Q411 149 422 149H436V0H271Q249 0 237 17T225 61Q218 50 207 38T182 16T150 -1T109 -8H106Q82 -8 64 1T33 26T15 62T8
105V198ZM205 614Q221 613 231 623T242 650Q242 666 232 676T205 686Q189 686 179 676T168 650Q168 633 178 623T205 614ZM205 562Q165 562 139 586T112 651Q112 690 138 714T205 738Q245 738 271 714T298 651Q298 611 272 587T205 562ZM187 907H339L282 750H135L187
907Z" />
<glyph unicode="&#x1fc;" glyph-name="AEacute" horiz-adv-x="593" d="M261 0V102H199L185 0H-6L134 744H578V565H457V476H552V293H457V181H583V0H261ZM261 269V528L223 269H261ZM324 895H479L424 764H273L324 895Z" />
<glyph unicode="&#x1fd;" glyph-name="aeacute" horiz-adv-x="644" d="M247 67Q238 55 225 42T196 18T159 0T113 -8H110Q84 -8 65 1T34 27T15 63T8 106V189Q8 236 29 264T88 310Q100 316 118 323T154 336T188 348T210 357Q218 361 220 363T223 376V413Q223 431
207 431H205Q188 431 188 413V358H15V413Q15 484 64 517T195 550H211Q263 550 290 539T326 519Q335 527 359 538T429 550H443Q484 550 519 540T579 509T619 452T633 365V249H414V141Q414 126 418 121T432 115Q444 115 447 122T451 141V213H633V164Q633 81 585 34T451
-13H413Q374 -13 346 -6T298 14T266 40T247 67ZM223 245Q218 243 212 239T201 228Q196 221 194 214T192 191V138Q192 130 195 124T208 118Q217 118 220 124T223 139V245ZM414 351H451V406Q451 423 448 430T432 437Q421 437 418 430T414 406V351ZM304 715H456L399
558H252L304 715Z" />
<glyph unicode="&#x1fe;" glyph-name="Oslashacute" horiz-adv-x="480" d="M213 895H368L315 770H164L213 895ZM467 214Q467 158 452 116T408 46T341 4T254 -11H226Q188 -11 157 -2T104 24L91 0H-1L43 87Q29 112 21 143T13 214V523Q13 630 63 692T226 755H254Q292
755 321 747T372 723L383 744H476L435 663Q450 637 458 603T467 524V214ZM240 163Q266 163 266 196V360L215 237V196Q215 163 240 163ZM240 583Q226 583 221 575T215 547V400L266 523V547Q266 583 240 583Z" />
<glyph unicode="&#x1ff;" glyph-name="oslashacute" horiz-adv-x="444" d="M196 715H348L293 565H146L196 715ZM11 192V345Q11 453 64 502T217 551H226Q262 551 290 543T341 521L354 538H442L394 475Q412 450 422 418T432 345V192Q432 85 378 36T223 -13H218Q178
-13 149 -6T97 15L85 0H-1L43 62Q11 112 11 192ZM221 130Q234 130 238 138T243 161V255L200 177V161Q200 146 204 138T221 130ZM243 379Q243 390 240 401T221 412Q206 412 203 401T200 379V289L243 367V379Z" />
<glyph unicode="&#x218;" glyph-name="uni0218" horiz-adv-x="467" d="M261 755Q315 755 351 743T409 709T440 658T450 596V519H257V585Q257 610 237 610Q217 610 217 585V563Q217 545 223 534T247 509L342 442Q373 420 395 399T432 353T452 299T459 233V194Q459
149 447 112T410 47T345 5T251 -11H204Q8 -11 8 164V267H204V180Q204 166 208 158T225 149Q237 149 241 157T246 182V209Q246 233 241 247T211 279L116 346Q62 384 38 431T14 541V579Q14 617 25 649T61 705T123 742T214 755H261ZM206 30Q214 50 217 68T222 104H160V230H312V145Q312
107 303 76T288 30H206Z" />
<glyph unicode="&#x219;" glyph-name="uni0219" horiz-adv-x="402" d="M386 429V379H219V421Q219 431 216 436T204 441Q187 441 187 421V403Q187 392 191 386T209 372L298 324Q357 292 376 253T396 164V146Q396 66 349 27T219 -13H172Q134 -13 104 -6T52 18T18
61T6 124V185H178V132Q178 111 195 111H196Q212 111 212 132V152Q212 167 207 175T188 191L104 236Q75 252 57 270T28 307T15 346T11 387V406Q11 478 54 514T181 551H225Q261 551 291 545T342 525T374 487T386 429ZM170 29Q178 49 181 67T186 103H124V229H276V144Q276
106 267 75T252 29H170Z" />
<glyph unicode="&#x21a;" glyph-name="uni021A" horiz-adv-x="399" d="M389 744V565H299V0H100V565H10V744H389ZM170 -220Q178 -200 181 -182T186 -146H124V-20H276V-105Q276 -143 267 -174T252 -220H170Z" />
<glyph unicode="&#x21b;" glyph-name="uni021B" horiz-adv-x="328" d="M135 0Q123 0 111 4T90 17T74 41T67 77V385H7V538H67V717H262V538H318V385H262V174Q262 164 265 160T279 156H318V0H135ZM176 -220Q184 -200 187 -182T192 -146H130V-20H282V-105Q282 -143
273 -174T258 -220H176Z" />
<glyph unicode="&#x237;" glyph-name="uni0237" horiz-adv-x="221" d="M-3 -24Q5 -24 9 -21T13 -6V538H208V-98Q208 -121 201 -138T182 -166T155 -182T123 -188H-41V-24H-3Z" />
<glyph unicode="&#x2c6;" glyph-name="circumflex" horiz-adv-x="342" d="M324 558H195L170 625L146 558H19L93 715H249L324 558Z" />
<glyph unicode="&#x2c7;" glyph-name="caron" horiz-adv-x="342" d="M20 715H146L170 649L195 715H323L248 558H94L20 715Z" />
<glyph unicode="&#x2d8;" glyph-name="breve" horiz-adv-x="342" d="M173 555H169Q100 555 66 589T32 685V699H146V691Q146 654 170 654H171Q196 654 196 691V699H309V685Q309 624 273 590T173 555Z" />
<glyph unicode="&#x2d9;" glyph-name="dotaccent" horiz-adv-x="342" d="M268 558H73V715H268V558Z" />
<glyph unicode="&#x2da;" glyph-name="ring" horiz-adv-x="342" d="M171 608Q187 607 197 617T208 644Q208 660 198 670T171 680Q155 680 145 670T134 644Q134 627 144 617T171 608ZM171 556Q131 556 105 580T78 645Q78 684 104 708T171 732Q211 732 237 708T264
645Q264 605 238 581T171 556Z" />
<glyph unicode="&#x2db;" glyph-name="ogonek" horiz-adv-x="342" d="M85 -111Q85 -83 107 -57T175 0H257Q233 -26 225 -40T217 -67V-70Q217 -80 222 -85T244 -91H257V-188H175Q134 -188 110 -170T85 -122V-111Z" />
<glyph unicode="&#x2dc;" glyph-name="tilde" horiz-adv-x="342" d="M311 708V630Q311 600 295 580T242 559H238Q224 559 208 563T171 579Q160 585 152 589T139 594Q132 594 132 582V556H31V634Q31 664 48 684T101 705H104Q118 705 132 701T170 686Q181 681 190
676T204 670Q211 670 211 682V708H311Z" />
<glyph unicode="&#x2dd;" glyph-name="hungarumlaut" horiz-adv-x="342" d="M52 715H178L143 558H18L52 715ZM199 715H325L289 558H164L199 715Z" />
</font>
</defs>
</svg>
