<svg xmlns="http://www.w3.org/2000/svg" width="77.1" height="58.3" viewBox="0 0 77.1 58.3"><style>.st0{display:none;} .st1{display:inline;} .st2{fill:#02A182;stroke:#FFFFFF;stroke-width:4;stroke-miterlimit:10;} .st3{filter:url(#Adobe_OpacityMaskFilter);} .st4{mask:url(#SVGID_1_);fill:none;stroke:#02A182;stroke-width:4;stroke-miterlimit:10;} .st5{fill:#FFFFFF;stroke:#02A182;stroke-width:4;stroke-miterlimit:10;} .st6{fill:#FCE700;stroke:#02A182;stroke-width:4;stroke-miterlimit:10;}</style><g class="st0 st1" id="Layer_1"><path class="st2" d="M39.2 8.3l-13.4 9.6-13.5-9.6v33.6l13.5 9.6L39 41.9l13 9.6 13-9.6V8.3l-12.9 9.6zM39.1 32.3V8M26.1 51.8V27.5M51.2 51.8V27.5"/></g><g class="st0 st1" id="Layer_2"><defs><filter id="Adobe_OpacityMaskFilter" filterUnits="userSpaceOnUse" x="2.6" y="22.8" width="55" height="33.4"><feFlood result="back" flood-color="#fff" flood-opacity="1"/><feBlend in="SourceGraphic" in2="back"/></filter></defs><mask maskUnits="userSpaceOnUse" x="2.6" y="22.8" width="55" height="33.4" id="SVGID_1_"><path d="M18.3 16.6L13 34.1l49.9 13.7-.2-27.6z" class="st3"/></mask><path class="st4" d="M57.6 53.8l-20.7.2c0-2.9-2.3-5.2-5.2-5.2-2.9 0-5.8 2.4-5.8 5.3H4.6V22.8"/><path class="st5" d="M42.1 9.8c-.8 2.8.9 5.8 3.7 6.6 2.8.8 5.8-.8 6.6-3.6l20.1 5.7-8.2 29-20.1-5.7c.8-2.8-.9-5.8-3.7-6.6-2.8-.8-5.8.8-6.6 3.6l-20.1-5.7 8.2-29 20.1 5.7z"/></g><g id="Layer_3"><path class="st6" d="M39.5 11.1l-2.8-2.9M47.5 7.5V3.4M56.2 11.1l2.9-2.9"/><path class="st5" d="M13.4 23.3h50.2v31.6H13.4z"/><circle class="st5" cx="47.9" cy="39.5" r="8"/><path class="st6" d="M27.2 29.4v7.7h-7.7M41.8 17.6h12.1v5.7H41.8z"/></g></svg>