<svg id="Layer_1" xmlns="http://www.w3.org/2000/svg" viewBox="86.2 9.2 228.9 40.6"><style>.st0{fill:none;stroke:#019980;stroke-width:2.5;stroke-miterlimit:10;}</style><circle class="st0" cx="177.8" cy="29.6" r="8"/><path class="st0" d="M177.7 41.7V47.4M177.7 11.7v5.8M189.8 29.6H196.1M159.8 29.6h5.8M169.3 38.1l-2.1 2.1-2.1 2.1M190.6 16.8l-2.1 2.1-2.2 2.2M186.3 38.1l2.2 2.1 2.1 2.1M165.1 16.8l4.2 4.3M173.6 40.5l-1 2.8M183.1 15.8l-1.1 2.9M188.7 33.8l2.9 1.1M164.1 24.3l2.8 1.1M167.2 34.3l-2.8 1.2M191.3 23.6l-2.8 1.2M182.6 40.2l1.2 2.8M171.9 16.1l1.2 2.8"/><g><path class="st0" d="M233.9 23.1c-.9-1.2-1.4-2.7-1.4-4.3 0-2.7 2.2-4.8 4.8-4.8.8 0 1.6.2 2.3.6l.1.1c.7-.4 1.5-.6 2.4-.6 2.7 0 4.8 2.2 4.8 4.8 0 1.7-.6 3.2-1.5 4.4"/><path class="st0" d="M239.8 29.8s-.6 4.1-2.1 5.6c-1.9 1.9-4.9 1.8-6.8-.1-.6-.6-1.3-2.2-1.3-2.2s-1.6-.6-2.2-1.2c-1.9-1.9-1.9-4.9 0-6.8 1.8-1.8 4.3-2.5 6.6-2 1.3.3 2.6.9 3.6 2M239.8 29.8s.6 4.1 2.1 5.6c1.9 1.9 4.9 1.8 6.8-.1.6-.6 1.3-2.2 1.3-2.2s1.5-.6 2.2-1.2c1.9-1.9 1.9-4.9 0-6.8-1.8-1.8-4.3-2.5-6.6-2-1.3.3-2.6.9-3.6 2M239.8 32.6v5.7c0 3.8 3 6.9 6.8 6.9"/></g><g><circle class="st0" cx="132.9" cy="39.8" r="2.9"/><circle class="st0" cx="104.7" cy="39.8" r="2.9"/><path class="st0" d="M128.8 21.9l4.3 10.8M120.6 19.2v10.4l3.9 3.1h8.6M97.9 17.9v9.9h17.5"/><path class="st0" d="M132.9 23.2l-17.6-5.3H94.9M115.3 32.7V17.9M137.3 35c-2.5-2.5-6.4-2.5-8.9 0l-3.6 3.8h-9.6l-6.1-6.1h-9l-2.9 2.9M120.5 19.2v10.4M97.8 22.9l1.3-.7 2.4 1.5 2.6-1.5 2.6 1.5 2.6-1.5 2.5 1.5 2.5-1.5 1.1.6"/></g><g><path class="st0" d="M291.6 46.1V21.4M291.6 36.3l-6.7-6.8M291.6 28.9l-5.8-5.9M291.6 22.2l-3-3.1M291.6 36.3l6.8-6.8M291.6 28.9l5.8-5.9M291.6 22.2l3.1-3.1M281.3 29.1c0 5.7 4.6 10.3 10.3 10.3 5.7 0 10.3-4.6 10.3-10.3 0-11.3-10.3-16.1-10.3-16.1s-10.3 4.6-10.3 16.1z"/></g></svg>