<svg id="Layer_1" xmlns="http://www.w3.org/2000/svg" width="400" height="60" viewBox="0 0 400 60"><style>.st0{fill:none;stroke:#019980;stroke-width:3.6766;stroke-miterlimit:10;} .st1{fill:none;stroke:#019980;stroke-width:5.5164;stroke-miterlimit:10;}</style><circle class="st0" cx="149.9" cy="30" r="11.1"/><path class="st0" d="M149.6 46.8v8.1M149.6 5.1v8.1M166.5 30h8.7M124.8 30h8M138 41.8l-2.9 3-3 3M167.6 12.3l-2.9 2.9-3 3M161.7 41.8l3 3 2.9 3M132.1 12.3l5.9 5.9M144 45.2l-1.5 3.9M157.2 10.9l-1.5 4M165 35.9l4 1.5M130.8 22.7l3.9 1.5M135 36.6l-3.8 1.7M168.6 21.7l-3.9 1.7M156.5 44.9l1.7 3.8M141.6 11.3l1.7 3.9"/><g><path class="st0" d="M350 56.8V8.5M350 3.2c9.9 4.5 16.8 14.4 16.8 26 0 9.3-7.5 16.8-16.8 16.8M350 3.2c-9.9 4.5-16.8 14.4-16.8 26 0 9.3 7.5 16.8 16.8 16.8M350 41l-10.9-10.9M350 29.1l-9.3-9.4M350 18.3l-4.8-4.9M350 41l10.9-10.9M350 29.1l9.4-9.4M350 18.3l4.9-4.9"/></g><g><path class="st0" d="M240.7 19.7c-1.4-1.9-2.2-4.3-2.2-6.8 0-4.3 3.4-7.7 7.7-7.7 1.3 0 2.5.3 3.6.9l.2.1c1.1-.7 2.4-1 3.9-1 4.3 0 7.7 3.4 7.7 7.7 0 2.7-.9 5.1-2.4 7.1"/><path class="st0" d="M250 30.4s-.9 6.5-3.4 8.9c-3 3-7.9 2.9-10.9-.2-1-1-2-3.5-2-3.5s-2.5-1-3.5-2c-3-3-3-7.9 0-10.9 2.9-2.9 6.9-3.9 10.6-3.1 2.1.4 4.1 1.5 5.8 3.1M250 30.4s.9 6.5 3.4 8.9c3 3 7.9 2.9 10.9-.2 1-1 2-3.5 2-3.5s2.5-1 3.5-2c3-3 3-7.9 0-10.9-2.9-2.9-6.9-3.9-10.6-3.1-2.1.4-4.1 1.5-5.8 3.1M250 34.8v9c0 6 4.8 11 10.8 11"/></g><path class="st0" d="M-41.5-76.2h86.6v60h-86.6z"/><g><circle class="st1" cx="87.4" cy="50.6" r="5.9"/><circle class="st1" cx="18.7" cy="49.8" r="6.6"/><path class="st1" d="M.6 3.6H51l35.9 11.7M77.7 12.1l9.6 24.3M6.8 18l4.8 2 5.6-2.4 5.6 2.3 5.6-2.3 5.6 2.3 5.6-2.3 5.6 2.3 4.9-2M97.2 40.4C91.8 35 83 35 77.6 40.4l-7.9 8.3h-36l-7.5-13.5h-15l-7.5 13"/><path class="st1" d="M59.7 6.4v22.9l8.8 7h18.8M6.8 5.3v23.1h26.3l7.7 7.9h9.9v-31"/></g></svg>