<svg id="Layer_1" xmlns="http://www.w3.org/2000/svg" width="400" height="60" viewBox="0 0 400 60"><style>.st0{fill:none;stroke:#019980;stroke-width:4.0442;stroke-miterlimit:10;} .st1{fill:none;stroke:#019980;stroke-width:3.6766;stroke-miterlimit:10;}</style><circle class="st0" cx="149.9" cy="30" r="12.2"/><path class="st0" d="M149.6 48.5v8.9M149.6 2.6v8.9M168.1 30h9.7M122.2 30H131.1M136.9 43l-3.3 3.3-3.3 3.2M169.4 10.5l-3.3 3.2-3.2 3.3M162.9 43l3.2 3.3 3.3 3.2M130.3 10.5l6.6 6.5M143.4 46.7l-1.6 4.3M158 9l-1.7 4.4M166.5 36.4l4.3 1.7M128.9 21.9l4.3 1.7M133.5 37.3l-4.2 1.8M170.4 20.9l-4.2 1.9M157.1 46.3l1.9 4.3M140.7 9.5l1.9 4.2"/><g><path class="st0" d="M350 59V8.4M350 2.6c10.9 4.9 18.5 15.9 18.5 28.6 0 10.2-8.3 18.4-18.4 18.4M350 2.6c-10.9 4.9-18.5 15.9-18.5 28.6 0 10.2 8.3 18.4 18.4 18.4M350 44.2l-12-12M350 31.1l-10.3-10.3M350 19.2l-5.3-5.3M350 44.2l12-12M350 31.1l10.3-10.3M350 19.2l5.4-5.3"/></g><g><path class="st0" d="M239.7 18.7c-1.5-2.1-2.5-4.7-2.5-7.5 0-4.7 3.8-8.5 8.5-8.5 1.4 0 2.8.4 4 1l.2.1c1.2-.7 2.7-1.1 4.2-1.1 4.7 0 8.5 3.8 8.5 8.5 0 2.9-1 5.6-2.7 7.8"/><path class="st0" d="M250 30.5s-1 7.1-3.7 9.8c-3.3 3.3-8.7 3.2-12-.2-1.1-1.1-2.2-3.8-2.2-3.8s-2.7-1.1-3.8-2.2c-3.3-3.3-3.3-8.7 0-12 3.2-3.2 7.6-4.3 11.6-3.4 2.3.5 4.5 1.6 6.4 3.4M250 30.5s1 7.1 3.7 9.8c3.3 3.3 8.7 3.2 12-.2 1.1-1.1 2.2-3.8 2.2-3.8s2.7-1.1 3.8-2.2c3.3-3.3 3.3-8.7 0-12-3.2-3.2-7.6-4.3-11.6-3.4-2.3.5-4.5 1.6-6.4 3.4M250 35.3v9.9c0 6.6 5.3 12.1 11.9 12.1"/></g><path class="st1" d="M-41.5-76.2h86.6v60h-86.6z"/><g><circle class="st0" cx="87.4" cy="50.6" r="5.9"/><circle class="st0" cx="18.7" cy="49.8" r="6.6"/><path class="st0" d="M.6 3.6H51l35.9 11.7M77.7 12.1l9.6 24.3M6.8 18l4.8 2 5.6-2.4 5.6 2.3 5.6-2.3 5.6 2.3 5.6-2.3 5.6 2.3 4.9-2M97.2 40.4C91.8 35 83 35 77.6 40.4l-7.9 8.3h-36l-7.5-13.5h-15l-7.5 13"/><path class="st0" d="M59.7 6.4v22.9l8.8 7h18.8M6.8 5.3v23.1h26.3l7.7 7.9h9.9v-31"/></g></svg>