<svg xmlns="http://www.w3.org/2000/svg" width="38" height="38" viewBox="0 0 38 38"><style>.st0{display:none;} .st1{display:inline;} .st2{fill:#02A182;stroke:#FFFFFF;stroke-width:4;stroke-miterlimit:10;} .st3{filter:url(#Adobe_OpacityMaskFilter);} .st4{mask:url(#SVGID_1_);fill:none;stroke:#02A182;stroke-width:4;stroke-miterlimit:10;} .st5{fill:#FFFFFF;stroke:#02A182;stroke-width:4;stroke-miterlimit:10;} .st6{fill:#F6F6F3;stroke:#029A80;stroke-width:4;stroke-miterlimit:10;} .st7{fill:none;stroke:#029A80;stroke-width:4;stroke-miterlimit:10;}</style><g class="st0 st1" id="Layer_1"><path class="st2" d="M19.6-1.9L6.2 7.7-7.2-1.9v33.6l13.4 9.6 13.2-9.6 13 9.6 13.1-9.6V-1.9l-13 9.6zM19.5 22.1V-2.2M6.6 41.6V17.3M31.7 41.6V17.3"/></g><g class="st0 st1" id="Layer_2"><defs><filter id="Adobe_OpacityMaskFilter" filterUnits="userSpaceOnUse" x="-16.9" y="12.6" width="55" height="33.4"><feFlood result="back" flood-color="#fff" flood-opacity="1"/><feBlend in="SourceGraphic" in2="back"/></filter></defs><mask maskUnits="userSpaceOnUse" x="-16.9" y="12.6" width="55" height="33.4" id="SVGID_1_"><path d="M-1.3 6.5L-6.6 24l50 13.6-.3-27.6z" class="st3"/></mask><path class="st4" d="M38 43.7l-20.6.2c0-2.9-2.3-5.2-5.2-5.2-2.9 0-5.8 2.4-5.8 5.3h-21.3V12.6"/><path class="st5" d="M22.5-.3c-.8 2.8.9 5.8 3.7 6.6 2.9.7 5.8-.9 6.6-3.7l20.1 5.7-8.2 29-20.1-5.7c.8-2.8-.9-5.8-3.7-6.6-2.8-.8-5.8.8-6.6 3.6L-5.8 23 2.4-6 22.5-.3z"/></g><g id="Layer_3"><path class="st6" d="M3.6 3.6h30.8v30.8H3.6z"/><path class="st7" d="M22 27l-4.6-4.6L14 19l8-8"/></g></svg>