<svg id="Layer_1" xmlns="http://www.w3.org/2000/svg" width="100" height="60" viewBox="0 0 100 60"><style>.st0{fill:none;stroke:#019980;stroke-width:5.5164;stroke-miterlimit:10;}</style><circle class="st0" cx="87.4" cy="50.6" r="5.9"/><circle class="st0" cx="18.7" cy="49.8" r="6.6"/><path class="st0" d="M.6 3.6H51l35.9 11.7M77.7 12.1l9.6 24.3M6.8 18l4.8 2 5.6-2.4 5.6 2.3 5.6-2.3 5.6 2.3 5.6-2.3 5.6 2.3 4.9-2M97.2 40.4C91.8 35 83 35 77.6 40.4l-7.9 8.3h-36l-7.5-13.5h-15l-7.5 13"/><path class="st0" d="M59.7 6.4v22.9l8.8 7h18.8M6.8 5.3v23.1h26.3l7.7 7.9h9.9v-31"/></svg>