<?xml version="1.0" encoding="utf-8"?>
<!-- Generator: Adobe Illustrator 16.0.0, SVG Export Plug-In . SVG Version: 6.00 Build 0)  -->
<!DOCTYPE svg PUBLIC "-//W3C//DTD SVG 1.1//EN" "http://www.w3.org/Graphics/SVG/1.1/DTD/svg11.dtd">
<svg version="1.1" id="Layer_1" xmlns="http://www.w3.org/2000/svg" xmlns:xlink="http://www.w3.org/1999/xlink" x="0px" y="0px"
	 width="77.1px" height="58.3px" viewBox="0 0 77.1 58.3" enable-background="new 0 0 77.1 58.3" xml:space="preserve">
<g id="Layer_1_1_" display="none">
	<g display="inline">
		<g>
			<polygon fill="#02A182" stroke="#FFFFFF" stroke-width="4" stroke-miterlimit="10" points="39.2,8.3 25.8,17.9 12.3,8.3 
				12.3,41.9 25.8,51.5 39,41.9 52,51.5 65,41.9 65,8.3 52.1,17.9 			"/>
		</g>
		<line fill="none" stroke="#FFFFFF" stroke-width="4" stroke-miterlimit="10" x1="39.1" y1="32.3" x2="39.1" y2="8"/>
		<line fill="none" stroke="#FFFFFF" stroke-width="4" stroke-miterlimit="10" x1="26.1" y1="51.8" x2="26.1" y2="27.5"/>
		<line fill="none" stroke="#FFFFFF" stroke-width="4" stroke-miterlimit="10" x1="51.2" y1="51.8" x2="51.2" y2="27.5"/>
	</g>
</g>
<g id="Layer_2">
	<g>
		<path fill="none" stroke="#02A182" stroke-width="4" stroke-miterlimit="10" d="M57.6,53.8L36.9,54c0-2.899-2.3-5.199-5.199-5.199
			c-2.9,0-5.801,2.4-5.801,5.3H4.6V22.8"/>
		<path fill="none" stroke="#02A182" stroke-width="4" stroke-miterlimit="10" d="M42.1,9.8c-0.8,2.8,0.9,5.8,3.7,6.6
			c2.8,0.8,5.8-0.8,6.6-3.6L72.5,18.5l-8.2,29L44.2,41.8C45,39,43.3,36,40.5,35.201C37.7,34.4,34.7,36,33.9,38.8l-20.1-5.7l8.2-29
			L42.1,9.8z"/>
	</g>
</g>
</svg>
