<?xml version="1.0" encoding="utf-8"?>
<!-- Generator: Adobe Illustrator 19.0.1, SVG Export Plug-In . SVG Version: 6.00 Build 0)  -->
<svg version="1.1" xmlns="http://www.w3.org/2000/svg" xmlns:xlink="http://www.w3.org/1999/xlink" x="0px" y="0px" width="77.1px"
	 height="58.3px" viewBox="0 0 77.1 58.3" style="enable-background:new 0 0 77.1 58.3;" xml:space="preserve">
<style type="text/css">
	.st0{display:none;}
	.st1{display:inline;}
	.st2{fill:#02A182;stroke:#FFFFFF;stroke-width:4;stroke-miterlimit:10;}
	.st3{filter:url(#Adobe_OpacityMaskFilter);}
	.st4{mask:url(#SVGID_1_);fill:none;stroke:#02A182;stroke-width:4;stroke-miterlimit:10;}
	.st5{fill:#FFFFFF;stroke:#02A182;stroke-width:4;stroke-miterlimit:10;}
	.st6{fill:#FCE700;stroke:#02A182;stroke-width:4;stroke-miterlimit:10;}
</style>
<g id="Layer_1" class="st0">
	<g class="st1">
		<g>
			<polygon class="st2" points="39.2,8.3 25.8,17.9 12.3,8.3 12.3,41.9 25.8,51.5 39,41.9 52,51.5 65,41.9 65,8.3 52.1,17.9 			"/>
		</g>
		<line class="st2" x1="39.1" y1="32.3" x2="39.1" y2="8"/>
		<line class="st2" x1="26.1" y1="51.8" x2="26.1" y2="27.5"/>
		<line class="st2" x1="51.2" y1="51.8" x2="51.2" y2="27.5"/>
	</g>
</g>
<g id="Layer_2" class="st0">
	<g class="st1">
		<defs>
			<filter id="Adobe_OpacityMaskFilter" filterUnits="userSpaceOnUse" x="2.6" y="22.8" width="55" height="33.4">
				<feFlood  style="flood-color:white;flood-opacity:1" result="back"/>
				<feBlend  in="SourceGraphic" in2="back" mode="normal"/>
			</filter>
		</defs>
		<mask maskUnits="userSpaceOnUse" x="2.6" y="22.8" width="55" height="33.4" id="SVGID_1_">
			<g class="st3">
				<polygon points="18.3,16.6 13,34.1 62.9,47.8 62.7,20.2 				"/>
			</g>
		</mask>
		<path class="st4" d="M57.6,53.8L36.9,54c0-2.9-2.3-5.2-5.2-5.2c-2.9,0-5.8,2.4-5.8,5.3l-21.3,0V22.8"/>
		<path class="st5" d="M42.1,9.8c-0.8,2.8,0.9,5.8,3.7,6.6c2.8,0.8,5.8-0.8,6.6-3.6l20.1,5.7l-8.2,29l-20.1-5.7
			c0.8-2.8-0.9-5.8-3.7-6.6c-2.8-0.8-5.8,0.8-6.6,3.6l-20.1-5.7l8.2-29L42.1,9.8z"/>
	</g>
</g>
<g id="Layer_3">
	<g>
		<g>
			<line class="st6" x1="39.5" y1="11.1" x2="36.7" y2="8.2"/>
			<line class="st6" x1="47.5" y1="7.5" x2="47.5" y2="3.4"/>
			<line class="st6" x1="56.2" y1="11.1" x2="59.1" y2="8.2"/>
		</g>
		<rect x="13.4" y="23.3" class="st5" width="50.2" height="31.6"/>
		<circle class="st5" cx="47.9" cy="39.5" r="8"/>
		<polyline class="st6" points="27.2,29.4 27.2,37.1 19.5,37.1 		"/>
		<rect x="41.8" y="17.6" class="st6" width="12.1" height="5.7"/>
	</g>
</g>
</svg>
