<?xml version="1.0" encoding="utf-8"?>
<!-- Generator: Adobe Illustrator 19.1.0, SVG Export Plug-In . SVG Version: 6.00 Build 0)  -->
<svg version="1.1" id="Layer_1" xmlns="http://www.w3.org/2000/svg" xmlns:xlink="http://www.w3.org/1999/xlink" x="0px" y="0px"
	 viewBox="86.2 9.2 228.9 40.6" style="enable-background:new 86.2 9.2 228.9 40.6;" xml:space="preserve">
<style type="text/css">
	.st0{fill:none;stroke:#019980;stroke-width:2.5;stroke-miterlimit:10;}
</style>
<g>
	<circle class="st0" cx="177.8" cy="29.6" r="8"/>
	<g>
		<polyline class="st0" points="177.7,41.7 177.7,44.6 177.7,47.4 		"/>
		<polyline class="st0" points="177.7,11.7 177.7,14.5 177.7,17.5 		"/>
		<polyline class="st0" points="189.8,29.6 192.9,29.6 196.1,29.6 		"/>
		<polyline class="st0" points="159.8,29.6 162.8,29.6 165.6,29.6 		"/>
		<polyline class="st0" points="169.3,38.1 167.2,40.2 165.1,42.3 		"/>
		<polyline class="st0" points="190.6,16.8 188.5,18.9 186.3,21.1 		"/>
		<polyline class="st0" points="186.3,38.1 188.5,40.2 190.6,42.3 		"/>
		<line class="st0" x1="165.1" y1="16.8" x2="169.3" y2="21.1"/>
		<line class="st0" x1="173.6" y1="40.5" x2="172.6" y2="43.3"/>
		<line class="st0" x1="183.1" y1="15.8" x2="182" y2="18.7"/>
		<line class="st0" x1="188.7" y1="33.8" x2="191.6" y2="34.9"/>
		<line class="st0" x1="164.1" y1="24.3" x2="166.9" y2="25.4"/>
		<line class="st0" x1="167.2" y1="34.3" x2="164.4" y2="35.5"/>
		<line class="st0" x1="191.3" y1="23.6" x2="188.5" y2="24.8"/>
		<line class="st0" x1="182.6" y1="40.2" x2="183.8" y2="43"/>
		<line class="st0" x1="171.9" y1="16.1" x2="173.1" y2="18.9"/>
	</g>
</g>
<g>
	<path class="st0" d="M233.9,23.1c-0.9-1.2-1.4-2.7-1.4-4.3c0-2.7,2.2-4.8,4.8-4.8c0.8,0,1.6,0.2,2.3,0.6l0.1,0.1
		c0.7-0.4,1.5-0.6,2.4-0.6c2.7,0,4.8,2.2,4.8,4.8c0,1.7-0.6,3.2-1.5,4.4"/>
	<g>
		<g>
			<path class="st0" d="M239.8,29.8c0,0-0.6,4.1-2.1,5.6c-1.9,1.9-4.9,1.8-6.8-0.1c-0.6-0.6-1.3-2.2-1.3-2.2s-1.6-0.6-2.2-1.2
				c-1.9-1.9-1.9-4.9,0-6.8c1.8-1.8,4.3-2.5,6.6-2c1.3,0.3,2.6,0.9,3.6,2"/>
		</g>
		<g>
			<path class="st0" d="M239.8,29.8c0,0,0.6,4.1,2.1,5.6c1.9,1.9,4.9,1.8,6.8-0.1c0.6-0.6,1.3-2.2,1.3-2.2s1.5-0.6,2.2-1.2
				c1.9-1.9,1.9-4.9,0-6.8c-1.8-1.8-4.3-2.5-6.6-2c-1.3,0.3-2.6,0.9-3.6,2"/>
		</g>
	</g>
	<path class="st0" d="M239.8,32.6V38v0.3c0,3.8,3,6.9,6.8,6.9"/>
</g>
<g>
	<circle class="st0" cx="132.9" cy="39.8" r="2.9"/>
	<circle class="st0" cx="104.7" cy="39.8" r="2.9"/>
	<line class="st0" x1="128.8" y1="21.9" x2="133.1" y2="32.7"/>
	<polyline class="st0" points="120.6,19.2 120.6,29.6 124.5,32.7 133.1,32.7 	"/>
	<polyline class="st0" points="97.9,17.9 97.9,27.8 115.4,27.8 	"/>
	<polyline class="st0" points="132.9,23.2 115.3,17.9 94.9,17.9 	"/>
	<line class="st0" x1="115.3" y1="32.7" x2="115.3" y2="17.9"/>
	<path class="st0" d="M137.3,35c-2.5-2.5-6.4-2.5-8.9,0l-3.6,3.8c0,0-9.6,0-9.6,0l-6.1-6.1h-9l-2.9,2.9"/>
	<line class="st0" x1="120.5" y1="19.2" x2="120.5" y2="29.6"/>
	<polyline class="st0" points="97.8,22.9 99.1,22.2 101.5,23.7 104.1,22.2 106.7,23.7 109.3,22.2 111.8,23.7 114.3,22.2 115.4,22.8 
			"/>
</g>
<g>
	<line class="st0" x1="291.6" y1="46.1" x2="291.6" y2="21.4"/>
	<g>
		<line class="st0" x1="291.6" y1="36.3" x2="284.9" y2="29.5"/>
		<line class="st0" x1="291.6" y1="28.9" x2="285.8" y2="23"/>
		<line class="st0" x1="291.6" y1="22.2" x2="288.6" y2="19.1"/>
		<line class="st0" x1="291.6" y1="36.3" x2="298.4" y2="29.5"/>
		<line class="st0" x1="291.6" y1="28.9" x2="297.4" y2="23"/>
		<line class="st0" x1="291.6" y1="22.2" x2="294.7" y2="19.1"/>
	</g>
	<path class="st0" d="M281.3,29.1c0,5.7,4.6,10.3,10.3,10.3c5.7,0,10.3-4.6,10.3-10.3c0-11.3-10.3-16.1-10.3-16.1
		S281.3,17.6,281.3,29.1z"/>
</g>
</svg>
