<?xml version="1.0" encoding="utf-8"?>
<!-- Generator: Adobe Illustrator 19.0.1, SVG Export Plug-In . SVG Version: 6.00 Build 0)  -->
<svg version="1.1" id="Layer_1" xmlns="http://www.w3.org/2000/svg" xmlns:xlink="http://www.w3.org/1999/xlink" x="0px" y="0px"
	 width="400px" height="60px" viewBox="0 0 400 60" style="enable-background:new 0 0 400 60;" xml:space="preserve">
<style type="text/css">
	.st0{fill:none;stroke:#019980;stroke-width:5.5164;stroke-miterlimit:10;}
	.st1{fill:none;stroke:#019980;stroke-width:3.6766;stroke-miterlimit:10;}
</style>
<g>
	<circle class="st0" cx="149.9" cy="30" r="12.2"/>
	<g>
		<polyline class="st0" points="149.6,48.5 149.6,53 149.6,57.4 		"/>
		<polyline class="st0" points="149.6,2.6 149.6,7 149.6,11.5 		"/>
		<polyline class="st0" points="168.1,30 172.9,30 177.8,30 		"/>
		<polyline class="st0" points="122.2,30 126.8,30 131.1,30 		"/>
		<polyline class="st0" points="136.9,43 133.6,46.3 130.3,49.5 		"/>
		<polyline class="st0" points="169.4,10.5 166.1,13.7 162.9,17 		"/>
		<polyline class="st0" points="162.9,43 166.1,46.3 169.4,49.5 		"/>
		<line class="st0" x1="130.3" y1="10.5" x2="136.9" y2="17"/>
		<line class="st0" x1="143.4" y1="46.7" x2="141.8" y2="51"/>
		<line class="st0" x1="158" y1="9" x2="156.3" y2="13.4"/>
		<line class="st0" x1="166.5" y1="36.4" x2="170.8" y2="38.1"/>
		<line class="st0" x1="128.9" y1="21.9" x2="133.2" y2="23.6"/>
		<line class="st0" x1="133.5" y1="37.3" x2="129.3" y2="39.1"/>
		<line class="st0" x1="170.4" y1="20.9" x2="166.2" y2="22.8"/>
		<line class="st0" x1="157.1" y1="46.3" x2="159" y2="50.6"/>
		<line class="st0" x1="140.7" y1="9.5" x2="142.6" y2="13.7"/>
		<path class="st0" d="M128.4,21.7"/>
	</g>
</g>
<g>
	<line class="st0" x1="350" y1="60" x2="350" y2="8.4"/>
	<g>
		<path class="st0" d="M350,3.6L350,3.6c10.9,4.9,18.5,14.9,18.5,27.6c0,10.2-8.3,18.4-18.4,18.4"/>
	</g>
	<g>
		<path class="st0" d="M350,3.6L350,3.6c-10.9,4.9-18.5,14.9-18.5,27.6c0,10.2,8.3,18.4,18.4,18.4"/>
	</g>
	<g>
		<line class="st0" x1="350" y1="44.2" x2="338" y2="32.2"/>
		<line class="st0" x1="350" y1="31.1" x2="339.7" y2="20.8"/>
		<line class="st0" x1="350" y1="19.2" x2="344.7" y2="13.9"/>
		<line class="st0" x1="350" y1="44.2" x2="362" y2="32.2"/>
		<line class="st0" x1="350" y1="31.1" x2="360.3" y2="20.8"/>
		<line class="st0" x1="350" y1="19.2" x2="355.4" y2="13.9"/>
	</g>
</g>
<g>
	<path class="st0" d="M239.7,19.7c-1.5-2.1-2.5-4.7-2.5-7.5c0-4.7,3.8-8.5,8.5-8.5c1.4,0,2.8,0.4,4,1l0.2,0.1
		c1.2-0.7,2.7-1.1,4.2-1.1c4.7,0,8.5,3.8,8.5,8.5c0,2.9-1,5.6-2.7,7.8"/>
	<path class="st0" d="M250,20"/>
	<g>
		<g>
			<path class="st0" d="M250,31.5c0,0-1,7.1-3.7,9.8c-3.3,3.3-8.7,3.2-12-0.2c-1.1-1.1-2.2-3.8-2.2-3.8s-2.7-1.1-3.8-2.2
				c-3.3-3.3-3.3-8.7,0-12c3.2-3.2,7.6-4.3,11.6-3.4c2.3,0.5,4.5,1.6,6.4,3.4"/>
			<path class="st0" d="M246.3,23.1"/>
		</g>
		<g>
			<path class="st0" d="M250,31.5c0,0,1,7.1,3.7,9.8c3.3,3.3,8.7,3.2,12-0.2c1.1-1.1,2.2-3.8,2.2-3.8s2.7-1.1,3.8-2.2
				c3.3-3.3,3.3-8.7,0-12c-3.2-3.2-7.6-4.3-11.6-3.4c-2.3,0.5-4.5,1.6-6.4,3.4"/>
			<path class="st0" d="M253.7,23.1"/>
		</g>
	</g>
	<path class="st0" d="M250,36.3v9.5v0.4c0,6.6,5.3,11.1,11.9,11.1"/>
</g>
<rect x="-41.5" y="-76.2" class="st1" width="86.6" height="60"/>
<g>
	<circle class="st0" cx="87.4" cy="50.6" r="5.9"/>
	<circle class="st0" cx="18.7" cy="49.8" r="6.6"/>
	<polyline class="st0" points="0.6,3.6 51,3.6 86.9,15.3 	"/>
	<line class="st0" x1="77.7" y1="12.1" x2="87.3" y2="36.4"/>
	<polyline class="st0" points="6.8,18 11.6,20 17.2,17.6 22.8,19.9 28.4,17.6 34,19.9 39.6,17.6 45.2,19.9 50.1,17.9 	"/>
	<path class="st0" d="M97.2,40.4c-5.4-5.4-14.2-5.4-19.6,0l-7.9,8.3H33.7l-7.5-13.5h-15L3.7,48.2"/>
	<polyline class="st0" points="59.7,6.4 59.7,29.3 68.5,36.3 87.3,36.3 	"/>
	<path class="st0" d="M51,35.5"/>
	<polyline class="st0" points="6.8,5.3 6.8,28.4 33.1,28.4 40.8,36.3 50.7,36.3 50.7,5.3 	"/>
</g>
</svg>
