<?xml version="1.0" encoding="utf-8"?>
<!-- Generator: Adobe Illustrator 16.0.0, SVG Export Plug-In . SVG Version: 6.00 Build 0)  -->
<!DOCTYPE svg PUBLIC "-//W3C//DTD SVG 1.1//EN" "http://www.w3.org/Graphics/SVG/1.1/DTD/svg11.dtd">
<svg version="1.1" id="Layer_1" xmlns="http://www.w3.org/2000/svg" xmlns:xlink="http://www.w3.org/1999/xlink" x="0px" y="0px"
	 width="400px" height="60px" viewBox="0 0 400 60" enable-background="new 0 0 400 60" xml:space="preserve">
<g>
	<circle fill="none" stroke="#019980" stroke-width="5.5164" stroke-miterlimit="10" cx="149.9" cy="100" r="12.2"/>
	<g>
		<polyline fill="none" stroke="#019980" stroke-width="5.5164" stroke-miterlimit="10" points="149.6,118.5 149.6,123 149.6,127.4 
					"/>
		<polyline fill="none" stroke="#019980" stroke-width="5.5164" stroke-miterlimit="10" points="149.6,72.6 149.6,77 149.6,81.5 		
			"/>
		<polyline fill="none" stroke="#019980" stroke-width="5.5164" stroke-miterlimit="10" points="168.1,100 172.9,100 177.8,100 		
			"/>
		<polyline fill="none" stroke="#019980" stroke-width="5.5164" stroke-miterlimit="10" points="122.2,100 126.8,100 131.1,100 		
			"/>
		<polyline fill="none" stroke="#019980" stroke-width="5.5164" stroke-miterlimit="10" points="136.9,113 133.6,116.3 130.3,119.5 
					"/>
		<polyline fill="none" stroke="#019980" stroke-width="5.5164" stroke-miterlimit="10" points="169.4,80.5 166.1,83.7 162.9,87 		
			"/>
		<polyline fill="none" stroke="#019980" stroke-width="5.5164" stroke-miterlimit="10" points="162.9,113 166.1,116.3 169.4,119.5 
					"/>
		<line fill="none" stroke="#019980" stroke-width="5.5164" stroke-miterlimit="10" x1="130.3" y1="80.5" x2="136.9" y2="87"/>
		<line fill="none" stroke="#019980" stroke-width="5.5164" stroke-miterlimit="10" x1="143.4" y1="116.7" x2="141.8" y2="121"/>
		<line fill="none" stroke="#019980" stroke-width="5.5164" stroke-miterlimit="10" x1="158" y1="79" x2="156.3" y2="83.4"/>
		<line fill="none" stroke="#019980" stroke-width="5.5164" stroke-miterlimit="10" x1="166.5" y1="106.4" x2="170.8" y2="108.1"/>
		<line fill="none" stroke="#019980" stroke-width="5.5164" stroke-miterlimit="10" x1="128.9" y1="91.9" x2="133.2" y2="93.6"/>
		<line fill="none" stroke="#019980" stroke-width="5.5164" stroke-miterlimit="10" x1="133.5" y1="107.3" x2="129.3" y2="109.1"/>
		<line fill="none" stroke="#019980" stroke-width="5.5164" stroke-miterlimit="10" x1="170.4" y1="90.9" x2="166.2" y2="92.8"/>
		<line fill="none" stroke="#019980" stroke-width="5.5164" stroke-miterlimit="10" x1="157.1" y1="116.3" x2="159" y2="120.6"/>
		<line fill="none" stroke="#019980" stroke-width="5.5164" stroke-miterlimit="10" x1="140.7" y1="79.5" x2="142.6" y2="83.7"/>
		<path fill="none" stroke="#019980" stroke-width="5.5164" stroke-miterlimit="10" d="M128.4,91.7"/>
	</g>
</g>
<g>
	<line fill="none" stroke="#019980" stroke-width="5.5164" stroke-miterlimit="10" x1="350" y1="130" x2="350" y2="78.4"/>
	<g>
		<path fill="none" stroke="#019980" stroke-width="5.5164" stroke-miterlimit="10" d="M350,73.6L350,73.6
			c10.9,4.9,18.5,14.9,18.5,27.601c0,10.2-8.3,18.399-18.4,18.399"/>
	</g>
	<g>
		<path fill="none" stroke="#019980" stroke-width="5.5164" stroke-miterlimit="10" d="M350,73.6L350,73.6
			c-10.9,4.9-18.5,14.9-18.5,27.601c0,10.2,8.3,18.399,18.4,18.399"/>
	</g>
	<g>
		<line fill="none" stroke="#019980" stroke-width="5.5164" stroke-miterlimit="10" x1="350" y1="114.2" x2="338" y2="102.2"/>
		<line fill="none" stroke="#019980" stroke-width="5.5164" stroke-miterlimit="10" x1="350" y1="101.1" x2="339.7" y2="90.8"/>
		<line fill="none" stroke="#019980" stroke-width="5.5164" stroke-miterlimit="10" x1="350" y1="89.2" x2="344.7" y2="83.9"/>
		<line fill="none" stroke="#019980" stroke-width="5.5164" stroke-miterlimit="10" x1="350" y1="114.2" x2="362" y2="102.2"/>
		<line fill="none" stroke="#019980" stroke-width="5.5164" stroke-miterlimit="10" x1="350" y1="101.1" x2="360.3" y2="90.8"/>
		<line fill="none" stroke="#019980" stroke-width="5.5164" stroke-miterlimit="10" x1="350" y1="89.2" x2="355.4" y2="83.9"/>
	</g>
</g>
<g>
	<path fill="none" stroke="#019980" stroke-width="5.5164" stroke-miterlimit="10" d="M239.7,89.7c-1.5-2.101-2.5-4.7-2.5-7.5
		c0-4.7,3.8-8.5,8.5-8.5c1.399,0,2.8,0.399,4,1l0.2,0.1c1.199-0.7,2.699-1.1,4.199-1.1c4.7,0,8.5,3.8,8.5,8.5
		c0,2.899-1,5.6-2.699,7.8"/>
	<path fill="none" stroke="#019980" stroke-width="5.5164" stroke-miterlimit="10" d="M250,90"/>
	<g>
		<g>
			<path fill="none" stroke="#019980" stroke-width="5.5164" stroke-miterlimit="10" d="M250,101.5c0,0-1,7.1-3.7,9.8
				c-3.3,3.3-8.7,3.2-12-0.2c-1.1-1.1-2.2-3.8-2.2-3.8s-2.699-1.1-3.8-2.2c-3.3-3.3-3.3-8.699,0-12
				c3.2-3.199,7.601-4.3,11.601-3.399c2.3,0.5,4.5,1.6,6.399,3.399"/>
			<path fill="none" stroke="#019980" stroke-width="5.5164" stroke-miterlimit="10" d="M246.3,93.1"/>
		</g>
		<g>
			<path fill="none" stroke="#019980" stroke-width="5.5164" stroke-miterlimit="10" d="M250,101.5c0,0,1,7.1,3.7,9.8
				c3.3,3.3,8.7,3.2,12-0.2c1.1-1.1,2.2-3.8,2.2-3.8s2.699-1.1,3.8-2.2c3.3-3.3,3.3-8.699,0-12C268.5,89.9,264.1,88.8,260.1,89.7
				c-2.3,0.5-4.5,1.6-6.399,3.399"/>
			<path fill="none" stroke="#019980" stroke-width="5.5164" stroke-miterlimit="10" d="M253.7,93.1"/>
		</g>
	</g>
	<path fill="none" stroke="#019980" stroke-width="5.5164" stroke-miterlimit="10" d="M250,106.3v9.5v0.4c0,6.6,5.3,11.1,11.9,11.1"
		/>
</g>
<rect x="-41.5" y="-76.2" fill="none" stroke="#019980" stroke-width="3.6766" stroke-miterlimit="10" width="86.6" height="60"/>
<g>
	<circle fill="none" stroke="#019980" stroke-width="5.5164" stroke-miterlimit="10" cx="87.4" cy="120.6" r="5.9"/>
	<circle fill="none" stroke="#019980" stroke-width="5.5164" stroke-miterlimit="10" cx="18.7" cy="119.8" r="6.6"/>
	<polyline fill="none" stroke="#019980" stroke-width="5.5164" stroke-miterlimit="10" points="0.6,73.6 51,73.6 86.9,85.3 	"/>
	<line fill="none" stroke="#019980" stroke-width="5.5164" stroke-miterlimit="10" x1="77.7" y1="82.1" x2="87.3" y2="106.4"/>
	<polyline fill="none" stroke="#019980" stroke-width="5.5164" stroke-miterlimit="10" points="6.8,88 11.6,90 17.2,87.6 22.8,89.9 
		28.4,87.6 34,89.9 39.6,87.6 45.2,89.9 50.1,87.9 	"/>
	<path fill="none" stroke="#019980" stroke-width="5.5164" stroke-miterlimit="10" d="M97.2,110.4c-5.4-5.4-14.2-5.4-19.6,0
		l-7.9,8.3h-36l-7.5-13.5h-15l-7.5,13"/>
	<polyline fill="none" stroke="#019980" stroke-width="5.5164" stroke-miterlimit="10" points="59.7,76.4 59.7,99.3 68.5,106.3 
		87.3,106.3 	"/>
	<path fill="none" stroke="#019980" stroke-width="5.5164" stroke-miterlimit="10" d="M51,105.5"/>
	<polyline fill="none" stroke="#019980" stroke-width="5.5164" stroke-miterlimit="10" points="6.8,75.3 6.8,98.4 33.1,98.4 
		40.8,106.3 50.7,106.3 50.7,75.3 	"/>
</g>
<g>
	<g>
		<circle fill="none" stroke="#019980" stroke-width="4.125" stroke-miterlimit="10" cx="148.972" cy="29.92" r="11.648"/>
		<g>
			<polyline fill="none" stroke="#019980" stroke-width="4.125" stroke-miterlimit="10" points="148.827,47.54 148.827,51.762 
				148.827,55.838 			"/>
			<polyline fill="none" stroke="#019980" stroke-width="4.125" stroke-miterlimit="10" points="148.827,3.856 148.827,7.934 
				148.827,12.302 			"/>
			<polyline fill="none" stroke="#019980" stroke-width="4.125" stroke-miterlimit="10" points="166.446,29.919 170.96,29.919 
				175.618,29.919 			"/>
			<polyline fill="none" stroke="#019980" stroke-width="4.125" stroke-miterlimit="10" points="122.762,29.919 127.13,29.919 
				131.208,29.919 			"/>
			<polyline fill="none" stroke="#019980" stroke-width="4.125" stroke-miterlimit="10" points="136.595,42.297 133.539,45.354 
				130.481,48.413 			"/>
			<polyline fill="none" stroke="#019980" stroke-width="4.125" stroke-miterlimit="10" points="167.61,11.281 164.553,14.34 
				161.35,17.543 			"/>
			<polyline fill="none" stroke="#019980" stroke-width="4.125" stroke-miterlimit="10" points="161.35,42.297 164.553,45.354 
				167.61,48.413 			"/>
			
				<line fill="none" stroke="#019980" stroke-width="4.125" stroke-miterlimit="10" x1="130.481" y1="11.281" x2="136.595" y2="17.543"/>
			
				<line fill="none" stroke="#019980" stroke-width="4.125" stroke-miterlimit="10" x1="142.857" y1="45.792" x2="141.4" y2="49.87"/>
			
				<line fill="none" stroke="#019980" stroke-width="4.125" stroke-miterlimit="10" x1="156.69" y1="9.825" x2="155.088" y2="14.05"/>
			
				<line fill="none" stroke="#019980" stroke-width="4.125" stroke-miterlimit="10" x1="164.843" y1="36.035" x2="169.065" y2="37.637"/>
			
				<line fill="none" stroke="#019980" stroke-width="4.125" stroke-miterlimit="10" x1="129.024" y1="22.203" x2="133.1" y2="23.805"/>
			
				<line fill="none" stroke="#019980" stroke-width="4.125" stroke-miterlimit="10" x1="133.539" y1="36.763" x2="129.46" y2="38.511"/>
			
				<line fill="none" stroke="#019980" stroke-width="4.125" stroke-miterlimit="10" x1="168.63" y1="21.184" x2="164.553" y2="22.932"/>
			
				<line fill="none" stroke="#019980" stroke-width="4.125" stroke-miterlimit="10" x1="155.962" y1="45.354" x2="157.708" y2="49.432"/>
			
				<line fill="none" stroke="#019980" stroke-width="4.125" stroke-miterlimit="10" x1="140.38" y1="10.263" x2="142.128" y2="14.34"/>
		</g>
	</g>
	<g>
		<path fill="none" stroke="#019980" stroke-width="4.125" stroke-miterlimit="10" d="M240.561,21.967
			c-1.311-1.748-2.039-3.932-2.039-6.262c0-3.932,3.203-6.99,6.988-6.99c1.164,0,2.332,0.291,3.35,0.874l0.145,0.145
			c1.021-0.581,2.184-0.873,3.498-0.873c3.932,0,6.986,3.203,6.986,6.99c0,2.475-0.875,4.659-2.184,6.406"/>
		<g>
			<g>
				<path fill="none" stroke="#019980" stroke-width="4.125" stroke-miterlimit="10" d="M249.15,31.722c0,0-0.875,5.971-3.057,8.153
					c-2.77,2.769-7.135,2.621-9.904-0.145c-0.873-0.874-1.891-3.204-1.891-3.204s-2.33-0.873-3.203-1.746
					c-2.768-2.769-2.768-7.135,0-9.903c2.619-2.62,6.262-3.639,9.611-2.91c1.891,0.435,3.785,1.309,5.238,2.91"/>
			</g>
			<g>
				<path fill="none" stroke="#019980" stroke-width="4.125" stroke-miterlimit="10" d="M249.15,31.722c0,0,0.875,5.971,3.057,8.153
					c2.77,2.769,7.135,2.621,9.904-0.145c0.871-0.874,1.891-3.204,1.891-3.204s2.186-0.873,3.203-1.746
					c2.77-2.769,2.77-7.135,0-9.903c-2.619-2.62-6.26-3.639-9.609-2.91c-1.891,0.435-3.787,1.309-5.242,2.91"/>
			</g>
		</g>
		<path fill="none" stroke="#019980" stroke-width="4.125" stroke-miterlimit="10" d="M249.15,35.799v7.863v0.437
			c0,5.533,4.369,10.047,9.9,10.047"/>
	</g>
	<g>
		<path fill="none" stroke="#019980" stroke-width="4.9913" stroke-miterlimit="10" d="M77.932,41.568
			c2.82,0,5.107,2.288,5.107,5.107c0,2.823-2.287,5.111-5.107,5.111c-2.824,0-5.112-2.288-5.112-5.111
			C72.82,43.856,75.108,41.568,77.932,41.568z"/>
		<circle fill="none" stroke="#019980" stroke-width="4.9913" stroke-miterlimit="10" cx="28.245" cy="46.678" r="5.109"/>
		
			<line fill="none" stroke="#019980" stroke-width="4.9913" stroke-miterlimit="10" x1="70.707" y1="15.141" x2="78.284" y2="34.168"/>
		<polyline fill="none" stroke="#019980" stroke-width="4.9913" stroke-miterlimit="10" points="56.258,10.383 56.258,28.704 
			63.13,34.168 78.284,34.168 		"/>
		<polyline fill="none" stroke="#019980" stroke-width="4.9913" stroke-miterlimit="10" points="16.265,8.091 16.265,25.533 
			47.1,25.533 		"/>
		<polyline fill="none" stroke="#019980" stroke-width="4.9913" stroke-miterlimit="10" points="77.932,17.43 46.923,8.091 
			10.979,8.091 		"/>
		
			<line fill="none" stroke="#019980" stroke-width="4.9913" stroke-miterlimit="10" x1="46.923" y1="34.168" x2="46.923" y2="8.091"/>
		<path fill="none" stroke="#019980" stroke-width="4.9913" stroke-miterlimit="10" d="M85.683,38.22
			c-4.406-4.403-11.277-4.403-15.679,0l-6.345,6.697H46.746L35.997,34.168H20.142l-5.111,5.109"/>
		
			<line fill="none" stroke="#019980" stroke-width="4.9913" stroke-miterlimit="10" x1="56.083" y1="10.383" x2="56.083" y2="28.704"/>
		<polyline fill="none" stroke="#019980" stroke-width="4.9913" stroke-miterlimit="10" points="16.09,16.899 18.379,15.667 
			22.608,18.312 27.189,15.667 31.77,18.312 36.352,15.667 40.754,18.312 45.16,15.667 47.1,16.726 		"/>
	</g>
	<g>
		
			<line fill="none" stroke="#019980" stroke-width="4.125" stroke-miterlimit="10" x1="349.674" y1="56.144" x2="349.674" y2="20.177"/>
		<g>
			
				<line fill="none" stroke="#019980" stroke-width="4.125" stroke-miterlimit="10" x1="349.674" y1="41.873" x2="339.92" y2="31.972"/>
			
				<line fill="none" stroke="#019980" stroke-width="4.125" stroke-miterlimit="10" x1="349.674" y1="31.097" x2="341.23" y2="22.506"/>
			
				<line fill="none" stroke="#019980" stroke-width="4.125" stroke-miterlimit="10" x1="349.674" y1="21.342" x2="345.309" y2="16.828"/>
			
				<line fill="none" stroke="#019980" stroke-width="4.125" stroke-miterlimit="10" x1="349.674" y1="41.873" x2="359.578" y2="31.972"/>
			
				<line fill="none" stroke="#019980" stroke-width="4.125" stroke-miterlimit="10" x1="349.674" y1="31.097" x2="358.123" y2="22.506"/>
			
				<line fill="none" stroke="#019980" stroke-width="4.125" stroke-miterlimit="10" x1="349.674" y1="21.342" x2="354.191" y2="16.828"/>
		</g>
		<path fill="none" stroke="#019980" stroke-width="4.125" stroke-miterlimit="10" d="M334.676,31.39
			c0,8.299,6.701,14.997,14.998,14.997c8.303,0,15-6.698,15-14.997c0-16.455-15-23.444-15-23.444S334.676,14.643,334.676,31.39z"/>
	</g>
</g>
</svg>
