<?xml version="1.0" encoding="utf-8"?>
<!-- Generator: Adobe Illustrator 19.0.1, SVG Export Plug-In . SVG Version: 6.00 Build 0)  -->
<svg version="1.1" id="Layer_1" xmlns="http://www.w3.org/2000/svg" xmlns:xlink="http://www.w3.org/1999/xlink" x="0px" y="0px"
	 width="400px" height="60px" viewBox="0 0 400 60" style="enable-background:new 0 0 400 60;" xml:space="preserve">
<style type="text/css">
	.st0{fill:none;stroke:#019980;stroke-width:3.6766;stroke-miterlimit:10;}
	.st1{fill:none;stroke:#019980;stroke-width:5.5164;stroke-miterlimit:10;}
</style>
<g>
	<circle class="st0" cx="149.9" cy="30" r="11.1"/>
	<g>
		<polyline class="st0" points="149.6,46.8 149.6,50.9 149.6,54.9 		"/>
		<polyline class="st0" points="149.6,5.1 149.6,9.1 149.6,13.2 		"/>
		<polyline class="st0" points="166.5,30 170.8,30 175.2,30 		"/>
		<polyline class="st0" points="124.8,30 128.9,30 132.8,30 		"/>
		<polyline class="st0" points="138,41.8 135.1,44.8 132.1,47.8 		"/>
		<polyline class="st0" points="167.6,12.3 164.7,15.2 161.7,18.2 		"/>
		<polyline class="st0" points="161.7,41.8 164.7,44.8 167.6,47.8 		"/>
		<line class="st0" x1="132.1" y1="12.3" x2="138" y2="18.2"/>
		<line class="st0" x1="144" y1="45.2" x2="142.5" y2="49.1"/>
		<line class="st0" x1="157.2" y1="10.9" x2="155.7" y2="14.9"/>
		<line class="st0" x1="165" y1="35.9" x2="169" y2="37.4"/>
		<line class="st0" x1="130.8" y1="22.7" x2="134.7" y2="24.2"/>
		<line class="st0" x1="135" y1="36.6" x2="131.2" y2="38.3"/>
		<line class="st0" x1="168.6" y1="21.7" x2="164.7" y2="23.4"/>
		<line class="st0" x1="156.5" y1="44.9" x2="158.2" y2="48.7"/>
		<line class="st0" x1="141.6" y1="11.3" x2="143.3" y2="15.2"/>
		<path class="st0" d="M130.3,22.5"/>
	</g>
</g>
<g>
	<line class="st0" x1="350" y1="56.8" x2="350" y2="8.5"/>
	<g>
		<path class="st0" d="M350,3.2L350,3.2c9.9,4.5,16.8,14.4,16.8,26c0,9.3-7.5,16.8-16.8,16.8"/>
	</g>
	<g>
		<path class="st0" d="M350,3.2L350,3.2c-9.9,4.5-16.8,14.4-16.8,26c0,9.3,7.5,16.8,16.8,16.8"/>
	</g>
	<g>
		<line class="st0" x1="350" y1="41" x2="339.1" y2="30.1"/>
		<line class="st0" x1="350" y1="29.1" x2="340.7" y2="19.7"/>
		<line class="st0" x1="350" y1="18.3" x2="345.2" y2="13.4"/>
		<line class="st0" x1="350" y1="41" x2="360.9" y2="30.1"/>
		<line class="st0" x1="350" y1="29.1" x2="359.4" y2="19.7"/>
		<line class="st0" x1="350" y1="18.3" x2="354.9" y2="13.4"/>
	</g>
</g>
<g>
	<path class="st0" d="M240.7,19.7c-1.4-1.9-2.2-4.3-2.2-6.8c0-4.3,3.4-7.7,7.7-7.7c1.3,0,2.5,0.3,3.6,0.9l0.2,0.1
		c1.1-0.7,2.4-1,3.9-1c4.3,0,7.7,3.4,7.7,7.7c0,2.7-0.9,5.1-2.4,7.1"/>
	<path class="st0" d="M250,20"/>
	<g>
		<g>
			<path class="st0" d="M250,30.4c0,0-0.9,6.5-3.4,8.9c-3,3-7.9,2.9-10.9-0.2c-1-1-2-3.5-2-3.5s-2.5-1-3.5-2c-3-3-3-7.9,0-10.9
				c2.9-2.9,6.9-3.9,10.6-3.1c2.1,0.4,4.1,1.5,5.8,3.1"/>
			<path class="st0" d="M246.6,22.8"/>
		</g>
		<g>
			<path class="st0" d="M250,30.4c0,0,0.9,6.5,3.4,8.9c3,3,7.9,2.9,10.9-0.2c1-1,2-3.5,2-3.5s2.5-1,3.5-2c3-3,3-7.9,0-10.9
				c-2.9-2.9-6.9-3.9-10.6-3.1c-2.1,0.4-4.1,1.5-5.8,3.1"/>
			<path class="st0" d="M253.4,22.8"/>
		</g>
	</g>
	<path class="st0" d="M250,34.8v8.6v0.4c0,6,4.8,11,10.8,11"/>
</g>
<rect x="-41.5" y="-76.2" class="st0" width="86.6" height="60"/>
<g>
	<circle class="st1" cx="87.4" cy="50.6" r="5.9"/>
	<circle class="st1" cx="18.7" cy="49.8" r="6.6"/>
	<polyline class="st1" points="0.6,3.6 51,3.6 86.9,15.3 	"/>
	<line class="st1" x1="77.7" y1="12.1" x2="87.3" y2="36.4"/>
	<polyline class="st1" points="6.8,18 11.6,20 17.2,17.6 22.8,19.9 28.4,17.6 34,19.9 39.6,17.6 45.2,19.9 50.1,17.9 	"/>
	<path class="st1" d="M97.2,40.4c-5.4-5.4-14.2-5.4-19.6,0l-7.9,8.3H33.7l-7.5-13.5h-15L3.7,48.2"/>
	<polyline class="st1" points="59.7,6.4 59.7,29.3 68.5,36.3 87.3,36.3 	"/>
	<path class="st1" d="M51,35.5"/>
	<polyline class="st1" points="6.8,5.3 6.8,28.4 33.1,28.4 40.8,36.3 50.7,36.3 50.7,5.3 	"/>
</g>
</svg>
