<?xml version="1.0" encoding="utf-8"?>
<!-- Generator: Adobe Illustrator 19.0.1, SVG Export Plug-In . SVG Version: 6.00 Build 0)  -->
<svg version="1.1" id="Layer_1" xmlns="http://www.w3.org/2000/svg" xmlns:xlink="http://www.w3.org/1999/xlink" x="0px" y="0px"
	 width="174px" height="60px" viewBox="0 0 174 60" style="enable-background:new 0 0 174 60;" xml:space="preserve">
<style type="text/css">
	.st0{fill:none;stroke:#019980;stroke-width:3.6766;stroke-miterlimit:10;}
</style>
<g>
	<circle class="st0" cx="29.9" cy="30" r="11.1"/>
	<g>
		<polyline class="st0" points="29.6,46.8 29.6,50.9 29.6,54.9 		"/>
		<polyline class="st0" points="29.6,5.1 29.6,9.1 29.6,13.2 		"/>
		<polyline class="st0" points="46.5,30 50.8,30 55.2,30 		"/>
		<polyline class="st0" points="4.8,30 8.9,30 12.8,30 		"/>
		<polyline class="st0" points="18,41.8 15.1,44.8 12.1,47.8 		"/>
		<polyline class="st0" points="47.6,12.3 44.7,15.2 41.7,18.2 		"/>
		<polyline class="st0" points="41.7,41.8 44.7,44.8 47.6,47.8 		"/>
		<line class="st0" x1="12.1" y1="12.3" x2="18" y2="18.2"/>
		<line class="st0" x1="24" y1="45.2" x2="22.5" y2="49.1"/>
		<line class="st0" x1="37.2" y1="10.9" x2="35.7" y2="14.9"/>
		<line class="st0" x1="45" y1="35.9" x2="49" y2="37.4"/>
		<line class="st0" x1="10.8" y1="22.7" x2="14.7" y2="24.2"/>
		<line class="st0" x1="15" y1="36.6" x2="11.2" y2="38.3"/>
		<line class="st0" x1="48.6" y1="21.7" x2="44.7" y2="23.4"/>
		<line class="st0" x1="36.5" y1="44.9" x2="38.2" y2="48.7"/>
		<line class="st0" x1="21.6" y1="11.3" x2="23.3" y2="15.2"/>
		<path class="st0" d="M10.3,22.5"/>
	</g>
</g>
<g>
	<line class="st0" x1="150.8" y1="56.9" x2="150.8" y2="8.6"/>
	<g>
		<path class="st0" d="M150.8,3.3L150.8,3.3c9.9,4.5,16.8,14.4,16.8,26c0,9.3-7.5,16.8-16.8,16.8"/>
	</g>
	<g>
		<path class="st0" d="M150.8,3.3L150.8,3.3c-9.9,4.5-16.8,14.4-16.8,26c0,9.3,7.5,16.8,16.8,16.8"/>
	</g>
	<g>
		<line class="st0" x1="150.8" y1="41.1" x2="139.9" y2="30.2"/>
		<line class="st0" x1="150.8" y1="29.2" x2="141.5" y2="19.8"/>
		<line class="st0" x1="150.8" y1="18.4" x2="146" y2="13.5"/>
		<line class="st0" x1="150.8" y1="41.1" x2="161.7" y2="30.2"/>
		<line class="st0" x1="150.8" y1="29.2" x2="160.2" y2="19.8"/>
		<line class="st0" x1="150.8" y1="18.4" x2="155.7" y2="13.5"/>
	</g>
</g>
<g>
	<path class="st0" d="M80.7,19.7c-1.4-1.9-2.2-4.3-2.2-6.8c0-4.3,3.4-7.7,7.7-7.7c1.3,0,2.5,0.3,3.6,0.9L90,6.2c1.1-0.7,2.4-1,3.9-1
		c4.3,0,7.7,3.4,7.7,7.7c0,2.7-0.9,5.1-2.4,7.1"/>
	<path class="st0" d="M90,20"/>
	<g>
		<g>
			<path class="st0" d="M90,30.4c0,0-0.9,6.5-3.4,8.9c-3,3-7.9,2.9-10.9-0.2c-1-1-2-3.5-2-3.5s-2.5-1-3.5-2c-3-3-3-7.9,0-10.9
				c2.9-2.9,6.9-3.9,10.6-3.1c2.1,0.4,4.1,1.5,5.8,3.1"/>
			<path class="st0" d="M86.7,22.8"/>
		</g>
		<g>
			<path class="st0" d="M90.1,30.4c0,0,0.9,6.5,3.4,8.9c3,3,7.9,2.9,10.9-0.2c1-1,2-3.5,2-3.5s2.5-1,3.5-2c3-3,3-7.9,0-10.9
				c-2.9-2.9-6.9-3.9-10.6-3.1c-2.1,0.4-4.1,1.5-5.8,3.1"/>
			<path class="st0" d="M93.4,22.8"/>
		</g>
	</g>
	<path class="st0" d="M90,34.8v8.6v0.4c0,6,4.8,11,10.8,11"/>
</g>
</svg>
