<?xml version="1.0" encoding="utf-8"?>
<!-- Generator: Adobe Illustrator 19.0.1, SVG Export Plug-In . SVG Version: 6.00 Build 0)  -->
<svg version="1.1" id="Layer_1" xmlns="http://www.w3.org/2000/svg" xmlns:xlink="http://www.w3.org/1999/xlink" x="0px" y="0px"
	 width="100px" height="16px" viewBox="0 0 100 16" style="enable-background:new 0 0 100 16;" xml:space="preserve">
<style type="text/css">
	.st0{fill:#009980;}
</style>
<g>
	<polygon class="st0" points="2,0.6 2,4.2 3.7,4.2 3.7,15.4 7.6,15.4 7.6,4.2 9.3,4.2 9.3,0.6 	"/>
	<path class="st0" d="M10.6,0.6h4v10.8c0,0.4,0.2,0.6,0.5,0.6c0.3,0,0.5-0.2,0.5-0.6V0.6h4v11.3c0,2-1.4,3.9-4.2,3.9h-0.6
		c-3.1,0-4.1-1.9-4.1-3.9V0.6z"/>
	<polygon class="st0" points="24.8,15.4 20.8,15.4 20.8,0.6 24.8,0.6 24.8,5.4 26,0.6 29.9,0.6 28.1,7 30,15.4 25.8,15.4 24.8,10 	
		"/>
	<polygon class="st0" points="38,5.2 31.7,5.2 31.7,0.6 51.2,0.6 51.2,5.2 44.6,5.2 44.6,15.4 38,15.4 	"/>
	<path class="st0" d="M52.6,0.6h6.6V7c0,1.7,0.9,3.5,4.3,3.5h0c3.4,0,4.3-1.8,4.3-3.5V0.6h6.6v7c0,2.9-1.3,8.2-10.5,8.2H63
		c-9.3,0-10.4-5.3-10.4-8.2V0.6z"/>
	<polygon class="st0" points="76,15.4 76,0.6 82.6,0.6 82.6,6.2 89.6,0.6 97.8,0.6 89.1,7.3 97.9,15.4 89.2,15.4 82.6,9.2 
		82.6,15.4 	"/>
</g>
</svg>
