<?xml version="1.0" encoding="utf-8"?>
<!-- Generator: Adobe Illustrator 19.0.1, SVG Export Plug-In . SVG Version: 6.00 Build 0)  -->
<svg version="1.1" id="Layer_1" xmlns="http://www.w3.org/2000/svg" xmlns:xlink="http://www.w3.org/1999/xlink" x="0px" y="0px"
	 width="52px" height="58px" viewBox="0 0 52 58" style="enable-background:new 0 0 52 58;" xml:space="preserve">
<style type="text/css">
	.st0{fill:#FFFFFF;stroke:#02A182;stroke-width:4;stroke-miterlimit:10;}
	.st1{fill:#FFFFFF;}
	.st2{fill:#02A182;}
</style>
<g>
	<path class="st0" d="M17.8,37.5v18.2 M17.8,37.5V12.7"/>
	<polyline class="st0" points="31.3,26.3 40.3,26.3 40.3,41.8 27,41.8 27,37.5 	"/>
	<polyline class="st0" points="31.3,37.5 12.4,37.5 12.4,22 31.3,22 31.3,24 31.3,37.5 27,41.8 	"/>
	<g>
		<path class="st1" d="M17.8,14.1c-1.4,0-2.7-0.6-3.6-1.7c-0.9-1.1-1.2-2.5-1-3.9c0.3-1.9,1.8-3.3,3.7-3.7c0.3-0.1,0.6-0.1,0.9-0.1
			c1.4,0,2.7,0.6,3.6,1.7c0.9,1.1,1.2,2.5,1,3.9c-0.4,1.8-1.8,3.3-3.7,3.7C18.4,14.1,18.1,14.1,17.8,14.1L17.8,14.1z"/>
		<path class="st2" d="M17.8,6.8c1.6,0,2.9,1.5,2.6,3.2c-0.2,1-1,1.9-2.1,2.1c-0.2,0-0.3,0-0.5,0c-1.6,0-2.9-1.5-2.6-3.2
			c0.2-1,1-1.9,2.1-2.1C17.4,6.8,17.6,6.8,17.8,6.8 M17.8,2.8c-0.4,0-0.9,0-1.3,0.1c-2.6,0.5-4.8,2.6-5.3,5.3c-0.4,2,0.1,4,1.4,5.5
			c1.3,1.5,3.1,2.4,5.1,2.4c0.4,0,0.8,0,1.3-0.1c2.7-0.5,4.8-2.6,5.3-5.3c0.4-2-0.1-4-1.4-5.5C21.6,3.7,19.8,2.8,17.8,2.8L17.8,2.8z
			"/>
	</g>
</g>
</svg>
