<?xml version="1.0" encoding="utf-8"?>
<!-- Generator: Adobe Illustrator 19.0.1, SVG Export Plug-In . SVG Version: 6.00 Build 0)  -->
<svg version="1.1" xmlns="http://www.w3.org/2000/svg" xmlns:xlink="http://www.w3.org/1999/xlink" x="0px" y="0px" width="38px"
	 height="38px" viewBox="0 0 38 38" style="enable-background:new 0 0 38 38;" xml:space="preserve">
<style type="text/css">
	.st0{display:none;}
	.st1{display:inline;}
	.st2{fill:#02A182;stroke:#FFFFFF;stroke-width:4;stroke-miterlimit:10;}
	.st3{filter:url(#Adobe_OpacityMaskFilter);}
	.st4{mask:url(#SVGID_1_);fill:none;stroke:#02A182;stroke-width:4;stroke-miterlimit:10;}
	.st5{fill:#FFFFFF;stroke:#02A182;stroke-width:4;stroke-miterlimit:10;}
	.st6{fill:#F6F6F3;stroke:#029A80;stroke-width:4;stroke-miterlimit:10;}
	.st7{fill:none;stroke:#029A80;stroke-width:4;stroke-miterlimit:10;}
</style>
<g id="Layer_1" class="st0">
	<g class="st1">
		<g>
			<polygon class="st2" points="19.6,-1.9 6.2,7.7 -7.2,-1.9 -7.2,31.7 6.2,41.3 19.4,31.7 32.4,41.3 45.5,31.7 45.5,-1.9 32.5,7.7 
							"/>
		</g>
		<line class="st2" x1="19.5" y1="22.1" x2="19.5" y2="-2.2"/>
		<line class="st2" x1="6.6" y1="41.6" x2="6.6" y2="17.3"/>
		<line class="st2" x1="31.7" y1="41.6" x2="31.7" y2="17.3"/>
	</g>
</g>
<g id="Layer_2" class="st0">
	<g class="st1">
		<defs>
			<filter id="Adobe_OpacityMaskFilter" filterUnits="userSpaceOnUse" x="-16.9" y="12.6" width="55" height="33.4">
				<feFlood  style="flood-color:white;flood-opacity:1" result="back"/>
				<feBlend  in="SourceGraphic" in2="back" mode="normal"/>
			</filter>
		</defs>
		<mask maskUnits="userSpaceOnUse" x="-16.9" y="12.6" width="55" height="33.4" id="SVGID_1_">
			<g class="st3">
				<polygon points="-1.3,6.5 -6.6,24 43.4,37.6 43.1,10 				"/>
			</g>
		</mask>
		<path class="st4" d="M38,43.7l-20.6,0.2c0-2.9-2.3-5.2-5.2-5.2c-2.9,0-5.8,2.4-5.8,5.3l-21.3,0V12.6"/>
		<path class="st5" d="M22.5-0.3c-0.8,2.8,0.9,5.8,3.7,6.6C29.1,7,32,5.4,32.8,2.6l20.1,5.7l-8.2,29l-20.1-5.7
			c0.8-2.8-0.9-5.8-3.7-6.6c-2.8-0.8-5.8,0.8-6.6,3.6L-5.8,23L2.4-6L22.5-0.3z"/>
	</g>
</g>
<g id="Layer_3">
	<g>
		<rect x="3.6" y="3.6" class="st6" width="30.8" height="30.8"/>
		<g>
			<g>
				<g>
					<polyline class="st7" points="22,27 17.4,22.4 14,19 22,11 					"/>
				</g>
			</g>
		</g>
	</g>
</g>
</svg>
