<?xml version="1.0" encoding="utf-8"?>
<!-- Generator: Adobe Illustrator 19.0.1, SVG Export Plug-In . SVG Version: 6.00 Build 0)  -->
<svg version="1.1" id="Layer_1" xmlns="http://www.w3.org/2000/svg" xmlns:xlink="http://www.w3.org/1999/xlink" x="0px" y="0px"
	 width="1400px" height="625px" viewBox="0 0 1400 625" style="enable-background:new 0 0 1400 625;" xml:space="preserve">
<style type="text/css">
	.st0{clip-path:url(#SVGID_2_);}
	.st1{fill:none;stroke:#009069;stroke-width:103.0887;stroke-miterlimit:10;}
	.st2{fill:none;stroke:#FFFFFF;stroke-width:103.0887;stroke-miterlimit:10;}
	.st3{fill:none;stroke:#FCE700;stroke-width:103.0887;stroke-miterlimit:10;}
	.st4{fill:none;stroke:#F6F6F3;stroke-width:103.0887;stroke-miterlimit:10;}
</style>
<g>
	<defs>
		<rect id="SVGID_1_" x="0.8" y="0.2" width="1400" height="624.8"/>
	</defs>
	<clipPath id="SVGID_2_">
		<use xlink:href="#SVGID_1_"  style="overflow:visible;"/>
	</clipPath>
	<g class="st0">
		<line class="st1" x1="4545" y1="-393.6" x2="1922.9" y2="995.6"/>
		<line class="st2" x1="4429.8" y1="-393.6" x2="1807.7" y2="995.6"/>
		<line class="st1" x1="4314.5" y1="-393.6" x2="1692.4" y2="995.6"/>
		<line class="st2" x1="4199.3" y1="-393.6" x2="1577.2" y2="995.6"/>
		<line class="st1" x1="4084" y1="-393.6" x2="1461.9" y2="995.6"/>
		<line class="st2" x1="3968.8" y1="-393.6" x2="1346.7" y2="995.6"/>
		<line class="st3" x1="3853.5" y1="-393.6" x2="1231.4" y2="995.6"/>
		<line class="st2" x1="3738.2" y1="-393.6" x2="1116.2" y2="995.6"/>
		<line class="st3" x1="3623" y1="-393.6" x2="1000.9" y2="995.6"/>
		<line class="st2" x1="3507.7" y1="-393.6" x2="885.6" y2="995.6"/>
		<line class="st3" x1="3392.5" y1="-393.6" x2="770.4" y2="995.6"/>
		<line class="st4" x1="3277.2" y1="-393.6" x2="655.1" y2="995.6"/>
		<line class="st3" x1="3162" y1="-393.6" x2="539.9" y2="995.6"/>
		<line class="st4" x1="3046.7" y1="-393.6" x2="424.6" y2="995.6"/>
		<line class="st3" x1="2931.5" y1="-393.6" x2="309.4" y2="995.6"/>
		<line class="st4" x1="2816.2" y1="-393.6" x2="194.1" y2="995.6"/>
		<line class="st3" x1="2701" y1="-393.6" x2="78.9" y2="995.6"/>
		<line class="st4" x1="2585.7" y1="-393.6" x2="-36.4" y2="995.6"/>
		<line class="st3" x1="2470.5" y1="-393.6" x2="-151.6" y2="995.6"/>
		<line class="st4" x1="2355.2" y1="-393.6" x2="-266.9" y2="995.6"/>
		<line class="st3" x1="2240" y1="-393.6" x2="-382.1" y2="995.6"/>
		<line class="st4" x1="2124.7" y1="-393.6" x2="-497.4" y2="995.6"/>
		<line class="st3" x1="2009.4" y1="-393.6" x2="-612.6" y2="995.6"/>
		<line class="st4" x1="1894.2" y1="-393.6" x2="-727.9" y2="995.6"/>
		<line class="st3" x1="1778.9" y1="-393.6" x2="-843.1" y2="995.6"/>
		<line class="st4" x1="1663.7" y1="-393.6" x2="-958.4" y2="995.6"/>
		<line class="st3" x1="1548.4" y1="-393.6" x2="-1073.7" y2="995.6"/>
		<line class="st4" x1="1433.2" y1="-393.6" x2="-1188.9" y2="995.6"/>
		<line class="st3" x1="1317.9" y1="-393.6" x2="-1304.2" y2="995.6"/>
		<line class="st4" x1="1202.7" y1="-393.6" x2="-1419.4" y2="995.6"/>
		<line class="st3" x1="1087.4" y1="-393.6" x2="-1534.7" y2="995.6"/>
		<line class="st4" x1="972.2" y1="-393.6" x2="-1649.9" y2="995.6"/>
		<line class="st3" x1="856.9" y1="-393.6" x2="-1765.2" y2="995.6"/>
		<line class="st4" x1="741.7" y1="-393.6" x2="-1880.4" y2="995.6"/>
		<line class="st3" x1="626.4" y1="-393.6" x2="-1995.7" y2="995.6"/>
		<line class="st2" x1="511.2" y1="-393.6" x2="-2110.9" y2="995.6"/>
		<line class="st3" x1="395.9" y1="-393.6" x2="-2226.2" y2="995.6"/>
		<line class="st2" x1="280.7" y1="-393.6" x2="-2341.4" y2="995.6"/>
		<line class="st3" x1="165.4" y1="-393.6" x2="-2456.7" y2="995.6"/>
		<line class="st2" x1="50.1" y1="-393.6" x2="-2571.9" y2="995.6"/>
		<line class="st3" x1="-65.1" y1="-393.6" x2="-2687.2" y2="995.6"/>
		<line class="st2" x1="-180.4" y1="-393.6" x2="-2802.5" y2="995.6"/>
		<line class="st1" x1="-295.6" y1="-393.6" x2="-2917.7" y2="995.6"/>
		<line class="st2" x1="-410.9" y1="-393.6" x2="-3033" y2="995.6"/>
		<line class="st1" x1="-526.1" y1="-393.6" x2="-3148.2" y2="995.6"/>
		<line class="st2" x1="-641.4" y1="-393.6" x2="-3263.5" y2="995.6"/>
	</g>
</g>
</svg>
