<?xml version="1.0" encoding="utf-8"?>
<!-- Generator: Adobe Illustrator 16.0.0, SVG Export Plug-In . SVG Version: 6.00 Build 0)  -->
<!DOCTYPE svg PUBLIC "-//W3C//DTD SVG 1.1//EN" "http://www.w3.org/Graphics/SVG/1.1/DTD/svg11.dtd">
<svg version="1.1" id="Layer_1" xmlns="http://www.w3.org/2000/svg" xmlns:xlink="http://www.w3.org/1999/xlink" x="0px" y="0px"
	 width="34px" height="34px" viewBox="1.917 1.917 34 34" enable-background="new 1.917 1.917 34 34" xml:space="preserve">
<g id="Layer_1_1_" display="none">
	<g display="inline">
		<g>
			<polygon fill="#02A182" stroke="#FFFFFF" stroke-width="4" stroke-miterlimit="10" points="19.6,-1.9 6.2,7.7 -7.2,-1.9 
				-7.2,31.7 6.2,41.3 19.4,31.7 32.4,41.3 45.5,31.7 45.5,-1.9 32.5,7.7 			"/>
		</g>
		<line fill="none" stroke="#FFFFFF" stroke-width="4" stroke-miterlimit="10" x1="19.5" y1="22.1" x2="19.5" y2="-2.2"/>
		<line fill="none" stroke="#FFFFFF" stroke-width="4" stroke-miterlimit="10" x1="6.6" y1="41.6" x2="6.6" y2="17.3"/>
		<line fill="none" stroke="#FFFFFF" stroke-width="4" stroke-miterlimit="10" x1="31.7" y1="41.6" x2="31.7" y2="17.3"/>
	</g>
</g>
<g id="Layer_2" display="none">
	<g display="inline">
		<path fill="none" stroke="#02A182" stroke-width="4" stroke-miterlimit="10" d="M38,43.7l-20.6,0.2c0-2.9-2.3-5.2-5.2-5.2
			c-2.9,0-5.8,2.399-5.8,5.3h-21.3V12.6"/>
		<path fill="#FFFFFF" stroke="#02A182" stroke-width="4" stroke-miterlimit="10" d="M22.5-0.3c-0.8,2.8,0.9,5.8,3.7,6.6
			C29.1,7,32,5.4,32.8,2.6L52.9,8.3l-8.2,29L24.6,31.6C25.4,28.8,23.7,25.8,20.9,25c-2.8-0.8-5.8,0.8-6.601,3.6L-5.8,23L2.4-6
			L22.5-0.3z"/>
	</g>
</g>
<g id="Layer_3" display="none">
	<g display="inline">
		<rect x="3.6" y="3.6" fill="#F6F6F3" stroke="#029A80" stroke-width="4" stroke-miterlimit="10" width="30.8" height="30.8"/>
		<g>
			<g>
				<g>
					<polyline fill="none" stroke="#029A80" stroke-width="4" stroke-miterlimit="10" points="22,27 17.4,22.4 14,19 22,11 					"/>
				</g>
			</g>
		</g>
	</g>
</g>
<g id="Layer_4">
	<g>
		<rect x="3.916" y="3.916" fill="#F6F6F3" stroke="#029A80" stroke-width="4" stroke-miterlimit="10" width="30" height="30"/>
		<g>
			<g>
				<g>
					<polyline fill="none" stroke="#029A80" stroke-width="4" stroke-miterlimit="10" points="11.124,22.812 15.604,18.333 
						18.916,15.021 26.708,22.812 					"/>
				</g>
			</g>
		</g>
	</g>
</g>
</svg>
