<?xml version="1.0" encoding="utf-8"?>
<!-- Generator: Adobe Illustrator 19.0.1, SVG Export Plug-In . SVG Version: 6.00 Build 0)  -->
<svg version="1.1" id="Layer_1" xmlns="http://www.w3.org/2000/svg" xmlns:xlink="http://www.w3.org/1999/xlink" x="0px" y="0px"
	 width="100px" height="60px" viewBox="0 0 100 60" style="enable-background:new 0 0 100 60;" xml:space="preserve">
<style type="text/css">
	.st0{fill:none;stroke:#019980;stroke-width:5.5164;stroke-miterlimit:10;}
</style>
<g>
	<circle class="st0" cx="87.4" cy="50.6" r="5.9"/>
	<circle class="st0" cx="18.7" cy="49.8" r="6.6"/>
	<polyline class="st0" points="0.6,3.6 51,3.6 86.9,15.3 	"/>
	<line class="st0" x1="77.7" y1="12.1" x2="87.3" y2="36.4"/>
	<polyline class="st0" points="6.8,18 11.6,20 17.2,17.6 22.8,19.9 28.4,17.6 34,19.9 39.6,17.6 45.2,19.9 50.1,17.9 	"/>
	<path class="st0" d="M97.2,40.4c-5.4-5.4-14.2-5.4-19.6,0l-7.9,8.3H33.7l-7.5-13.5h-15L3.7,48.2"/>
	<polyline class="st0" points="59.7,6.4 59.7,29.3 68.5,36.3 87.3,36.3 	"/>
	<path class="st0" d="M51,35.5"/>
	<polyline class="st0" points="6.8,5.3 6.8,28.4 33.1,28.4 40.8,36.3 50.7,36.3 50.7,5.3 	"/>
</g>
</svg>
